<svg width="36" height="42" viewBox="0 0 36 42" fill="none" xmlns="http://www.w3.org/2000/svg">
<path d="M13.7443 25.1863C12.243 24.066 11.0035 22.6845 10.0685 21.0841C9.16028 19.5372 8.57257 17.8462 8.31078 16.0645C8.05433 14.2829 8.1398 12.4958 8.56722 10.7568C9.01066 8.95383 9.80674 7.27883 10.9287 5.77988C12.0507 4.28092 13.4345 3.04335 15.0373 2.10984C16.5867 1.203 18.2803 0.61623 20.0648 0.354846C21.8492 0.0987973 23.6391 0.184137 25.3808 0.610885C27.1866 1.05364 28.8643 1.84848 30.3656 2.96869C31.8669 4.08891 33.1064 5.47051 34.0414 7.07081C34.9496 8.61778 35.5373 10.3088 35.7991 12.0904C36.0555 13.8721 35.9701 15.6591 35.5427 17.3981C35.0992 19.2011 34.3031 20.8761 33.1812 22.3751C32.0592 23.874 30.6754 25.1116 29.0726 26.0451C27.5232 26.9519 25.8296 27.5387 24.0451 27.8001C22.2606 28.0562 20.4708 27.9708 18.7291 27.5441C16.9233 27.1013 15.2456 26.3065 13.7443 25.1863ZM28.7093 5.18777C26.3318 3.41143 23.404 2.66996 20.4655 3.09671C17.527 3.52346 14.9304 5.0651 13.1513 7.43889C11.3722 9.81267 10.6295 12.7359 11.0569 15.6698C11.4843 18.6037 13.0284 21.1962 15.4059 22.9725C17.7834 24.7489 20.7112 25.4903 23.6497 25.0636C26.5882 24.6368 29.1848 23.0952 30.9639 20.7214C32.7431 18.3476 33.4857 15.4244 33.0583 12.4905C32.6309 9.55661 31.0868 6.96411 28.7093 5.18777ZM16.1806 29.5658C16.5973 29.011 16.4798 28.2215 15.9242 27.8108L10.6028 23.842C10.0472 23.4259 9.25644 23.5433 8.84505 24.0981C8.43366 24.6528 8.54585 25.4423 9.10149 25.8531L14.4229 29.8218C14.9785 30.2379 15.7692 30.1206 16.1806 29.5658ZM7.97953 40.0371L13.6428 31.2941C13.8832 30.9207 13.7924 30.4299 13.4398 30.1632L9.04808 26.8879C8.69546 26.6212 8.19323 26.6799 7.90472 27.0159L1.11412 34.9161C-0.504723 36.7992 -0.189498 39.6584 1.80334 41.1467C3.79618 42.635 6.63316 42.1229 7.97953 40.0371ZM29.4359 10.3674C29.2329 10.4795 29.0833 10.6608 29.0192 10.8849C28.9551 11.1036 28.9818 11.3436 29.0886 11.5463C29.0886 11.557 29.5695 12.4638 29.6176 13.8508C29.6496 14.6883 29.5161 15.5204 29.2276 16.3366C29.0512 16.8273 28.8215 17.3128 28.533 17.7822C28.2124 18.3103 27.8171 18.8277 27.3576 19.3292C27.2027 19.4999 27.1225 19.7239 27.1279 19.9533C27.1385 20.1826 27.2401 20.4014 27.4057 20.556C27.5766 20.7107 27.8011 20.7908 28.0308 20.7854C28.2605 20.7748 28.4796 20.6734 28.6345 20.5081C29.1688 19.9266 29.6336 19.3131 30.0129 18.6944C30.3602 18.1236 30.6487 17.5261 30.8624 16.9287C31.2257 15.9098 31.3914 14.859 31.354 13.8028C31.3379 13.3867 31.2952 12.9706 31.215 12.5652C31.1509 12.2398 31.0708 11.9197 30.9693 11.6103C30.7983 11.0822 30.6273 10.7622 30.6113 10.7302C30.4991 10.5275 30.3175 10.3781 30.0931 10.3141C29.9702 10.2767 29.8473 10.2714 29.7244 10.2874C29.6229 10.3034 29.5268 10.3354 29.4359 10.3834V10.3674ZM17.8582 9.23656L18.4513 12.0104C18.494 12.4371 18.3818 12.8639 18.1521 13.216L16.2608 15.3977C16.1165 15.5471 16.0791 15.7658 16.1592 15.9578C16.2394 16.1552 16.405 16.2832 16.6187 16.3152L19.3221 16.5873C19.8885 16.6886 20.3747 17.0247 20.6525 17.5261H20.6632L21.9775 19.7292C22.095 19.9106 22.282 20.0119 22.4957 19.9959C22.7094 19.9853 22.8857 19.8626 22.9659 19.6759L24.0344 17.2594C24.2535 16.79 24.6488 16.4326 25.1297 16.2672L27.8865 15.6324C28.0949 15.5844 28.2498 15.4297 28.3033 15.227C28.3567 15.0243 28.2979 14.811 28.1323 14.6723L26.257 12.9973L26.1555 12.9066C25.7494 12.5172 25.5357 11.9571 25.5785 11.3916L25.8082 8.7618C25.8242 8.54842 25.7281 8.35639 25.5518 8.2337C25.3701 8.11634 25.1564 8.11634 24.9694 8.2337L22.6239 9.58862C22.1805 9.81799 21.6729 9.85533 21.1974 9.71663L18.6169 8.61776C18.4192 8.53241 18.2002 8.56443 18.0452 8.69779C17.8796 8.84181 17.8048 9.03917 17.8582 9.24721V9.23656Z" fill="url(#paint0_linear_10_106)"/>
<defs>
<linearGradient id="paint0_linear_10_106" x1="6.02246" y1="7.01572" x2="71.34" y2="51.8896" gradientUnits="userSpaceOnUse">
<stop stop-color="#CBD1D6"/>
<stop offset="0.09" stop-color="#C7CDD2"/>
<stop offset="0.17" stop-color="#BCC2C7"/>
<stop offset="0.25" stop-color="#AAB1B5"/>
<stop offset="0.29" stop-color="#CAD1D4"/>
<stop offset="0.33" stop-color="#E1E8EB"/>
<stop offset="0.55" stop-color="#B0B7BC"/>
<stop offset="0.58" stop-color="#A9B0B4"/>
<stop offset="0.68" stop-color="#9BA1A6"/>
<stop offset="0.75" stop-color="#979DA1"/>
<stop offset="0.91" stop-color="#6A6F73"/>
<stop offset="0.93" stop-color="#70757A"/>
<stop offset="0.95" stop-color="#84898D"/>
<stop offset="0.97" stop-color="#A3A9AD"/>
<stop offset="1" stop-color="#CBD1D6"/>
</linearGradient>
</defs>
</svg>
