<svg width="59" height="47" viewBox="0 0 59 47" fill="none" xmlns="http://www.w3.org/2000/svg">
<path fill-rule="evenodd" clip-rule="evenodd" d="M23.706 0.979231C25.3248 1.32596 26.1155 3.99314 25.4797 6.93237C24.844 9.8716 23.0167 11.968 21.4032 11.6213C19.7844 11.2745 18.9937 8.60736 19.6294 5.66813C20.2652 2.7289 22.0925 0.632498 23.706 0.979231ZM41.2675 4.76662C42.8863 5.11336 43.6771 7.78053 43.0413 10.7198C42.4055 13.659 40.5783 15.7554 38.9648 15.4087C37.3459 15.0619 36.5552 12.3948 37.191 9.45552C37.8268 6.51629 39.654 4.41989 41.2675 4.76662ZM39.3174 15.5314C39.1945 15.5314 39.0716 15.5207 38.9488 15.494C37.2872 15.1366 36.4644 12.4214 37.1055 9.43952C37.4154 8.00458 38.0191 6.72433 38.7938 5.82816C39.5845 4.91599 40.4714 4.51591 41.2835 4.69194C42.0956 4.86798 42.7368 5.59878 43.0787 6.75634C43.4206 7.89256 43.4366 9.31149 43.1214 10.7464C42.523 13.5043 40.8721 15.5367 39.3121 15.5367L39.3174 15.5314ZM40.9095 4.81463C40.2577 4.81463 39.5632 5.20404 38.9274 5.93485C38.1687 6.80968 37.581 8.06859 37.2765 9.47152C36.6514 12.3574 37.4207 14.9819 38.9862 15.3233C40.5462 15.6647 42.336 13.5896 42.9611 10.6984C43.2657 9.29016 43.2496 7.90322 42.9184 6.79368C42.5925 5.70014 41.9995 5.012 41.2515 4.84664C41.1393 4.81997 41.0271 4.8093 40.9095 4.8093V4.81463ZM21.7612 11.7386C21.633 11.7386 21.5101 11.7226 21.3819 11.6959C20.5698 11.5199 19.9286 10.7891 19.5867 9.63155C19.2448 8.49534 19.2287 7.0764 19.544 5.64146C20.1904 2.66489 22.0604 0.536479 23.722 0.888547C25.3836 1.24595 26.2064 3.96114 25.5652 6.94304C25.2554 8.37798 24.657 9.65823 23.8769 10.5544C23.2091 11.3279 22.4718 11.7333 21.7665 11.7333L21.7612 11.7386ZM23.3427 1.02724C21.8627 1.02724 20.2866 3.00629 19.7043 5.68413C19.3997 7.0924 19.4157 8.47933 19.747 9.58888C20.0729 10.6824 20.6659 11.3706 21.4139 11.5359C22.1619 11.7013 22.99 11.3119 23.738 10.453C24.4967 9.57821 25.0844 8.3193 25.3889 6.91637C26.014 4.03048 25.2447 1.40598 23.6792 1.06458C23.567 1.03791 23.4548 1.02724 23.3373 1.02724H23.3427ZM48.1543 37.957C50.9432 35.0764 52.8612 32.0198 54.0366 29.8168C54.3999 30.1315 54.7632 30.4409 55.0945 30.7023C56.1363 31.5237 57.6537 31.3477 58.4764 30.3075C59.2992 29.2673 59.1229 27.7524 58.0811 26.9309C56.9591 26.0454 55.2654 24.4291 54.9663 24.1463C53.6306 22.7221 51.627 21.0577 51.5416 20.9884C50.5158 20.1402 48.9984 20.2843 48.1543 21.3031C47.3048 22.3273 47.449 23.8423 48.4695 24.6851C48.4855 24.6958 49.4419 25.4906 50.3929 26.3814C48.2611 30.8996 40.3806 44.4542 23.7647 40.8695C4.34392 36.6821 5.52999 16.9023 5.58876 16.0595C5.68493 14.7365 4.69119 13.5843 3.37154 13.4883C2.0412 13.3923 0.887166 14.3791 0.790997 15.7021C0.769626 15.9474 -0.806483 40.4855 22.7496 45.5691C25.0203 46.0599 27.1574 46.2786 29.1609 46.2786C38.0191 46.2786 44.2541 41.9898 48.1543 37.957Z" fill="url(#paint0_linear_10_103)"/>
<defs>
<linearGradient id="paint0_linear_10_103" x1="10.4135" y1="8.24783" x2="86.4549" y2="86.2756" gradientUnits="userSpaceOnUse">
<stop stop-color="#CBD1D6"/>
<stop offset="0.09" stop-color="#C7CDD2"/>
<stop offset="0.17" stop-color="#BCC2C7"/>
<stop offset="0.25" stop-color="#AAB1B5"/>
<stop offset="0.29" stop-color="#CAD1D4"/>
<stop offset="0.33" stop-color="#E1E8EB"/>
<stop offset="0.55" stop-color="#B0B7BC"/>
<stop offset="0.58" stop-color="#A9B0B4"/>
<stop offset="0.68" stop-color="#9BA1A6"/>
<stop offset="0.75" stop-color="#979DA1"/>
<stop offset="0.91" stop-color="#6A6F73"/>
<stop offset="0.93" stop-color="#70757A"/>
<stop offset="0.95" stop-color="#84898D"/>
<stop offset="0.97" stop-color="#A3A9AD"/>
<stop offset="1" stop-color="#CBD1D6"/>
</linearGradient>
</defs>
</svg>
