<svg width="37" height="44" viewBox="0 0 37 44" fill="none" xmlns="http://www.w3.org/2000/svg">
<path d="M34.3155 30.8416C34.8975 35.6158 33.1782 39.6006 29.9053 42.9986C29.8252 43.0839 29.6757 43.0359 29.6597 42.9239C29.6383 42.7905 29.6116 42.6518 29.5689 42.5131C28.9336 39.9793 27.8924 37.3815 26.595 35.1091C26.5629 35.0504 26.5683 34.981 26.6163 34.9384C28.6559 32.9753 31.5872 29.62 33.0234 27.1182C33.0821 27.0168 33.2263 27.0222 33.2744 27.1182C33.7816 28.0944 34.1927 29.8654 34.3155 30.8469V30.8416ZM18.6876 37.8029L10.668 32.9646C10.5933 32.9166 10.4972 32.9486 10.4651 33.034C10.1181 33.9462 9.27984 35.5678 10.1768 36.2613C10.967 36.8801 15.7937 40.0273 16.712 39.894H16.7387C17.4222 39.6646 18.2231 38.6457 18.7249 38.0216C18.7783 37.9469 18.7623 37.8456 18.6876 37.8082V37.8029ZM13.3697 15.1212C7.96105 15.2386 3.44405 19.5327 1.35641 24.2803C1.18022 24.6857 0.998685 25.0965 0.875882 25.5232C0.843847 25.6299 0.945294 25.7259 1.05208 25.6939C1.21226 25.6566 1.37777 25.6192 1.54329 25.6086H1.586C3.33193 24.9364 7.63002 24.7177 9.49875 24.7817C9.56816 24.7871 9.62154 24.7391 9.63756 24.6804C10.5292 21.5598 11.6825 18.3859 13.343 15.58C13.391 15.5 13.4444 15.4253 13.4978 15.3559C13.5672 15.2599 13.4978 15.1266 13.3804 15.1266L13.3697 15.1212ZM36.8516 4.99129C36.9584 6.6236 36.9638 8.26658 36.8516 9.89356C36.7288 11.5259 36.5046 13.1529 36.1682 14.7585C35.8265 16.3641 35.378 17.9431 34.8334 19.4847C34.2835 21.0264 33.6267 22.5306 32.8686 23.9869C32.1157 25.4379 31.2561 26.8355 30.3004 28.1637C30.2417 28.2491 30.1776 28.3398 30.1189 28.4198C30.1189 28.4251 30.1135 28.4251 30.1135 28.4251C29.8359 28.8092 29.5422 29.1933 29.2486 29.5613C29.2059 29.6147 29.1685 29.6573 29.1258 29.7107C28.4477 30.5482 27.7376 31.3643 27.0008 32.1592C25.9062 33.3381 24.7796 34.4903 23.6157 35.5945C23.3113 35.8772 23.0177 36.1599 22.7134 36.4426C22.5158 36.624 22.3076 36.8107 22.11 36.9921C22.0887 37.0028 22.078 37.0134 22.062 37.0294C21.8858 37.1841 21.7042 37.3335 21.48 37.3602C21.1863 37.4028 20.9087 37.2481 20.6577 37.0934L20.5296 37.0187C19.1467 36.1866 17.7585 35.3544 16.3703 34.5169C16.3063 34.4743 16.2849 34.3996 16.3169 34.3249C16.3383 34.2822 16.3703 34.2396 16.397 34.1969C16.4611 34.1009 16.5412 34.0048 16.5946 33.9195C16.8509 33.4928 17.1018 33.066 17.3634 32.6446C17.7372 32.0151 18.1163 31.391 18.49 30.7669C18.6876 30.4362 18.8905 30.1001 19.088 29.7747C19.2962 29.428 19.4991 29.0866 19.7074 28.7452C20.0544 28.1744 20.3961 27.5983 20.7432 27.0275C20.7699 26.9688 20.7645 26.9048 20.7272 26.8621C20.5883 26.6808 20.4068 26.5314 20.2039 26.4034C19.9797 26.27 19.7394 26.1847 19.4991 26.142C19.4457 26.126 19.387 26.1527 19.3496 26.206C19.3283 26.2434 19.3016 26.2807 19.2802 26.3234C19.2268 26.4034 19.1788 26.4834 19.1307 26.5634C18.4473 27.673 17.7639 28.7772 17.0911 29.8867C16.365 31.0763 15.6495 32.2712 14.9394 33.4661C14.8967 33.5301 14.8113 33.5514 14.7472 33.5194C14.1332 33.162 13.5245 32.81 12.9105 32.4632C12.4193 32.1752 11.9281 31.8924 11.4369 31.6044C11.3194 31.5404 11.2073 31.471 11.0898 31.4124C10.7641 31.2203 10.4224 31.0176 10.2409 30.6869C10.0006 30.2708 10.0754 29.748 10.1608 29.2786C10.4064 27.961 10.7107 26.6648 11.0738 25.3739C11.3782 24.2963 11.7199 23.2348 12.1043 22.1999C12.1043 22.1999 12.1043 22.1946 12.1043 22.1839C13.6527 17.9964 15.8578 14.0704 18.7516 10.6777C23.2099 5.45537 29.3126 1.56663 36.0347 0.19037C36.0828 0.19037 36.1308 0.174365 36.1736 0.163696C36.1896 0.163696 36.2803 0.643788 36.3764 1.17189C36.4779 1.78001 36.59 2.45213 36.6007 2.55349C36.7182 3.36964 36.8036 4.18046 36.8623 4.99662L36.8516 4.99129ZM33.8243 11.7286C33.4559 10.0429 32.2919 8.62931 30.7703 7.89317C30.3111 7.67446 29.8252 7.51443 29.3233 7.43442C28.6559 7.31173 27.9672 7.31706 27.2998 7.45042C25.0893 7.87717 23.274 9.68018 22.8361 11.8939C22.4357 13.8677 23.1832 16.0814 24.7743 17.3243C26.2693 18.5032 28.2768 18.93 30.1028 18.3112C32.2279 17.5964 33.7602 15.5213 33.9311 13.3022C33.9738 12.7741 33.9311 12.2407 33.8296 11.7339L33.8243 11.7286ZM32.1851 11.8833C32.1051 11.5792 31.9929 11.2858 31.8434 11.0084C31.0319 9.53083 29.2165 8.68266 27.5614 8.99739C25.9115 9.31745 24.5394 10.7737 24.3311 12.4434C24.1176 14.1077 25.084 15.8627 26.611 16.5775C27.8764 17.1696 29.4568 17.0149 30.6101 16.2308C31.9929 15.2973 32.5909 13.4782 32.1798 11.8833H32.1851Z" fill="url(#paint0_linear_10_113)"/>
<defs>
<linearGradient id="paint0_linear_10_113" x1="18.9011" y1="0.713135" x2="18.9011" y2="48.5996" gradientUnits="userSpaceOnUse">
<stop stop-color="#F7D864"/>
<stop offset="0.11" stop-color="#DAAF39"/>
<stop offset="0.21" stop-color="#C69119"/>
<stop offset="0.29" stop-color="#B97F06"/>
<stop offset="0.34" stop-color="#B57900"/>
<stop offset="0.38" stop-color="#C18B13"/>
<stop offset="0.46" stop-color="#D5A731"/>
<stop offset="0.54" stop-color="#E5BE49"/>
<stop offset="0.63" stop-color="#F0CE59"/>
<stop offset="0.72" stop-color="#F6D763"/>
<stop offset="0.84" stop-color="#F9DB67"/>
<stop offset="0.87" stop-color="#F6D662"/>
<stop offset="0.9" stop-color="#EDCA56"/>
<stop offset="0.94" stop-color="#DFB641"/>
<stop offset="0.97" stop-color="#CC9B23"/>
<stop offset="1" stop-color="#B57900"/>
</linearGradient>
</defs>
</svg>
