<svg width="44" height="42" viewBox="0 0 44 42" fill="none" xmlns="http://www.w3.org/2000/svg">
<path d="M43.5264 16.0933C43.3287 15.7092 42.8585 15.4105 42.9226 14.9784C42.9707 14.6423 43.334 14.4076 43.4249 14.0769C43.5371 13.6768 43.2112 13.2927 42.8318 13.122C42.4525 12.9513 42.0144 12.9193 41.6137 12.786C41.213 12.6526 40.8283 12.3592 40.8123 11.9485C40.7962 11.463 41.3145 11.047 41.3038 10.5616C41.2931 10.0014 40.636 9.7134 40.0857 9.53736C39.5354 9.36133 38.8889 9.03059 38.937 8.46515C38.9583 8.21444 39.1186 7.99574 39.2308 7.77169C39.343 7.54232 39.3965 7.24892 39.2308 7.06755C39.1453 6.97687 39.0171 6.92886 38.8942 6.89685C38.376 6.76349 37.8203 6.80082 37.2914 6.72081C36.7571 6.64079 36.2068 6.39541 36.0198 5.91531C35.8489 5.4779 35.9931 4.87514 35.5978 4.60308C35.3841 4.45906 35.0902 4.47504 34.8284 4.51772C33.7599 4.70442 32.7928 5.27521 31.938 5.93133C30.0627 7.36094 28.5881 9.22796 27.4341 11.2283C27.0227 11.9485 26.6647 12.6793 26.3335 13.4208C26.3335 13.4208 26.3281 13.4208 26.3228 13.4154C27.8188 10.1241 28.3103 6.45408 27.931 2.94407C27.8775 2.44798 27.8027 1.94122 27.5463 1.51447C27.2898 1.08772 26.809 0.757006 26.2854 0.794346C25.8313 0.831687 25.3397 1.1304 24.9497 0.917026C24.6505 0.751661 24.5811 0.351583 24.3086 0.148877C23.9773 -0.096503 23.4591 0.0475286 23.1278 0.319581C22.7966 0.591633 22.5722 0.965048 22.2677 1.26377C21.9631 1.5625 21.509 1.79721 21.1136 1.66385C20.6381 1.50382 20.4725 0.895702 19.997 0.730337C19.452 0.532965 18.8911 1.00772 18.4743 1.4238C18.0629 1.83988 17.4592 2.28797 16.941 2.03726C16.7112 1.93057 16.5723 1.70652 16.4067 1.52515C16.2357 1.34378 15.9793 1.1891 15.7335 1.26911C15.6053 1.31179 15.5091 1.40781 15.4236 1.50382C15.071 1.90924 14.8573 2.41064 14.5474 2.84806C14.2375 3.28548 13.7567 3.68024 13.2171 3.66957C12.7202 3.6589 12.2073 3.3175 11.7746 3.56288C11.5395 3.69624 11.4273 3.9576 11.3525 4.20831C11.0586 5.21117 11.1815 6.26205 11.4273 7.25424C11.9669 9.41466 13.1049 11.383 14.5154 13.1167C15.1405 13.8848 15.8297 14.5943 16.5403 15.2771C16.4174 15.3891 16.2945 15.4958 16.177 15.6132C14.0933 13.3514 11.3952 11.6017 8.44603 10.4495C7.96519 10.2628 7.46831 10.0868 6.93938 10.1028C6.4158 10.1188 5.85481 10.3588 5.60904 10.8123C5.39533 11.207 5.40068 11.7511 4.99997 11.9751C4.69009 12.1458 4.28939 12.0125 3.95814 12.1512C3.55744 12.3112 3.41318 12.8073 3.4773 13.2074C3.54141 13.6075 3.76046 13.9649 3.87266 14.3596C3.98485 14.7544 3.94746 15.2345 3.61086 15.5012C3.20482 15.8159 2.56903 15.6772 2.16299 15.9866C1.69283 16.344 1.81571 17.0321 1.97065 17.5656C2.12559 18.099 2.20573 18.8085 1.69817 19.1232C1.47377 19.2619 1.20129 19.2726 0.944843 19.3312C0.688392 19.3846 0.41057 19.5286 0.3518 19.7687C0.319744 19.8913 0.3518 20.0194 0.394542 20.1367C0.570852 20.6168 0.907444 21.0222 1.13718 21.4863C1.36692 21.9504 1.46309 22.5265 1.15855 22.9693C0.88073 23.3747 0.29303 23.6414 0.282345 24.1161C0.277002 24.3722 0.453312 24.5856 0.640308 24.7616C1.38829 25.4711 2.40875 25.8605 3.4399 26.1165C5.68919 26.6713 8.08807 26.65 10.4175 26.2872C12.0363 26.0365 13.5964 25.5991 15.1565 25.135C11.9989 26.89 9.32758 29.4878 7.3668 32.4484C7.07829 32.8805 6.80047 33.3339 6.71499 33.8353C6.6295 34.3314 6.76842 34.8915 7.19049 35.1689C7.55914 35.4143 8.12547 35.4677 8.27507 35.8731C8.39261 36.1878 8.1789 36.5505 8.25369 36.8759C8.34452 37.2707 8.82537 37.4627 9.25278 37.4467C9.6802 37.4253 10.0916 37.26 10.519 37.2013C10.9464 37.1426 11.438 37.2227 11.6517 37.5747C11.9028 37.9908 11.6303 38.5776 11.8761 38.999C12.1539 39.4844 12.8912 39.4417 13.4735 39.3511C14.0612 39.2604 14.8039 39.2657 15.0336 39.7725C15.1351 39.9965 15.0924 40.2579 15.1031 40.5086C15.1138 40.754 15.2046 41.0367 15.445 41.1167C15.5679 41.1594 15.7068 41.1434 15.835 41.1167C16.3693 41.0047 16.8555 40.7273 17.3737 40.562C17.8973 40.3966 18.5171 40.3646 18.9124 40.7007C19.2811 41.0047 19.4414 41.5861 19.9276 41.6502C20.1893 41.6822 20.4511 41.5381 20.6648 41.3834C21.5411 40.754 22.1448 39.8311 22.6096 38.8816C23.6194 36.8172 24.0575 34.5448 24.1376 32.3044C24.1697 31.4402 24.1323 30.5867 24.0628 29.7386C24.8375 32.6351 26.3495 35.3343 28.3477 37.6067C28.6789 37.9855 29.0316 38.3589 29.5017 38.5723C29.9665 38.7856 30.5703 38.807 30.9977 38.4976C31.3717 38.2309 31.6228 37.7294 32.0769 37.7028C32.4295 37.6814 32.718 37.9695 33.0707 37.9908C33.4981 38.0121 33.856 37.6281 33.9896 37.2333C34.1178 36.8386 34.0965 36.4172 34.1873 36.0171C34.2781 35.6117 34.5346 35.1849 34.9566 35.0889C35.4589 34.9715 35.9504 35.377 36.4526 35.2649C37.0296 35.1423 37.2487 34.4595 37.3662 33.9047C37.4838 33.3499 37.7455 32.6671 38.3332 32.6031C38.595 32.5711 38.8355 32.6778 39.0866 32.7365C39.3377 32.7951 39.6476 32.7845 39.8132 32.5924C39.8987 32.4911 39.9307 32.3631 39.9468 32.2404C40.0215 31.7229 39.9147 31.2108 39.9307 30.6881C39.9468 30.1706 40.1337 29.5999 40.6092 29.3225C41.042 29.0718 41.6778 29.0824 41.9129 28.6503C42.0358 28.421 41.9877 28.1489 41.9075 27.9089C41.587 26.9434 40.8764 26.1485 40.0963 25.4711C38.392 23.9988 36.287 22.9906 34.0751 22.3185C33.2737 22.0731 32.4616 21.8864 31.6388 21.7264C35.2719 21.545 38.8889 20.3607 42.0625 18.5151C42.5219 18.2483 42.9814 17.9603 43.2966 17.5442C43.6119 17.1335 43.7561 16.5627 43.5264 16.1199V16.0933Z" fill="url(#paint0_linear_10_102)"/>
<defs>
<linearGradient id="paint0_linear_10_102" x1="7.46809" y1="6.80223" x2="76.04" y2="63.9686" gradientUnits="userSpaceOnUse">
<stop stop-color="#CBD1D6"/>
<stop offset="0.09" stop-color="#C7CDD2"/>
<stop offset="0.17" stop-color="#BCC2C7"/>
<stop offset="0.25" stop-color="#AAB1B5"/>
<stop offset="0.29" stop-color="#CAD1D4"/>
<stop offset="0.33" stop-color="#E1E8EB"/>
<stop offset="0.55" stop-color="#B0B7BC"/>
<stop offset="0.58" stop-color="#A9B0B4"/>
<stop offset="0.68" stop-color="#9BA1A6"/>
<stop offset="0.75" stop-color="#979DA1"/>
<stop offset="0.91" stop-color="#6A6F73"/>
<stop offset="0.93" stop-color="#70757A"/>
<stop offset="0.95" stop-color="#84898D"/>
<stop offset="0.97" stop-color="#A3A9AD"/>
<stop offset="1" stop-color="#CBD1D6"/>
</linearGradient>
</defs>
</svg>
