<svg width="36" height="44" viewBox="0 0 36 44" fill="none" xmlns="http://www.w3.org/2000/svg">
<path d="M33.3639 30.8413C33.9441 35.6156 32.2302 39.6003 28.9676 42.9983C28.8878 43.0837 28.7387 43.0357 28.7228 42.9236C28.7015 42.7903 28.6749 42.6516 28.6323 42.5129C27.9989 39.9791 26.961 37.3812 25.6677 35.1088C25.6357 35.0501 25.6411 34.9808 25.689 34.9381C27.7221 32.9751 30.6442 29.6198 32.0759 27.118C32.1344 27.0166 32.2781 27.0219 32.326 27.118C32.8317 28.0941 33.2415 29.8651 33.3639 30.8467V30.8413ZM17.7852 37.8027L9.79088 32.9644C9.71637 32.9164 9.62056 32.9484 9.58863 33.0337C9.24267 33.9459 8.40705 35.5676 9.30122 36.261C10.0889 36.8798 14.9004 40.0271 15.8159 39.8937H15.8425C16.5238 39.6644 17.3221 38.6455 17.8224 38.0214C17.8756 37.9467 17.8597 37.8453 17.7852 37.808V37.8027ZM12.484 15.121C7.09241 15.2383 2.58963 19.5325 0.508565 24.2801C0.332925 24.6855 0.151966 25.0962 0.0295501 25.523C-0.00238447 25.6297 0.0987426 25.7257 0.205191 25.6937C0.364864 25.6563 0.529858 25.619 0.694854 25.6083H0.737434C2.47787 24.9362 6.76242 24.7175 8.62527 24.7815C8.69446 24.7868 8.74768 24.7388 8.76365 24.6801C9.65249 21.5595 10.8021 18.3856 12.4574 15.5797C12.5053 15.4997 12.5585 15.425 12.6118 15.3557C12.681 15.2597 12.6118 15.1263 12.4947 15.1263L12.484 15.121ZM35.8921 4.99105C35.9985 6.62336 36.0038 8.26633 35.8921 9.89331C35.7697 11.5256 35.5461 13.1526 35.2108 14.7583C34.8702 16.3639 34.4231 17.9429 33.8802 19.4845C33.332 21.0261 32.6773 22.5304 31.9215 23.9867C31.1711 25.4376 30.3142 26.8352 29.3614 28.1635C29.3029 28.2488 29.239 28.3395 29.1805 28.4195C29.1805 28.4249 29.1752 28.4249 29.1752 28.4249C28.8984 28.8089 28.6057 29.193 28.3129 29.5611C28.2703 29.6144 28.2331 29.6571 28.1905 29.7104C27.5146 30.5479 26.8067 31.3641 26.0722 32.1589C24.9811 33.3378 23.8581 34.49 22.6978 35.5942C22.3944 35.877 22.1017 36.1597 21.7983 36.4424C21.6013 36.6238 21.3938 36.8105 21.1968 36.9918C21.1756 37.0025 21.1649 37.0132 21.1489 37.0292C20.9733 37.1839 20.7923 37.3332 20.5688 37.3599C20.2761 37.4026 19.9993 37.2479 19.7491 37.0932L19.6214 37.0185C18.2429 36.1863 16.8591 35.3542 15.4752 34.5167C15.4114 34.474 15.3901 34.3993 15.422 34.3247C15.4433 34.282 15.4752 34.2393 15.5018 34.1966C15.5657 34.1006 15.6456 34.0046 15.6988 33.9193C15.9543 33.4925 16.2044 33.0658 16.4652 32.6443C16.8378 32.0149 17.2157 31.3908 17.5882 30.7666C17.7852 30.4359 17.9874 30.0999 18.1844 29.7745C18.3919 29.4277 18.5942 29.0863 18.8017 28.7449C19.1477 28.1742 19.4883 27.598 19.8343 27.0273C19.8609 26.9686 19.8556 26.9046 19.8183 26.8619C19.68 26.6805 19.499 26.5312 19.2967 26.4032C19.0732 26.2698 18.8337 26.1844 18.5942 26.1418C18.5409 26.1258 18.4824 26.1524 18.4451 26.2058C18.4239 26.2431 18.3972 26.2805 18.376 26.3231C18.3227 26.4031 18.2748 26.4832 18.2269 26.5632C17.5457 27.6727 16.8644 28.7769 16.1938 29.8865C15.4699 31.076 14.7567 32.2709 14.0488 33.4658C14.0062 33.5298 13.9211 33.5512 13.8572 33.5192C13.2451 33.1618 12.6384 32.8097 12.0263 32.463C11.5366 32.1749 11.047 31.8922 10.5573 31.6041C10.4402 31.5401 10.3284 31.4708 10.2114 31.4121C9.88668 31.2201 9.54605 31.0174 9.36509 30.6866C9.12558 30.2706 9.20009 29.7478 9.28525 29.2784C9.53008 27.9608 9.83346 26.6645 10.1954 25.3736C10.4988 24.2961 10.8394 23.2345 11.2226 22.1997C11.2226 22.1997 11.2226 22.1943 11.2226 22.1837C12.7661 17.9962 14.9643 14.0701 17.849 10.6775C22.2933 5.45513 28.3768 1.56639 35.0777 0.190126C35.1256 0.190126 35.1735 0.174121 35.2161 0.163452C35.2321 0.163452 35.3226 0.643544 35.4184 1.17165C35.5195 1.77976 35.6313 2.45189 35.6419 2.55324C35.759 3.3694 35.8442 4.18022 35.9027 4.99638L35.8921 4.99105ZM32.8742 11.7283C32.507 10.0427 31.3467 8.62907 29.8298 7.89293C29.3721 7.67422 28.8878 7.51419 28.3874 7.43417C27.7221 7.31148 27.0355 7.31682 26.3702 7.45018C24.1668 7.87692 22.3571 9.67994 21.9207 11.8937C21.5215 13.8674 22.2667 16.0812 23.8527 17.3241C25.343 18.503 27.3442 18.9297 29.1645 18.3109C31.2828 17.5961 32.8104 15.5211 32.9807 13.302C33.0233 12.7739 32.9807 12.2404 32.8796 11.7337L32.8742 11.7283ZM31.2349 11.883C31.1551 11.579 31.0433 11.2856 30.8943 11.0082C30.0853 9.53058 28.2757 8.68242 26.6257 8.99714C24.9811 9.31721 23.6132 10.7735 23.4056 12.4431C23.1927 14.1075 24.1561 15.8625 25.6783 16.5773C26.9397 17.1694 28.5152 17.0147 29.6648 16.2305C31.0433 15.297 31.6394 13.478 31.2296 11.883H31.2349Z" fill="url(#paint0_linear_10_94)"/>
<defs>
<linearGradient id="paint0_linear_10_94" x1="0.0189053" y1="21.5969" x2="35.9719" y2="21.5969" gradientUnits="userSpaceOnUse">
<stop stop-color="#220600"/>
<stop offset="0.37" stop-color="#AA7D5A"/>
<stop offset="0.47" stop-color="#FAC2A7"/>
<stop offset="0.58" stop-color="#FAC2A7"/>
<stop offset="0.7" stop-color="#B17B60"/>
<stop offset="0.79" stop-color="#75492E"/>
<stop offset="1" stop-color="#3C1401"/>
</linearGradient>
</defs>
</svg>
