<svg width="44" height="42" viewBox="0 0 44 42" fill="none" xmlns="http://www.w3.org/2000/svg">
<path d="M43.3572 16.093C43.1603 15.709 42.6919 15.4102 42.7558 14.9781C42.8037 14.6421 43.1656 14.4074 43.2561 14.0766C43.3678 13.6766 43.0432 13.2925 42.6653 13.1218C42.2874 12.9511 41.8509 12.9191 41.4518 12.7857C41.0526 12.6524 40.6694 12.359 40.6534 11.9482C40.6374 11.4628 41.1537 11.0467 41.1431 10.5613C41.1324 10.0012 40.4778 9.71315 39.9296 9.53712C39.3813 9.36109 38.7373 9.03035 38.7852 8.46491C38.8065 8.21419 38.9662 7.99549 39.078 7.77145C39.1897 7.54207 39.243 7.24868 39.078 7.06731C38.9928 6.97663 38.8651 6.92861 38.7426 6.89661C38.2264 6.76325 37.6728 6.80058 37.1459 6.72056C36.6137 6.64055 36.0655 6.39516 35.8792 5.91507C35.7089 5.47765 35.8526 4.87489 35.4587 4.60284C35.2458 4.45881 34.9531 4.4748 34.6923 4.51747C33.6278 4.70417 32.6644 5.27496 31.8128 5.93109C29.9447 7.3607 28.4757 9.22772 27.326 11.2281C26.9162 11.9482 26.5596 12.679 26.2296 13.4205C26.2296 13.4205 26.2243 13.4205 26.219 13.4152C27.7093 10.1239 28.1989 6.45384 27.821 2.94383C27.7678 2.44774 27.6933 1.94098 27.4378 1.51423C27.1823 1.08748 26.7033 0.756762 26.1817 0.794102C25.7293 0.831443 25.2396 1.13016 24.8511 0.916782C24.5531 0.751417 24.4839 0.351339 24.2124 0.148633C23.8824 -0.0967471 23.3662 0.0472844 23.0362 0.319337C22.7062 0.591389 22.4826 0.964804 22.1793 1.26353C21.8759 1.56225 21.4235 1.79696 21.0296 1.6636C20.5559 1.50357 20.3909 0.895457 19.9172 0.730092C19.3743 0.532721 18.8155 1.00747 18.4003 1.42355C17.9905 1.83963 17.3891 2.28773 16.8728 2.03702C16.6439 1.93033 16.5055 1.70627 16.3406 1.52491C16.1702 1.34354 15.9148 1.18885 15.6699 1.26887C15.5422 1.31154 15.4464 1.40756 15.3612 1.50358C15.0099 1.90899 14.797 2.4104 14.4883 2.84782C14.1796 3.28523 13.7006 3.68 13.1631 3.66933C12.6681 3.65866 12.1571 3.31725 11.726 3.56263C11.4918 3.69599 11.38 3.95736 11.3055 4.20807C11.0128 5.21093 11.1352 6.26181 11.38 7.254C11.9176 9.41441 13.0513 11.3828 14.4564 13.1165C15.0791 13.8846 15.7657 14.5941 16.4736 15.2769C16.3512 15.3889 16.2288 15.4956 16.1117 15.6129C14.0359 13.3512 11.3481 11.6015 8.41013 10.4493C7.93111 10.2626 7.43613 10.0866 6.90921 10.1026C6.38761 10.1186 5.82875 10.3586 5.58392 10.812C5.37103 11.2067 5.37635 11.7508 4.97717 11.9749C4.66846 12.1456 4.26928 12.0122 3.93929 12.1509C3.54011 12.311 3.3964 12.8071 3.46027 13.2072C3.52414 13.6072 3.74236 13.9646 3.85413 14.3594C3.9659 14.7541 3.92865 15.2342 3.59333 15.5009C3.18883 15.8157 2.55546 15.6769 2.15096 15.9863C1.68258 16.3437 1.805 17.0319 1.95935 17.5653C2.1137 18.0988 2.19354 18.8082 1.68791 19.1229C1.46436 19.2616 1.19292 19.2723 0.937443 19.331C0.681966 19.3843 0.4052 19.5284 0.346653 19.7684C0.314719 19.8911 0.346653 20.0191 0.389233 20.1365C0.564873 20.6166 0.900186 21.022 1.12905 21.4861C1.35791 21.9501 1.45372 22.5263 1.15034 22.969C0.873574 23.3744 0.288107 23.6411 0.277462 24.1159C0.272139 24.3719 0.447779 24.5853 0.634064 24.7614C1.3792 25.4708 2.39579 25.8602 3.42302 26.1163C5.66376 26.671 8.05353 26.6497 10.3741 26.287C11.9868 26.0363 13.541 25.5989 15.0951 25.1348C11.9495 26.8898 9.28833 29.4876 7.335 32.4482C7.04759 32.8802 6.77082 33.3337 6.68567 33.8351C6.60051 34.3312 6.73889 34.8913 7.15936 35.1687C7.52661 35.4141 8.09079 35.4674 8.23981 35.8728C8.35691 36.1876 8.14401 36.5503 8.21852 36.8757C8.30901 37.2704 8.78802 37.4624 9.21382 37.4464C9.63961 37.4251 10.0494 37.2598 10.4752 37.2011C10.901 37.1424 11.3907 37.2224 11.6036 37.5745C11.8537 37.9906 11.5823 38.5773 11.8271 38.9988C12.1039 39.4842 12.8384 39.4415 13.4185 39.3508C14.004 39.2601 14.7438 39.2655 14.9727 39.7722C15.0738 39.9963 15.0312 40.2577 15.0419 40.5084C15.0525 40.7538 15.143 41.0365 15.3825 41.1165C15.5049 41.1592 15.6433 41.1432 15.7711 41.1165C16.3033 41.0045 16.7876 40.7271 17.3039 40.5617C17.8255 40.3964 18.4429 40.3644 18.8368 40.7004C19.204 41.0045 19.3637 41.5859 19.848 41.6499C20.1088 41.6819 20.3696 41.5379 20.5825 41.3832C21.4554 40.7537 22.0568 39.8309 22.5199 38.8814C23.5258 36.817 23.9623 34.5446 24.0421 32.3041C24.074 31.44 24.0368 30.5865 23.9676 29.7383C24.7393 32.6349 26.2456 35.3341 28.2362 37.6065C28.5662 37.9852 28.9174 38.3586 29.3858 38.572C29.8489 38.7854 30.4503 38.8067 30.8761 38.4973C31.2487 38.2306 31.4988 37.7292 31.9512 37.7025C32.3025 37.6812 32.5899 37.9692 32.9412 37.9906C33.367 38.0119 33.7236 37.6278 33.8567 37.2331C33.9844 36.8383 33.9631 36.4169 34.0536 36.0168C34.1441 35.6114 34.3996 35.1847 34.82 35.0887C35.3203 34.9713 35.81 35.3767 36.3103 35.2647C36.8851 35.142 37.1033 34.4592 37.2204 33.9045C37.3375 33.3497 37.5983 32.6669 38.1838 32.6029C38.4446 32.5709 38.6841 32.6775 38.9343 32.7362C39.1844 32.7949 39.4931 32.7842 39.6581 32.5922C39.7433 32.4908 39.7752 32.3628 39.7912 32.2401C39.8657 31.7227 39.7592 31.2106 39.7752 30.6878C39.7912 30.1704 39.9775 29.5996 40.4511 29.3222C40.8823 29.0715 41.5156 29.0822 41.7498 28.6501C41.8722 28.4207 41.8243 28.1487 41.7445 27.9086C41.4252 26.9431 40.7173 26.1483 39.9402 25.4708C38.2423 23.9986 36.1453 22.9903 33.9418 22.3182C33.1435 22.0728 32.3344 21.8861 31.5148 21.7261C35.134 21.5447 38.7373 20.3605 41.8988 18.5148C42.3566 18.2481 42.8143 17.96 43.1283 17.544C43.4424 17.1332 43.5861 16.5624 43.3572 16.1197V16.093Z" fill="url(#paint0_linear_10_92)"/>
<defs>
<linearGradient id="paint0_linear_10_92" x1="-11.517" y1="20.8299" x2="45.7576" y2="20.8299" gradientUnits="userSpaceOnUse">
<stop stop-color="#220600"/>
<stop offset="0.37" stop-color="#AA7D5A"/>
<stop offset="0.47" stop-color="#FAC2A7"/>
<stop offset="0.58" stop-color="#FAC2A7"/>
<stop offset="0.7" stop-color="#B17B60"/>
<stop offset="0.79" stop-color="#75492E"/>
<stop offset="1" stop-color="#3C1401"/>
</linearGradient>
</defs>
</svg>
