<svg width="46" height="45" viewBox="0 0 46 45" fill="none" xmlns="http://www.w3.org/2000/svg">
<path d="M10.1767 43.2518L11.362 30.7161C11.4047 30.2627 11.6877 29.8679 12.0988 29.6759L24.6514 23.9254C25.7459 23.424 26.8618 24.5762 26.3226 25.6538L19.2855 39.7471C19.1787 39.9552 19.0185 40.1312 18.8209 40.2592L12.1255 44.4521C11.2285 45.0122 10.0806 44.3027 10.1767 43.2518ZM0.459317 19.6313L8.5002 26.3526C8.80454 26.6086 9.21566 26.7046 9.60542 26.6193L24.3417 23.248C25.5217 22.9759 25.6979 21.365 24.598 20.8529L12.4299 15.1344C12.1736 15.0117 11.8853 14.9797 11.6076 15.0437L0.998579 17.4175C-0.0318928 17.6469 -0.352247 18.9592 0.459317 19.642V19.6313ZM44.6949 13.2727L31.5283 12.3712C30.9143 12.3286 30.3537 12.734 30.2042 13.3314L28.3728 20.5595C28.2233 21.1569 28.517 21.7757 29.0776 22.0317L35.7944 25.099C36.3069 25.3337 36.9103 25.2057 37.284 24.7843L45.5705 15.3905C46.2699 14.5957 45.7574 13.3474 44.7002 13.2781L44.6949 13.2727ZM20.4814 0.875693L16.1673 11.5817C15.9591 12.0992 16.1086 12.686 16.5411 13.0434L25.6124 20.5115C26.4827 21.2263 27.7855 20.5488 27.6947 19.4233L26.7497 7.693C26.7337 7.50096 26.675 7.31426 26.5735 7.14356L22.756 0.699658C22.2167 -0.207183 20.8712 -0.105826 20.4761 0.870361L20.4814 0.875693ZM27.5239 24.7683L24.7849 36.2745C24.6407 36.8773 24.9504 37.496 25.5217 37.7414L37.6524 42.9851C38.6242 43.4065 39.6546 42.5317 39.3983 41.5022L36.387 29.5159C36.3176 29.2331 36.1468 28.9771 35.9118 28.8064L29.5314 24.0481C28.7946 23.4987 27.7375 23.8828 27.5292 24.7736L27.5239 24.7683Z" fill="url(#paint0_linear_10_109)"/>
<defs>
<linearGradient id="paint0_linear_10_109" x1="-18.802" y1="27.1114" x2="58.3486" y2="18.3405" gradientUnits="userSpaceOnUse">
<stop stop-color="#F7D864"/>
<stop offset="0.11" stop-color="#DAAF39"/>
<stop offset="0.21" stop-color="#C69119"/>
<stop offset="0.29" stop-color="#B97F06"/>
<stop offset="0.34" stop-color="#B57900"/>
<stop offset="0.38" stop-color="#C18B13"/>
<stop offset="0.46" stop-color="#D5A731"/>
<stop offset="0.54" stop-color="#E5BE49"/>
<stop offset="0.63" stop-color="#F0CE59"/>
<stop offset="0.72" stop-color="#F6D763"/>
<stop offset="0.84" stop-color="#F9DB67"/>
<stop offset="0.87" stop-color="#F6D662"/>
<stop offset="0.9" stop-color="#EDCA56"/>
<stop offset="0.94" stop-color="#DFB641"/>
<stop offset="0.97" stop-color="#CC9B23"/>
<stop offset="1" stop-color="#B57900"/>
</linearGradient>
</defs>
</svg>
