<svg width="36" height="48" viewBox="0 0 36 48" fill="none" xmlns="http://www.w3.org/2000/svg">
<path d="M22.0379 45.5956C22.0645 45.6116 22.0911 45.6223 22.123 45.633C22.139 45.6383 22.155 45.649 22.1709 45.649C22.2029 45.6596 22.2348 45.665 22.2774 45.6703C22.3412 45.6757 22.3998 45.6703 22.4637 45.6596C22.485 45.6596 22.5116 45.6543 22.5329 45.6436C22.9746 45.569 23.4164 45.4836 23.8581 45.3929C26.6737 44.8115 29.4414 43.974 32.1186 42.9018C32.5337 42.7364 32.9489 42.5657 33.364 42.3844C33.3853 42.3737 33.4119 42.3683 33.4332 42.3577C33.4492 42.347 33.4704 42.3363 33.4864 42.331C33.5237 42.3097 33.5503 42.2937 33.5822 42.2617C33.6088 42.2457 33.6301 42.2243 33.6514 42.203C33.7206 42.1283 33.7685 42.043 33.8004 41.9523C33.8058 41.9363 33.8164 41.9149 33.8164 41.8989C33.4598 44.7155 30.4633 47.0893 28.9996 47.532C28.4674 47.6974 27.6264 47.7507 26.679 47.66C25.0291 47.4947 23.0651 46.8705 21.8888 45.5049C21.9314 45.5423 21.9793 45.5743 22.0325 45.6063L22.0379 45.5956ZM32.5018 41.6802C32.4539 42.0963 32.3155 42.5124 32.1292 42.9071C32.5443 42.7417 32.9595 42.571 33.3746 42.3897C33.3959 42.379 33.4225 42.3737 33.4438 42.363C33.4598 42.3523 33.4811 42.3417 33.4971 42.3363C33.5343 42.315 33.5663 42.2937 33.5929 42.267C33.6195 42.251 33.6408 42.2297 33.6621 42.2083C33.7313 42.1336 33.7792 42.0483 33.8111 41.9576C33.8164 41.9416 33.8271 41.9203 33.8271 41.9043C33.8271 41.8829 33.8377 41.8616 33.8377 41.8349V41.7762C33.8377 41.7282 33.8377 41.6855 33.8377 41.6375C33.8324 41.5895 33.8164 41.5469 33.7951 41.4989C33.7951 41.4935 33.7951 41.4828 33.7951 41.4775C33.7845 41.4615 33.7738 41.4402 33.7685 41.4242C33.7472 41.3868 33.7259 41.3548 33.6993 41.3281C33.6834 41.3015 33.6621 41.2801 33.6408 41.2588C33.5662 41.1895 33.4811 41.1414 33.3906 41.1094C33.3534 41.0934 33.3108 41.0828 33.2682 41.0828H33.2363C33.1245 41.0668 33.0127 41.0828 32.9222 41.1308C32.9009 41.1414 32.8797 41.1468 32.8584 41.1574C32.6721 41.2588 32.5444 41.4508 32.5177 41.6749V41.6856L32.5018 41.6802ZM21.7026 44.8061C21.6759 44.8968 21.6706 44.9768 21.6759 45.0622C21.6759 45.0942 21.6866 45.1315 21.6919 45.1636C21.7026 45.2222 21.7239 45.2756 21.7558 45.3289C21.7877 45.3876 21.8356 45.4463 21.8942 45.4943C21.9367 45.5316 21.9847 45.5636 22.0379 45.5956C22.0645 45.6116 22.0911 45.6223 22.123 45.633C22.139 45.6383 22.155 45.649 22.1709 45.649C22.2029 45.6596 22.2348 45.665 22.2774 45.6703C22.3412 45.6757 22.3998 45.6703 22.4637 45.6596C22.485 45.6596 22.5116 45.6543 22.5329 45.6436C22.9746 45.569 23.4164 45.4836 23.8581 45.3929C23.4749 45.1689 23.1343 44.8915 22.8575 44.5608C22.7138 44.3794 22.4903 44.3047 22.2774 44.3207C22.2614 44.3207 22.2454 44.3207 22.2241 44.3261C22.2135 44.3261 22.2082 44.3261 22.1975 44.3367C22.1709 44.3367 22.1443 44.3474 22.123 44.3581C22.1177 44.3581 22.1124 44.3581 22.1071 44.3581C22.0751 44.3741 22.0485 44.3847 22.0166 44.4007C21.8995 44.4648 21.809 44.5608 21.7451 44.6781C21.7238 44.7155 21.7079 44.7528 21.7026 44.7901V44.8061ZM20.3826 41.0454C20.4411 41.0508 20.4997 41.0454 20.5636 41.0401C24.6671 40.3413 28.6749 39.1357 32.4805 37.4501C32.8211 37.3007 32.9755 36.9006 32.8264 36.5592C32.6774 36.2178 32.2782 36.0631 31.9376 36.2125C28.2332 37.8502 24.3318 39.029 20.34 39.7065C19.9728 39.7705 19.7279 40.1173 19.7865 40.4853C19.8397 40.7894 20.0899 41.0134 20.3826 41.0454ZM21.2235 43.3712C21.2821 43.3765 21.3406 43.3712 21.4045 43.3659C25.4176 42.6884 29.3402 41.5042 33.0606 39.8559C33.4013 39.7065 33.5556 39.3064 33.4066 38.965C33.2575 38.6236 32.8584 38.4689 32.5177 38.6183C28.8985 40.2239 25.0823 41.3708 21.181 42.0323C20.8137 42.0963 20.5689 42.443 20.6274 42.8111C20.6806 43.1152 20.9308 43.3392 21.2235 43.3712ZM21.7026 44.8061C21.6759 44.8968 21.6706 44.9768 21.6759 45.0622C21.6759 45.0782 21.6759 45.0995 21.6813 45.1209C21.6866 45.1422 21.6919 45.1476 21.6919 45.1689C21.7026 45.2276 21.7239 45.2809 21.7558 45.3343C21.7877 45.3929 21.8356 45.4516 21.8942 45.4996C21.9367 45.537 21.9847 45.569 22.0379 45.601C22.0645 45.617 22.0911 45.6276 22.123 45.6383C22.139 45.6436 22.155 45.6543 22.1709 45.6543C22.2029 45.665 22.2348 45.6703 22.2774 45.6756C22.3412 45.681 22.3998 45.6757 22.4637 45.665C22.485 45.665 22.5116 45.6596 22.5329 45.649C22.9746 45.5743 23.4164 45.4889 23.8581 45.3983C26.6737 44.8168 29.4414 43.9793 32.1186 42.9071C32.5337 42.7417 32.9489 42.571 33.364 42.3897C33.3853 42.379 33.4119 42.3737 33.4332 42.363C33.4492 42.3523 33.4704 42.3417 33.4864 42.3363C33.5237 42.315 33.5556 42.2937 33.5822 42.267C33.6088 42.251 33.6301 42.2297 33.6514 42.2083C33.7206 42.1336 33.7685 42.0483 33.8004 41.9576C33.8058 41.9416 33.8164 41.9203 33.8164 41.9043C33.8164 41.8829 33.8271 41.8616 33.8271 41.8349V41.8136C33.8324 41.7549 33.8324 41.7016 33.8271 41.6429C33.8217 41.5949 33.8058 41.5522 33.7845 41.5042C33.7845 41.4988 33.7845 41.4882 33.7845 41.4828C33.7738 41.4668 33.7632 41.4455 33.7579 41.4295C33.7366 41.3922 33.7153 41.3602 33.6887 41.3335C33.6727 41.3068 33.6514 41.2855 33.6301 41.2641C33.5556 41.1948 33.4705 41.1468 33.38 41.1148C33.3427 41.0988 33.3001 41.0881 33.2575 41.0881H33.2256C33.1245 41.0774 33.0127 41.0881 32.9116 41.1361C32.8903 41.1468 32.869 41.1521 32.8477 41.1628C32.7413 41.2108 32.6348 41.2535 32.5284 41.2961C29.3562 42.6404 26.035 43.6433 22.65 44.2674C22.5275 44.2941 22.4158 44.3154 22.2933 44.3421C22.2774 44.3421 22.2614 44.3421 22.2401 44.3474C22.2295 44.3474 22.2242 44.3474 22.2135 44.3581C22.1869 44.3581 22.1603 44.3687 22.139 44.3794C22.1337 44.3794 22.1284 44.3794 22.123 44.3794C22.0911 44.3954 22.0645 44.4061 22.0325 44.4221C21.9155 44.4861 21.825 44.5821 21.7611 44.6995C21.7398 44.7368 21.7239 44.7741 21.7185 44.8115L21.7026 44.8061ZM19.5842 38.7303C19.6428 38.7357 19.7066 38.7303 19.7652 38.725C23.9273 38.0048 28.0043 36.778 31.8737 35.0816C32.2143 34.9323 32.3687 34.5322 32.2197 34.1908C32.0706 33.8494 31.6715 33.6947 31.3308 33.844C27.5572 35.4977 23.5867 36.6926 19.531 37.3967C19.1638 37.4607 18.9189 37.8075 18.9828 38.1755C19.036 38.4796 19.2862 38.7036 19.5789 38.7303H19.5842ZM20.7605 22.3645L20.9574 23.0153L21.5961 22.8179C21.5109 22.8446 21.4258 22.8499 21.3406 22.8446C21.0798 22.8179 20.8403 22.6366 20.7605 22.3698V22.3645ZM9.90806 24.9303L12.4894 24.1569C11.8028 23.6714 11.3238 22.9406 11.1375 22.0925C10.7596 20.3641 11.7336 18.6251 13.4049 18.049C14.3097 17.7396 15.2784 17.809 16.13 18.2464C16.9762 18.6892 17.599 19.4306 17.8704 20.3428C18.0939 21.0736 18.062 21.8471 17.8065 22.5512L20.5742 21.7191L19.5523 18.3157C19.5417 18.2731 19.531 18.2304 19.5257 18.1877C19.4565 17.8036 19.6055 17.4196 19.9195 17.1742C20.2708 16.9021 20.7392 16.8755 21.1171 17.1102C21.6334 17.4302 22.2667 17.5103 22.8469 17.3396C23.4057 17.1689 23.8635 16.7901 24.1296 16.2673C24.401 15.7499 24.4436 15.1525 24.2467 14.5977C23.906 13.5895 22.8203 12.9761 21.7771 13.2108C21.1171 13.3548 20.5848 13.7922 20.2974 14.4003C20.1111 14.8004 19.7066 15.0404 19.2649 15.0084C18.8551 14.9711 18.5197 14.7257 18.3654 14.363C18.3494 14.3257 18.3388 14.2936 18.3281 14.251V14.235L17.3169 10.8637C11.5633 12.9547 8.39116 19.0199 9.91338 24.9357L9.90806 24.9303ZM10.3126 26.2159C11.2387 28.6431 12.9418 30.7074 15.1613 32.073C16.7208 33.0332 18.1046 33.9614 19.1159 35.4284L24.2147 33.8974L23.3791 31.1129C22.8895 31.7957 22.1656 32.2757 21.3247 32.4625C20.9521 32.5425 20.5902 32.5638 20.2336 32.5318C18.9136 32.4038 17.7373 31.5129 17.2903 30.19C16.9762 29.2885 17.0454 28.3176 17.4872 27.4695C17.9236 26.616 18.6688 25.9972 19.5736 25.7198C20.3028 25.5011 21.0852 25.5278 21.7877 25.7892L20.9521 23.0153L17.5511 24.0395C17.5085 24.0502 17.4712 24.0608 17.4233 24.0662C17.0401 24.1355 16.6516 23.9862 16.4121 23.6661C16.1406 23.314 16.1193 22.8446 16.3482 22.4712C16.6675 21.9484 16.7527 21.3137 16.5771 20.7322C16.4067 20.1721 16.0288 19.7133 15.5126 19.4466C14.991 19.1799 14.3949 19.1372 13.8467 19.3293C12.8354 19.676 12.2233 20.7589 12.4575 21.8044C12.6012 22.4659 13.0323 23.0046 13.6444 23.2874C14.0436 23.4741 14.2831 23.8848 14.2512 24.3222C14.2245 24.7276 13.9691 25.069 13.6018 25.2237C13.5699 25.2397 13.538 25.2504 13.5007 25.2664L10.3126 26.2266V26.2159ZM20.7605 22.3645L20.9574 23.0153L21.5961 22.8179C21.5109 22.8446 21.4258 22.8499 21.3406 22.8446C21.0798 22.8179 20.8403 22.6366 20.7605 22.3698V22.3645ZM18.5996 10.4742L19.4246 13.2374C19.9142 12.5493 20.6434 12.0692 21.4843 11.8825C23.2141 11.5038 24.9439 12.48 25.5187 14.1549C25.8328 15.0618 25.7582 16.0326 25.3218 16.8755C24.8854 17.729 24.1402 18.3531 23.2301 18.6251C22.5009 18.8492 21.7239 18.8225 21.0213 18.5558L21.8569 21.335L25.2526 20.3108C25.3005 20.3001 25.3431 20.2894 25.391 20.2841C25.7689 20.2148 26.1574 20.3588 26.3969 20.6789C26.6684 21.0309 26.6897 21.5004 26.4608 21.8791C26.1361 22.3965 26.0563 23.0313 26.2319 23.6128C26.3969 24.1729 26.7748 24.6316 27.2964 24.8983C27.818 25.1704 28.4088 25.2131 28.9623 25.0157C29.9683 24.6743 30.5804 23.5861 30.3515 22.5405C30.2025 21.8791 29.7767 21.3403 29.1646 21.0576C28.7654 20.8709 28.5259 20.4655 28.5579 20.0227C28.5791 19.6173 28.8346 19.2759 29.2019 19.1212C29.2338 19.1052 29.2657 19.0946 29.3083 19.0786L32.5124 18.113C31.5544 15.3338 29.6223 13.0401 27.0143 11.6105C24.4063 10.1809 21.4418 9.78077 18.5943 10.4689L18.5996 10.4742ZM18.5623 29.7526C18.9083 30.7608 19.9887 31.3742 21.0319 31.1449C21.6919 30.9955 22.2295 30.5634 22.5116 29.9553C22.6978 29.5552 23.1077 29.3152 23.5441 29.3419C23.9486 29.3632 24.2946 29.6246 24.4383 29.998C24.4542 30.03 24.4649 30.062 24.4809 30.0993L25.5028 33.5026L30.6017 31.9664C30.6389 30.1847 31.2829 28.6537 32.06 26.9894C33.1564 24.6263 33.4492 21.9538 32.885 19.4199L30.3302 20.1881C31.0115 20.6789 31.4905 21.4043 31.6768 22.2525C32.06 23.9808 31.086 25.7198 29.4094 26.2959C28.9304 26.4613 28.4301 26.5147 27.9404 26.4666C27.5147 26.424 27.0942 26.3013 26.695 26.0986C25.8434 25.6612 25.226 24.9143 24.9492 24.0022C24.731 23.2714 24.7576 22.4925 25.0184 21.7884L22.2508 22.6259L23.2727 26.0292C23.2833 26.0719 23.294 26.1146 23.2993 26.1626C23.3685 26.5467 23.2194 26.9361 22.9054 27.1761C22.5488 27.4428 22.0804 27.4695 21.7079 27.2348C21.1916 26.9147 20.5529 26.8294 19.9728 27.0054C19.4139 27.1761 18.9562 27.5548 18.6901 28.0776C18.4239 28.6004 18.3814 29.1925 18.573 29.7473L18.5623 29.7526ZM6.97007 2.55806C7.04991 2.65408 7.51296 3.08616 8.34858 3.84364C9.05646 4.48376 9.82822 5.32126 10.6638 6.34546C10.9885 6.7402 11.2227 6.9909 11.3877 7.09758C11.6911 7.34297 12.367 7.44967 12.6917 7.17761C13.1813 6.7722 13.1601 6.22809 11.9732 4.78248C11.1003 3.71561 10.1901 2.70209 9.26404 1.77391C8.78502 1.28315 8.43907 0.989753 8.22085 0.851059C7.18297 0.258946 5.86301 1.20312 6.98072 2.56338L6.97007 2.55806ZM20.8776 1.25648C20.8829 1.34716 20.9947 1.76857 21.2129 2.52072C21.3992 3.1555 21.5163 3.92898 21.5748 4.83048C21.6014 5.17722 21.6334 5.41193 21.7079 5.53462C21.809 5.79067 22.2774 6.1054 22.7085 6.0734C23.3419 6.03606 23.6506 5.71066 23.5601 4.43575C23.4962 3.4969 23.3685 2.56872 23.1875 1.68322C23.097 1.22446 22.9906 0.920415 22.9001 0.760385C22.4158 0.0295779 20.8031 0.0615801 20.8829 1.25648H20.8776ZM1.1633 12.0212C1.23782 12.0745 1.62636 12.2666 2.33424 12.592C2.93568 12.8587 3.59565 13.2801 4.31418 13.8189C4.59094 14.0269 4.78788 14.1496 4.93691 14.1816C5.19239 14.267 5.74059 14.1123 5.99607 13.7709C6.37396 13.2641 6.33138 12.8214 5.30948 12.0532C4.54837 11.4931 3.77129 10.981 2.98357 10.5489C2.57374 10.3195 2.27569 10.2022 2.09473 10.1648C1.22717 10.0528 0.199941 11.3011 1.1633 12.0212ZM35.0246 5.64666C34.9714 5.72134 34.6573 6.02006 34.0825 6.54282C33.5929 6.98024 33.0872 7.57769 32.5656 8.31383C32.3634 8.59655 32.209 8.77259 32.0813 8.84727C31.8631 9.0073 31.2936 9.02863 30.9476 8.77792C30.4367 8.40985 30.3409 7.97775 31.0807 6.93222C31.6342 6.16407 32.225 5.44395 32.8477 4.79316C33.1671 4.45176 33.4172 4.24905 33.5822 4.15837C34.3699 3.78496 35.7325 4.67047 35.0299 5.64666H35.0246Z" fill="url(#paint0_linear_10_95)"/>
<defs>
<linearGradient id="paint0_linear_10_95" x1="0.774764" y1="23.9862" x2="35.2215" y2="23.9862" gradientUnits="userSpaceOnUse">
<stop stop-color="#220600"/>
<stop offset="0.37" stop-color="#AA7D5A"/>
<stop offset="0.47" stop-color="#FAC2A7"/>
<stop offset="0.58" stop-color="#FAC2A7"/>
<stop offset="0.7" stop-color="#B17B60"/>
<stop offset="0.79" stop-color="#75492E"/>
<stop offset="1" stop-color="#3C1401"/>
</linearGradient>
</defs>
</svg>
