<svg width="46" height="45" viewBox="0 0 46 45" fill="none" xmlns="http://www.w3.org/2000/svg">
<path d="M10.1446 43.2516L11.3262 30.7158C11.3687 30.2624 11.6508 29.8677 12.0606 29.6756L24.5737 23.9252C25.6648 23.4238 26.7772 24.576 26.2396 25.6535L19.2246 39.7469C19.1182 39.9549 18.9585 40.131 18.7616 40.259L12.0873 44.4518C11.1931 45.0119 10.0488 44.3024 10.1446 43.2516ZM0.457753 19.631L8.47333 26.3523C8.77671 26.6084 9.18654 26.7044 9.57507 26.6191L24.265 23.2477C25.4412 22.9757 25.6169 21.3647 24.5205 20.8526L12.3906 15.1342C12.1352 15.0115 11.8478 14.9795 11.571 15.0435L0.995318 17.4173C-0.0319107 17.6467 -0.351256 18.9589 0.457753 19.6417V19.631ZM44.5541 13.2725L31.429 12.371C30.8169 12.3283 30.258 12.7337 30.109 13.3312L28.2834 20.5592C28.1344 21.1567 28.4271 21.7755 28.986 22.0315L35.6816 25.0988C36.1925 25.3335 36.794 25.2055 37.1665 24.784L45.427 15.3902C46.1242 14.5954 45.6132 13.3472 44.5594 13.2778L44.5541 13.2725ZM20.4169 0.875448L16.1163 11.5815C15.9088 12.0989 16.0578 12.6857 16.4889 13.0431L25.5317 20.5112C26.3993 21.226 27.6979 20.5486 27.6075 19.423L26.6654 7.69275C26.6494 7.50072 26.5909 7.31402 26.4898 7.14332L22.6842 0.699414C22.1467 -0.207427 20.8054 -0.10607 20.4115 0.870117L20.4169 0.875448ZM27.4371 24.768L24.7067 36.2742C24.563 36.877 24.8717 37.4958 25.4412 37.7412L37.5338 42.9849C38.5025 43.4063 39.5297 42.5314 39.2742 41.5019L36.2724 29.5156C36.2032 29.2329 36.0329 28.9768 35.7987 28.8061L29.4384 24.0479C28.7039 23.4985 27.65 23.8825 27.4425 24.7734L27.4371 24.768Z" fill="url(#paint0_linear_10_90)"/>
<defs>
<linearGradient id="paint0_linear_10_90" x1="0.687585" y1="24.8939" x2="46.324" y2="19.7221" gradientUnits="userSpaceOnUse">
<stop stop-color="#220600"/>
<stop offset="0.37" stop-color="#AA7D5A"/>
<stop offset="0.47" stop-color="#FAC2A7"/>
<stop offset="0.58" stop-color="#FAC2A7"/>
<stop offset="0.7" stop-color="#B17B60"/>
<stop offset="0.79" stop-color="#75492E"/>
<stop offset="1" stop-color="#3C1401"/>
</linearGradient>
</defs>
</svg>
