<svg width="36" height="48" viewBox="0 0 36 48" fill="none" xmlns="http://www.w3.org/2000/svg">
<path d="M21.959 45.596C21.9857 45.612 22.0124 45.6227 22.0444 45.6333C22.0604 45.6387 22.0764 45.6493 22.0925 45.6493C22.1245 45.66 22.1565 45.6654 22.1992 45.6707C22.2633 45.676 22.322 45.6707 22.3861 45.66C22.4075 45.66 22.4342 45.6547 22.4555 45.644C22.8987 45.5693 23.3418 45.484 23.785 45.3933C26.6094 44.8118 29.3859 43.9744 32.0715 42.9022C32.4879 42.7368 32.9044 42.5661 33.3209 42.3847C33.3422 42.3741 33.3689 42.3687 33.3903 42.358C33.4063 42.3474 33.4276 42.3367 33.4437 42.3314C33.481 42.31 33.5077 42.294 33.5398 42.262C33.5665 42.246 33.5878 42.2247 33.6092 42.2034C33.6786 42.1287 33.7267 42.0433 33.7587 41.9526C33.764 41.9366 33.7747 41.9153 33.7747 41.8993C33.417 44.7158 30.411 47.0896 28.9427 47.5324C28.4088 47.6977 27.5652 47.7511 26.6148 47.6604C24.9596 47.495 22.9895 46.8709 21.8095 45.5053C21.8522 45.5426 21.9002 45.5747 21.9536 45.6067L21.959 45.596ZM32.4506 41.6806C32.4025 42.0967 32.2637 42.5127 32.0768 42.9075C32.4933 42.7421 32.9098 42.5714 33.3262 42.39C33.3476 42.3794 33.3742 42.3741 33.3956 42.3634C33.4116 42.3527 33.433 42.342 33.449 42.3367C33.4864 42.3154 33.5184 42.294 33.5451 42.2674C33.5718 42.2514 33.5932 42.23 33.6145 42.2087C33.6839 42.134 33.732 42.0486 33.764 41.958C33.7694 41.942 33.78 41.9206 33.78 41.9046C33.78 41.8833 33.7907 41.862 33.7907 41.8353V41.7766C33.7907 41.7286 33.7907 41.6859 33.7907 41.6379C33.7854 41.5899 33.7694 41.5472 33.748 41.4992C33.748 41.4939 33.748 41.4832 33.748 41.4779C33.7373 41.4619 33.7266 41.4405 33.7213 41.4245C33.7 41.3872 33.6786 41.3552 33.6519 41.3285C33.6359 41.3018 33.6145 41.2805 33.5932 41.2592C33.5184 41.1898 33.433 41.1418 33.3422 41.1098C33.3049 41.0938 33.2621 41.0831 33.2194 41.0831H33.1874C33.0753 41.0671 32.9631 41.0831 32.8724 41.1311C32.851 41.1418 32.8297 41.1471 32.8083 41.1578C32.6214 41.2592 32.4933 41.4512 32.4666 41.6752V41.6859L32.4506 41.6806ZM21.6226 44.8065C21.5959 44.8972 21.5906 44.9772 21.5959 45.0626C21.5959 45.0946 21.6066 45.1319 21.6119 45.1639C21.6226 45.2226 21.644 45.2759 21.676 45.3293C21.708 45.388 21.7561 45.4466 21.8148 45.4946C21.8575 45.532 21.9056 45.564 21.959 45.596C21.9857 45.612 22.0124 45.6227 22.0444 45.6333C22.0604 45.6387 22.0764 45.6493 22.0925 45.6493C22.1245 45.66 22.1565 45.6654 22.1992 45.6707C22.2633 45.676 22.322 45.6707 22.3861 45.66C22.4075 45.66 22.4342 45.6547 22.4555 45.644C22.8987 45.5693 23.3418 45.484 23.785 45.3933C23.4006 45.1692 23.0589 44.8919 22.7812 44.5611C22.6371 44.3798 22.4128 44.3051 22.1992 44.3211C22.1832 44.3211 22.1672 44.3211 22.1459 44.3264C22.1352 44.3264 22.1298 44.3264 22.1191 44.3371C22.0925 44.3371 22.0658 44.3478 22.0444 44.3584C22.0391 44.3584 22.0337 44.3584 22.0284 44.3584C21.9964 44.3744 21.9697 44.3851 21.9376 44.4011C21.8202 44.4651 21.7294 44.5611 21.6653 44.6785C21.644 44.7158 21.6279 44.7532 21.6226 44.7905V44.8065ZM20.2985 41.0458C20.3572 41.0511 20.4159 41.0458 20.48 41.0405C24.5965 40.3417 28.617 39.1361 32.4346 37.4504C32.7763 37.3011 32.9311 36.901 32.7816 36.5596C32.6321 36.2182 32.2317 36.0635 31.89 36.2129C28.1738 37.8505 24.2602 39.0294 20.2558 39.7069C19.8874 39.7709 19.6417 40.1176 19.7005 40.4857C19.7539 40.7898 20.0048 41.0138 20.2985 41.0458ZM21.1421 43.3716C21.2008 43.3769 21.2595 43.3716 21.3236 43.3662C25.3494 42.6888 29.2844 41.5045 33.0165 39.8562C33.3582 39.7069 33.5131 39.3068 33.3636 38.9654C33.2141 38.624 32.8136 38.4693 32.4719 38.6187C28.8413 40.2243 25.013 41.3712 21.0994 42.0327C20.7309 42.0967 20.4854 42.4434 20.5441 42.8115C20.5975 43.1155 20.8484 43.3396 21.1421 43.3716ZM21.6226 44.8065C21.5959 44.8972 21.5906 44.9772 21.5959 45.0626C21.5959 45.0786 21.5959 45.0999 21.6012 45.1213C21.6066 45.1426 21.6119 45.1479 21.6119 45.1693C21.6226 45.2279 21.644 45.2813 21.676 45.3346C21.708 45.3933 21.7561 45.452 21.8148 45.5C21.8575 45.5373 21.9056 45.5693 21.959 45.6013C21.9857 45.6173 22.0124 45.628 22.0444 45.6387C22.0604 45.644 22.0764 45.6547 22.0925 45.6547C22.1245 45.6654 22.1565 45.6707 22.1992 45.676C22.2633 45.6813 22.322 45.676 22.3861 45.6653C22.4075 45.6653 22.4342 45.66 22.4555 45.6493C22.8987 45.5747 23.3418 45.4893 23.785 45.3986C26.6094 44.8172 29.3859 43.9797 32.0715 42.9075C32.4879 42.7421 32.9044 42.5714 33.3209 42.39C33.3422 42.3794 33.3689 42.3741 33.3903 42.3634C33.4063 42.3527 33.4276 42.342 33.4437 42.3367C33.481 42.3154 33.5131 42.294 33.5398 42.2674C33.5665 42.2514 33.5878 42.23 33.6092 42.2087C33.6786 42.134 33.7267 42.0486 33.7587 41.958C33.764 41.942 33.7747 41.9206 33.7747 41.9046C33.7747 41.8833 33.7854 41.862 33.7854 41.8353V41.8139C33.7907 41.7553 33.7907 41.7019 33.7854 41.6432C33.78 41.5952 33.764 41.5526 33.7427 41.5045C33.7427 41.4992 33.7427 41.4886 33.7427 41.4832C33.732 41.4672 33.7213 41.4459 33.716 41.4299C33.6946 41.3925 33.6732 41.3605 33.6466 41.3339C33.6305 41.3072 33.6092 41.2858 33.5878 41.2645C33.5131 41.1952 33.4277 41.1472 33.3369 41.1151C33.2995 41.0991 33.2568 41.0885 33.2141 41.0885H33.182C33.0806 41.0778 32.9685 41.0885 32.867 41.1365C32.8457 41.1472 32.8243 41.1525 32.803 41.1632C32.6962 41.2112 32.5894 41.2538 32.4826 41.2965C29.3004 42.6408 25.9687 43.6436 22.573 44.2677C22.4502 44.2944 22.3381 44.3158 22.2153 44.3424C22.1992 44.3424 22.1832 44.3424 22.1619 44.3478C22.1512 44.3478 22.1458 44.3478 22.1352 44.3584C22.1085 44.3584 22.0818 44.3691 22.0604 44.3798C22.0551 44.3798 22.0497 44.3798 22.0444 44.3798C22.0124 44.3958 21.9857 44.4064 21.9536 44.4224C21.8362 44.4864 21.7454 44.5825 21.6813 44.6998C21.66 44.7372 21.644 44.7745 21.6386 44.8118L21.6226 44.8065ZM19.4923 38.7307C19.551 38.736 19.6151 38.7307 19.6738 38.7253C23.8491 38.0052 27.9389 36.7783 31.8205 35.082C32.1623 34.9326 32.3171 34.5325 32.1676 34.1911C32.0181 33.8497 31.6176 33.6951 31.2759 33.8444C27.4904 35.4981 23.5074 36.693 19.4389 37.3971C19.0705 37.4611 18.8248 37.8078 18.8889 38.1759C18.9423 38.48 19.1933 38.704 19.4869 38.7307H19.4923ZM20.6722 22.3649L20.8698 23.0157L21.5105 22.8183C21.4251 22.845 21.3396 22.8503 21.2542 22.845C20.9926 22.8183 20.7523 22.6369 20.6722 22.3702V22.3649ZM9.78552 24.9307L12.375 24.1572C11.6863 23.6718 11.2058 22.941 11.0189 22.0928C10.6398 20.3645 11.6169 18.6255 13.2934 18.0494C14.2011 17.74 15.1728 17.8093 16.0271 18.2468C16.876 18.6895 17.5007 19.431 17.773 20.3432C17.9973 21.074 17.9652 21.8474 17.709 22.5516L20.4853 21.7194L19.4602 18.3161C19.4495 18.2734 19.4389 18.2308 19.4335 18.1881C19.3641 17.804 19.5136 17.4199 19.8286 17.1746C20.181 16.9025 20.6509 16.8758 21.0299 17.1105C21.5478 17.4306 22.1832 17.5106 22.7652 17.3399C23.3258 17.1692 23.785 16.7905 24.0519 16.2677C24.3242 15.7503 24.367 15.1528 24.1694 14.5981C23.8277 13.5899 22.7385 12.9764 21.692 13.2111C21.03 13.3552 20.496 13.7926 20.2077 14.4007C20.0208 14.8008 19.6151 15.0408 19.1719 15.0088C18.7608 14.9715 18.4244 14.7261 18.2696 14.3634C18.2535 14.326 18.2429 14.294 18.2322 14.2513V14.2353L17.2177 10.864C11.446 12.9551 8.26384 19.0202 9.79086 24.936L9.78552 24.9307ZM10.1913 26.2163C11.1203 28.6434 12.8289 30.7078 15.0554 32.0734C16.6197 33.0336 18.0079 33.9618 19.0224 35.4287L24.1374 33.8978L23.2991 31.1132C22.8079 31.796 22.0818 32.2761 21.2382 32.4628C20.8644 32.5428 20.5014 32.5642 20.1436 32.5322C18.8195 32.4041 17.6395 31.5133 17.191 30.1904C16.876 29.2889 16.9454 28.318 17.3886 27.4699C17.8264 26.6164 18.5739 25.9976 19.4816 25.7202C20.213 25.5015 20.9979 25.5282 21.7027 25.7895L20.8644 23.0157L17.4527 24.0399C17.41 24.0505 17.3726 24.0612 17.3245 24.0665C16.9401 24.1359 16.5503 23.9865 16.3101 23.6665C16.0378 23.3144 16.0164 22.845 16.246 22.4716C16.5663 21.9488 16.6518 21.314 16.4756 20.7326C16.3047 20.1725 15.9256 19.7137 15.4077 19.447C14.8845 19.1803 14.2865 19.1376 13.7366 19.3296C12.7221 19.6764 12.1081 20.7592 12.343 21.8048C12.4872 22.4662 12.9197 23.005 13.5337 23.2877C13.9341 23.4744 14.1744 23.8852 14.1423 24.3226C14.1156 24.728 13.8594 25.0694 13.4909 25.2241C13.4589 25.2401 13.4269 25.2508 13.3895 25.2668L10.1913 26.227V26.2163ZM20.6722 22.3649L20.8698 23.0157L21.5105 22.8183C21.4251 22.845 21.3396 22.8503 21.2542 22.845C20.9926 22.8183 20.7523 22.6369 20.6722 22.3702V22.3649ZM18.5098 10.4746L19.3374 13.2378C19.8286 12.5497 20.5601 12.0696 21.4037 11.8829C23.1389 11.5041 24.8742 12.4803 25.4508 14.1553C25.7659 15.0622 25.6911 16.033 25.2533 16.8758C24.8155 17.7293 24.068 18.3534 23.155 18.6255C22.4235 18.8495 21.644 18.8229 20.9392 18.5562L21.7774 21.3353L25.1839 20.3112C25.2319 20.3005 25.2746 20.2898 25.3227 20.2845C25.7018 20.2151 26.0915 20.3592 26.3318 20.6792C26.6041 21.0313 26.6255 21.5007 26.3959 21.8795C26.0702 22.3969 25.9901 23.0317 26.1663 23.6131C26.3318 24.1732 26.7109 24.632 27.2341 24.8987C27.7574 25.1708 28.35 25.2134 28.9053 25.0161C29.9144 24.6747 30.5284 23.5864 30.2989 22.5409C30.1494 21.8795 29.7222 21.3407 29.1082 21.058C28.7078 20.8713 28.4675 20.4659 28.4995 20.0231C28.5209 19.6177 28.7772 19.2763 29.1456 19.1216C29.1776 19.1056 29.2097 19.0949 29.2524 19.0789L32.4666 18.1134C31.5055 15.3342 29.5674 13.0404 26.9512 11.6108C24.3349 10.1812 21.361 9.78114 18.5045 10.4693L18.5098 10.4746ZM18.4671 29.753C18.8142 30.7612 19.898 31.3746 20.9445 31.1452C21.6066 30.9959 22.1459 30.5638 22.4288 29.9557C22.6157 29.5556 23.0268 29.3155 23.4646 29.3422C23.8704 29.3636 24.2175 29.6249 24.3616 29.9984C24.3777 30.0304 24.3883 30.0624 24.4043 30.0997L25.4295 33.503L30.5445 31.9667C30.5818 30.1851 31.2279 28.6541 32.0074 26.9898C33.1073 24.6266 33.401 21.9541 32.835 19.4203L30.2722 20.1885C30.9556 20.6792 31.4361 21.4047 31.623 22.2529C32.0074 23.9812 31.0303 25.7202 29.3485 26.2963C28.8679 26.4617 28.3661 26.515 27.8748 26.467C27.4477 26.4243 27.0259 26.3016 26.6255 26.0989C25.7712 25.6615 25.1518 24.9147 24.8742 24.0025C24.6553 23.2717 24.682 22.4929 24.9436 21.7888L22.1672 22.6263L23.1923 26.0296C23.203 26.0723 23.2137 26.1149 23.219 26.1629C23.2884 26.547 23.1389 26.9364 22.8239 27.1765C22.4662 27.4432 21.9964 27.4699 21.6226 27.2351C21.1047 26.9151 20.464 26.8297 19.882 27.0058C19.3214 27.1765 18.8622 27.5552 18.5953 28.078C18.3283 28.6007 18.2856 29.1929 18.4778 29.7476L18.4671 29.753ZM6.84361 2.55843C6.9237 2.65444 7.38821 3.08653 8.22647 3.84401C8.93659 4.48413 9.71078 5.32163 10.549 6.34582C10.8747 6.74056 11.1097 6.99126 11.2752 7.09795C11.5795 7.34333 12.2576 7.45003 12.5833 7.17798C13.0745 6.77257 13.0531 6.22845 11.8625 4.78284C10.9869 3.71597 10.0738 2.70245 9.14482 1.77427C8.66429 1.28351 8.31724 0.990119 8.09833 0.851426C7.05718 0.259312 5.73304 1.20349 6.85428 2.56375L6.84361 2.55843ZM20.7897 1.25684C20.795 1.34753 20.9072 1.76894 21.1261 2.52108C21.3129 3.15587 21.4304 3.92934 21.4891 4.83085C21.5158 5.17758 21.5479 5.4123 21.6226 5.53499C21.7241 5.79104 22.1939 6.10577 22.6264 6.07376C23.2618 6.03642 23.5714 5.71102 23.4807 4.43611C23.4166 3.49727 23.2884 2.56909 23.1069 1.68358C23.0161 1.22483 22.9094 0.920781 22.8186 0.760751C22.3327 0.0299441 20.7149 0.0619463 20.795 1.25684H20.7897ZM1.01316 12.0216C1.08791 12.0749 1.47768 12.267 2.1878 12.5923C2.79113 12.8591 3.4532 13.2805 4.17399 13.8192C4.45163 14.0273 4.64918 14.15 4.79867 14.182C5.05496 14.2673 5.60491 14.1126 5.86119 13.7712C6.24028 13.2645 6.19756 12.8217 5.17243 12.0536C4.40892 11.4935 3.62939 10.9814 2.83919 10.5493C2.42806 10.3199 2.12906 10.2025 1.94753 10.1652C1.07723 10.0532 0.0467589 11.3014 1.01316 12.0216ZM34.9814 5.64702C34.928 5.7217 34.613 6.02042 34.0363 6.54319C33.5451 6.98061 33.0379 7.57806 32.5146 8.3142C32.3117 8.59692 32.1569 8.77295 32.0288 8.84764C31.8099 9.00767 31.2386 9.029 30.8915 8.77829C30.3789 8.41022 30.2828 7.97812 31.025 6.93259C31.5803 6.16444 32.1729 5.44431 32.7976 4.79352C33.118 4.45212 33.3689 4.24942 33.5344 4.15873C34.3246 3.78533 35.6915 4.67084 34.9867 5.64702H34.9814Z" fill="url(#paint0_linear_10_114)"/>
<defs>
<linearGradient id="paint0_linear_10_114" x1="0.623396" y1="23.9865" x2="35.1789" y2="23.9865" gradientUnits="userSpaceOnUse">
<stop stop-color="#F7D864"/>
<stop offset="0.11" stop-color="#DAAF39"/>
<stop offset="0.21" stop-color="#C69119"/>
<stop offset="0.29" stop-color="#B97F06"/>
<stop offset="0.34" stop-color="#B57900"/>
<stop offset="0.38" stop-color="#C18B13"/>
<stop offset="0.46" stop-color="#D5A731"/>
<stop offset="0.54" stop-color="#E5BE49"/>
<stop offset="0.63" stop-color="#F0CE59"/>
<stop offset="0.72" stop-color="#F6D763"/>
<stop offset="0.84" stop-color="#F9DB67"/>
<stop offset="0.87" stop-color="#F6D662"/>
<stop offset="0.9" stop-color="#EDCA56"/>
<stop offset="0.94" stop-color="#DFB641"/>
<stop offset="0.97" stop-color="#CC9B23"/>
<stop offset="1" stop-color="#B57900"/>
</linearGradient>
</defs>
</svg>
