<svg width="41" height="47" viewBox="0 0 41 47" fill="none" xmlns="http://www.w3.org/2000/svg">
<path d="M25.272 20.5745C24.4204 14.536 25.4849 8.23613 28.2845 2.81109C28.7795 1.85624 29.3703 0.880051 30.3176 0.367953C31.6589 -0.352185 33.3461 0.069229 34.6607 0.832042C37.8861 2.7044 39.749 6.3531 40.4037 10.0285C41.0583 13.7038 40.6804 17.4699 40.4249 21.1933C39.898 28.8107 39.8714 36.4655 40.3611 44.083C40.4037 44.7871 40.377 45.6406 39.7703 45.9927C39.3817 46.2167 38.8974 46.1421 38.461 46.0567C27.3477 43.907 16.7029 39.3834 7.44717 32.8755C5.5311 31.5313 3.63631 30.059 2.36425 28.0906C1.09219 26.1276 0.522691 23.5617 1.43283 21.4013C2.74747 18.2701 6.54768 17.0325 9.93275 16.8191C14.8613 16.5097 19.8697 17.6193 24.2022 19.9824" fill="url(#paint0_linear_10_89)"/>
<defs>
<linearGradient id="paint0_linear_10_89" x1="7.58023" y1="7.51066" x2="79.8195" y2="57.3636" gradientUnits="userSpaceOnUse">
<stop stop-color="#220600"/>
<stop offset="0.37" stop-color="#AA7D5A"/>
<stop offset="0.47" stop-color="#FAC2A7"/>
<stop offset="0.58" stop-color="#FAC2A7"/>
<stop offset="0.7" stop-color="#B17B60"/>
<stop offset="0.79" stop-color="#75492E"/>
<stop offset="1" stop-color="#3C1401"/>
</linearGradient>
</defs>
</svg>
