<svg width="59" height="47" viewBox="0 0 59 47" fill="none" xmlns="http://www.w3.org/2000/svg">
<path fill-rule="evenodd" clip-rule="evenodd" d="M23.8401 0.978865C25.4528 1.3256 26.2406 3.99278 25.6072 6.932C24.9738 9.87123 23.1535 11.9676 21.5462 11.6209C19.9335 11.2742 19.1458 8.60699 19.7791 5.66776C20.4125 2.72853 22.2328 0.632132 23.8401 0.978865ZM41.335 4.76626C42.9477 5.11299 43.7354 7.78017 43.102 10.7194C42.4686 13.6586 40.6484 15.755 39.041 15.4083C37.4283 15.0616 36.6406 12.3944 37.274 9.45516C37.9073 6.51592 39.7276 4.41952 41.335 4.76626ZM39.3923 15.531C39.2699 15.531 39.1474 15.5203 39.025 15.4936C37.3698 15.1362 36.5501 12.4211 37.1888 9.43915C37.4975 8.00421 38.0989 6.72397 38.8707 5.82779C39.6584 4.91562 40.5419 4.51554 41.3509 4.69158C42.1599 4.86761 42.7986 5.59842 43.1393 6.75597C43.4799 7.89219 43.4959 9.31113 43.1819 10.7461C42.5857 13.5039 40.9411 15.5363 39.387 15.5363L39.3923 15.531ZM40.9784 4.81427C40.329 4.81427 39.6371 5.20367 39.0037 5.93448C38.248 6.80932 37.6625 8.06822 37.3591 9.47116C36.7364 12.357 37.5028 14.9815 39.0623 15.3229C40.6164 15.6643 42.3994 13.5893 43.0222 10.6981C43.3255 9.28979 43.3096 7.90286 42.9796 6.79331C42.6549 5.69977 42.0641 5.01164 41.319 4.84627C41.2072 4.8196 41.0955 4.80893 40.9784 4.80893V4.81427ZM21.9028 11.7383C21.775 11.7383 21.6526 11.7223 21.5249 11.6956C20.7159 11.5195 20.0772 10.7887 19.7366 9.63119C19.3959 8.49497 19.3799 7.07603 19.694 5.64109C20.338 2.66452 22.2008 0.536113 23.8561 0.888181C25.5114 1.24558 26.331 3.96077 25.6924 6.94267C25.3836 8.37762 24.7875 9.65786 24.0105 10.554C23.3452 11.3275 22.6107 11.7329 21.9081 11.7329L21.9028 11.7383ZM23.4835 1.02687C22.0092 1.02687 20.4391 3.00592 19.859 5.68377C19.5556 7.09204 19.5716 8.47897 19.9015 9.58851C20.2262 10.6821 20.817 11.3702 21.5621 11.5356C22.3073 11.7009 23.1323 11.3115 23.8774 10.4527C24.6332 9.57784 25.2187 8.31894 25.522 6.916C26.1448 4.03012 25.3783 1.40561 23.8189 1.06421C23.7071 1.03754 23.5953 1.02687 23.4782 1.02687H23.4835ZM48.2009 37.9566C50.9792 35.0761 52.89 32.0195 54.0609 29.8164C54.4228 30.1311 54.7847 30.4405 55.1147 30.7019C56.1526 31.5234 57.6642 31.3473 58.4838 30.3071C59.3035 29.2669 59.1278 27.752 58.09 26.9305C56.9723 26.045 55.285 24.4287 54.987 24.146C53.6564 22.7217 51.6605 21.0574 51.5753 20.988C50.5534 20.1399 49.0418 20.2839 48.2009 21.3028C47.3546 22.327 47.4983 23.8419 48.5149 24.6847C48.5309 24.6954 49.4836 25.4902 50.431 26.3811C48.3073 30.8993 40.4568 44.4539 23.904 40.8692C4.55699 36.6817 5.73856 16.9019 5.79711 16.0591C5.89291 14.7362 4.90295 13.5839 3.58831 13.4879C2.26302 13.3919 1.11338 14.3788 1.01757 15.7017C0.996282 15.9471 -0.573839 40.4851 22.8927 45.5687C25.1548 46.0595 27.2838 46.2782 29.2797 46.2782C38.1042 46.2782 44.3155 41.9894 48.2009 37.9566Z" fill="url(#paint0_linear_10_93)"/>
<defs>
<linearGradient id="paint0_linear_10_93" x1="0.99096" y1="23.5699" x2="59.0001" y2="23.5699" gradientUnits="userSpaceOnUse">
<stop stop-color="#220600"/>
<stop offset="0.37" stop-color="#AA7D5A"/>
<stop offset="0.47" stop-color="#FAC2A7"/>
<stop offset="0.58" stop-color="#FAC2A7"/>
<stop offset="0.7" stop-color="#B17B60"/>
<stop offset="0.79" stop-color="#75492E"/>
<stop offset="1" stop-color="#3C1401"/>
</linearGradient>
</defs>
</svg>
