<svg width="44" height="42" viewBox="0 0 44 42" fill="none" xmlns="http://www.w3.org/2000/svg">
<path d="M43.4971 16.0933C43.2996 15.7092 42.8297 15.4105 42.8938 14.9784C42.9418 14.6423 43.3049 14.4076 43.3957 14.0769C43.5078 13.6768 43.1821 13.2927 42.803 13.122C42.4239 12.9513 41.9861 12.9193 41.5857 12.786C41.1852 12.6526 40.8008 12.3592 40.7848 11.9485C40.7688 11.463 41.2867 11.047 41.276 10.5616C41.2653 10.0014 40.6086 9.7134 40.0587 9.53736C39.5087 9.36133 38.8627 9.03059 38.9107 8.46515C38.9321 8.21444 39.0923 7.99574 39.2044 7.77169C39.3165 7.54232 39.3699 7.24892 39.2044 7.06755C39.119 6.97687 38.9908 6.92886 38.868 6.89685C38.3501 6.76349 37.7948 6.80082 37.2662 6.72081C36.7323 6.64079 36.1824 6.39541 35.9955 5.91531C35.8246 5.4779 35.9688 4.87514 35.5737 4.60308C35.3601 4.45906 35.0665 4.47504 34.8048 4.51772C33.737 4.70442 32.7706 5.27521 31.9163 5.93133C30.0423 7.36094 28.5686 9.22796 27.4154 11.2283C27.0042 11.9485 26.6465 12.6793 26.3155 13.4208C26.3155 13.4208 26.3101 13.4208 26.3048 13.4154C27.7998 10.1241 28.291 6.45408 27.9119 2.94407C27.8585 2.44798 27.7838 1.94122 27.5275 1.51447C27.2712 1.08772 26.7907 0.757006 26.2674 0.794346C25.8136 0.831687 25.3224 1.1304 24.9326 0.917026C24.6336 0.751661 24.5642 0.351583 24.2919 0.148877C23.9609 -0.096503 23.443 0.0475286 23.1119 0.319581C22.7809 0.591633 22.5566 0.965048 22.2523 1.26377C21.948 1.5625 21.4941 1.79721 21.099 1.66385C20.6238 1.50382 20.4583 0.895702 19.9831 0.730337C19.4385 0.532965 18.8779 1.00772 18.4615 1.4238C18.0503 1.83988 17.447 2.28797 16.9291 2.03726C16.6995 1.93057 16.5607 1.70652 16.3952 1.52515C16.2243 1.34378 15.968 1.1891 15.7224 1.26911C15.5943 1.31179 15.4982 1.40781 15.4128 1.50382C15.0604 1.90924 14.8468 2.41064 14.5371 2.84806C14.2274 3.28548 13.7469 3.68024 13.2077 3.66957C12.7111 3.6589 12.1985 3.3175 11.7661 3.56288C11.5311 3.69624 11.419 3.9576 11.3443 4.20831C11.0506 5.21117 11.1734 6.26205 11.419 7.25424C11.9583 9.41466 13.0955 11.383 14.5051 13.1167C15.1298 13.8848 15.8185 14.5943 16.5287 15.2771C16.4059 15.3891 16.2831 15.4958 16.1656 15.6132C14.0833 13.3514 11.387 11.6017 8.43972 10.4495C7.95919 10.2628 7.46264 10.0868 6.93405 10.1028C6.41081 10.1188 5.85019 10.3588 5.60458 10.8123C5.39101 11.207 5.39635 11.7511 4.99591 11.9751C4.68624 12.1458 4.28579 12.0125 3.95476 12.1512C3.55432 12.3112 3.41016 12.8073 3.47423 13.2074C3.5383 13.6075 3.75721 13.9649 3.86933 14.3596C3.98146 14.7544 3.94408 15.2345 3.60771 15.5012C3.20193 15.8159 2.56656 15.6772 2.16078 15.9866C1.69093 16.344 1.81373 17.0321 1.96857 17.5656C2.1234 18.099 2.20349 18.8085 1.69627 19.1232C1.47202 19.2619 1.19972 19.2726 0.943433 19.3312C0.68715 19.3846 0.40951 19.5286 0.350778 19.7687C0.318743 19.8913 0.350778 20.0194 0.393492 20.1367C0.569687 20.6168 0.906059 21.0222 1.13565 21.4863C1.36523 21.9504 1.46134 22.5265 1.157 22.9693C0.879362 23.3747 0.292047 23.6414 0.281368 24.1161C0.276029 24.3722 0.452224 24.5856 0.639097 24.7616C1.38659 25.4711 2.40638 25.8605 3.43686 26.1165C5.68467 26.6713 8.08199 26.65 10.4099 26.2872C12.0277 26.0365 13.5867 25.5991 15.1458 25.135C11.9903 26.89 9.32069 29.4878 7.36119 32.4484C7.07287 32.8805 6.79523 33.3339 6.70981 33.8353C6.62438 34.3314 6.7632 34.8915 7.185 35.1689C7.5534 35.4143 8.11936 35.4677 8.26886 35.8731C8.38632 36.1878 8.17275 36.5505 8.2475 36.8759C8.33827 37.2707 8.8188 37.4627 9.24594 37.4467C9.67308 37.4253 10.0842 37.26 10.5113 37.2013C10.9385 37.1426 11.4297 37.2227 11.6433 37.5747C11.8942 37.9908 11.6219 38.5776 11.8675 38.999C12.1451 39.4844 12.882 39.4417 13.4639 39.3511C14.0513 39.2604 14.7934 39.2657 15.023 39.7725C15.1244 39.9965 15.0817 40.2579 15.0924 40.5086C15.1031 40.754 15.1938 41.0367 15.4341 41.1167C15.5569 41.1594 15.6957 41.1434 15.8239 41.1167C16.3578 41.0047 16.8437 40.7273 17.3616 40.562C17.8848 40.3966 18.5042 40.3646 18.8993 40.7007C19.2677 41.0047 19.4279 41.5861 19.9137 41.6502C20.1754 41.6822 20.437 41.5381 20.6505 41.3834C21.5262 40.754 22.1295 39.8311 22.594 38.8816C23.6031 36.8172 24.041 34.5448 24.121 32.3044C24.1531 31.4402 24.1157 30.5867 24.0463 29.7386C24.8205 32.6351 26.3315 35.3343 28.3284 37.6067C28.6594 37.9855 29.0118 38.3589 29.4816 38.5723C29.9461 38.7856 30.5495 38.807 30.9766 38.4976C31.3504 38.2309 31.6013 37.7294 32.0551 37.7028C32.4075 37.6814 32.6959 37.9695 33.0482 37.9908C33.4754 38.0121 33.8331 37.6281 33.9666 37.2333C34.0947 36.8386 34.0734 36.4172 34.1641 36.0171C34.2549 35.6117 34.5112 35.1849 34.933 35.0889C35.4349 34.9715 35.9261 35.377 36.428 35.2649C37.0046 35.1423 37.2235 34.4595 37.341 33.9047C37.4584 33.3499 37.7201 32.6671 38.3074 32.6031C38.569 32.5711 38.8093 32.6778 39.0602 32.7365C39.3112 32.7951 39.6208 32.7845 39.7864 32.5924C39.8718 32.4911 39.9038 32.3631 39.9198 32.2404C39.9946 31.7229 39.8878 31.2108 39.9038 30.6881C39.9198 30.1706 40.1067 29.5999 40.5819 29.3225C41.0144 29.0718 41.6497 29.0824 41.8847 28.6503C42.0075 28.421 41.9594 28.1489 41.8793 27.9089C41.559 26.9434 40.8489 26.1485 40.0693 25.4711C38.3661 23.9988 36.2625 22.9906 34.052 22.3185C33.2511 22.0731 32.4396 21.8864 31.6173 21.7264C35.248 21.545 38.8627 20.3607 42.0342 18.5151C42.4933 18.2483 42.9525 17.9603 43.2675 17.5442C43.5826 17.1335 43.7267 16.5627 43.4971 16.1199V16.0933Z" fill="url(#paint0_linear_10_111)"/>
<defs>
<linearGradient id="paint0_linear_10_111" x1="0.276029" y1="20.8302" x2="43.6092" y2="20.8302" gradientUnits="userSpaceOnUse">
<stop stop-color="#F7D864"/>
<stop offset="0.11" stop-color="#DAAF39"/>
<stop offset="0.21" stop-color="#C69119"/>
<stop offset="0.29" stop-color="#B97F06"/>
<stop offset="0.34" stop-color="#B57900"/>
<stop offset="0.38" stop-color="#C18B13"/>
<stop offset="0.46" stop-color="#D5A731"/>
<stop offset="0.54" stop-color="#E5BE49"/>
<stop offset="0.63" stop-color="#F0CE59"/>
<stop offset="0.72" stop-color="#F6D763"/>
<stop offset="0.84" stop-color="#F9DB67"/>
<stop offset="0.87" stop-color="#F6D662"/>
<stop offset="0.9" stop-color="#EDCA56"/>
<stop offset="0.94" stop-color="#DFB641"/>
<stop offset="0.97" stop-color="#CC9B23"/>
<stop offset="1" stop-color="#B57900"/>
</linearGradient>
</defs>
</svg>
