<svg width="59" height="47" viewBox="0 0 59 47" fill="none" xmlns="http://www.w3.org/2000/svg">
<path fill-rule="evenodd" clip-rule="evenodd" d="M23.7237 0.979231C25.3415 1.32596 26.1317 3.99314 25.4963 6.93237C24.861 9.8716 23.0349 11.968 21.4225 11.6213C19.8047 11.2745 19.0145 8.60736 19.6499 5.66813C20.2852 2.7289 22.1112 0.632498 23.7237 0.979231ZM41.2791 4.76662C42.8969 5.11336 43.6871 7.78053 43.0517 10.7198C42.4164 13.659 40.5903 15.7554 38.9779 15.4087C37.3601 15.0619 36.5699 12.3948 37.2053 9.45552C37.8406 6.51629 39.6666 4.41989 41.2791 4.76662ZM39.3303 15.5314C39.2075 15.5314 39.0847 15.5207 38.9619 15.494C37.3014 15.1366 36.4791 12.4214 37.1198 9.43952C37.4295 8.00458 38.0328 6.72433 38.807 5.82816C39.5972 4.91599 40.4835 4.51591 41.2951 4.69194C42.1067 4.86798 42.7474 5.59878 43.0891 6.75634C43.4308 7.89256 43.4468 9.31149 43.1318 10.7464C42.5338 13.5043 40.884 15.5367 39.3249 15.5367L39.3303 15.5314ZM40.9214 4.81463C40.27 4.81463 39.5759 5.20404 38.9405 5.93485C38.1823 6.80968 37.595 8.06859 37.2907 9.47152C36.666 12.3574 37.4348 14.9819 38.9992 15.3233C40.5583 15.6647 42.3469 13.5896 42.9716 10.6984C43.276 9.29016 43.2599 7.90322 42.9289 6.79368C42.6032 5.70014 42.0106 5.012 41.2631 4.84664C41.151 4.81997 41.0388 4.8093 40.9214 4.8093V4.81463ZM21.7855 11.7386C21.6574 11.7386 21.5346 11.7226 21.4065 11.6959C20.5949 11.5199 19.9542 10.7891 19.6125 9.63155C19.2708 8.49534 19.2548 7.0764 19.5698 5.64146C20.2158 2.66489 22.0846 0.536479 23.7451 0.888547C25.4056 1.24595 26.2278 3.96114 25.5871 6.94304C25.2774 8.37798 24.6794 9.65823 23.8999 10.5544C23.2325 11.3279 22.4957 11.7333 21.7909 11.7333L21.7855 11.7386ZM23.366 1.02724C21.887 1.02724 20.3119 3.00629 19.73 5.68413C19.4256 7.0924 19.4416 8.47933 19.7727 9.58888C20.0984 10.6824 20.691 11.3706 21.4385 11.5359C22.186 11.7013 23.0136 11.3119 23.7611 10.453C24.5192 9.57821 25.1066 8.3193 25.4109 6.91637C26.0356 4.03048 25.2667 1.40598 23.7023 1.06458C23.5902 1.03791 23.4781 1.02724 23.3606 1.02724H23.366ZM48.1614 37.957C50.9485 35.0764 52.8652 32.0198 54.0399 29.8168C54.4029 30.1315 54.766 30.4409 55.097 30.7023C56.1382 31.5237 57.6545 31.3477 58.4768 30.3075C59.299 29.2673 59.1228 27.7524 58.0817 26.9309C56.9604 26.0454 55.2679 24.4291 54.9689 24.1463C53.6341 22.7221 51.6319 21.0577 51.5464 20.9884C50.5213 20.1402 49.005 20.2843 48.1614 21.3031C47.3124 22.3273 47.4566 23.8423 48.4764 24.6851C48.4924 24.6958 49.4481 25.4906 50.3985 26.3814C48.2682 30.8996 40.3928 44.4542 23.7878 40.8695C4.37965 36.6821 5.56496 16.9023 5.62369 16.0595C5.7198 14.7365 4.72671 13.5843 3.40791 13.4883C2.07845 13.3923 0.92517 14.3791 0.829064 15.7021C0.807707 15.9474 -0.767372 40.4855 22.7733 45.5691C25.0425 46.0599 27.1782 46.2786 29.1804 46.2786C38.0328 46.2786 44.2637 41.9898 48.1614 37.957Z" fill="url(#paint0_linear_10_112)"/>
<defs>
<linearGradient id="paint0_linear_10_112" x1="0.802368" y1="23.5702" x2="59" y2="23.5702" gradientUnits="userSpaceOnUse">
<stop stop-color="#F7D864"/>
<stop offset="0.11" stop-color="#DAAF39"/>
<stop offset="0.21" stop-color="#C69119"/>
<stop offset="0.29" stop-color="#B97F06"/>
<stop offset="0.34" stop-color="#B57900"/>
<stop offset="0.38" stop-color="#C18B13"/>
<stop offset="0.46" stop-color="#D5A731"/>
<stop offset="0.54" stop-color="#E5BE49"/>
<stop offset="0.63" stop-color="#F0CE59"/>
<stop offset="0.72" stop-color="#F6D763"/>
<stop offset="0.84" stop-color="#F9DB67"/>
<stop offset="0.87" stop-color="#F6D662"/>
<stop offset="0.9" stop-color="#EDCA56"/>
<stop offset="0.94" stop-color="#DFB641"/>
<stop offset="0.97" stop-color="#CC9B23"/>
<stop offset="1" stop-color="#B57900"/>
</linearGradient>
</defs>
</svg>
