<svg width="37" height="42" viewBox="0 0 37 42" fill="none" xmlns="http://www.w3.org/2000/svg">
<path d="M14.0661 25.1863C12.5658 24.066 11.3271 22.6845 10.3927 21.0841C9.48505 19.5372 8.89773 17.8462 8.63611 16.0645C8.37983 14.2829 8.46526 12.4958 8.8924 10.7568C9.33555 8.95383 10.1311 7.27883 11.2523 5.77988C12.3736 4.28092 13.7564 3.04335 15.3582 2.10984C16.9066 1.203 18.5991 0.61623 20.3824 0.354846C22.1657 0.0987973 23.9544 0.184137 25.695 0.610885C27.4996 1.05364 29.1761 1.84848 30.6765 2.96869C32.1768 4.08891 33.4155 5.47051 34.3499 7.07081C35.2575 8.61778 35.8448 10.3088 36.1065 12.0904C36.3628 13.8721 36.2773 15.6591 35.8502 17.3981C35.407 19.2011 34.6115 20.8761 33.4902 22.3751C32.369 23.874 30.9861 25.1116 29.3844 26.0451C27.836 26.9519 26.1435 27.5387 24.3602 27.8001C22.5769 28.0562 20.7882 27.9708 19.0476 27.5441C17.243 27.1013 15.5664 26.3065 14.0661 25.1863ZM29.0213 5.18777C26.6454 3.41143 23.7194 2.66996 20.7829 3.09671C17.8463 3.52346 15.2514 5.0651 13.4735 7.43889C11.6955 9.81267 10.9533 12.7359 11.3805 15.6698C11.8076 18.6037 13.3507 21.1962 15.7266 22.9725C18.1026 24.7489 21.0285 25.4903 23.9651 25.0636C26.9016 24.6368 29.4965 23.0952 31.2745 20.7214C33.0524 18.3476 33.7946 15.4244 33.3674 12.4905C32.9403 9.55661 31.3973 6.96411 29.0213 5.18777ZM16.5008 29.5658C16.9173 29.011 16.7998 28.2215 16.2445 27.8108L10.9266 23.842C10.3714 23.4259 9.58115 23.5433 9.17003 24.0981C8.75891 24.6528 8.87104 25.4423 9.42632 25.8531L14.7442 29.8218C15.2995 30.2379 16.0897 30.1206 16.5008 29.5658ZM8.31042 40.0371L13.97 31.2941C14.2103 30.9207 14.1195 30.4299 13.7671 30.1632L9.37827 26.8879C9.02588 26.6212 8.52398 26.6799 8.23567 27.0159L1.44951 34.9161C-0.168282 36.7992 0.146737 39.6584 2.13827 41.1467C4.12981 42.635 6.96494 42.1229 8.31042 40.0371ZM29.7474 10.3674C29.5446 10.4795 29.3951 10.6608 29.331 10.8849C29.2669 11.1036 29.2936 11.3436 29.4004 11.5463C29.4004 11.557 29.8809 12.4638 29.929 13.8508C29.961 14.6883 29.8275 15.5204 29.5392 16.3366C29.363 16.8273 29.1334 17.3128 28.8451 17.7822C28.5248 18.3103 28.1297 18.8277 27.6705 19.3292C27.5157 19.4999 27.4356 19.7239 27.4409 19.9533C27.4516 20.1826 27.553 20.4014 27.7185 20.556C27.8894 20.7107 28.1136 20.7908 28.3432 20.7854C28.5728 20.7748 28.7917 20.6734 28.9466 20.5081C29.4805 19.9266 29.945 19.3131 30.3241 18.6944C30.6711 18.1236 30.9595 17.5261 31.173 16.9287C31.5361 15.9098 31.7016 14.859 31.6642 13.8028C31.6482 13.3867 31.6055 12.9706 31.5254 12.5652C31.4613 12.2398 31.3812 11.9197 31.2798 11.6103C31.1089 11.0822 30.9381 10.7622 30.9221 10.7302C30.81 10.5275 30.6284 10.3781 30.4042 10.3141C30.2814 10.2767 30.1586 10.2714 30.0358 10.2874C29.9343 10.3034 29.8382 10.3354 29.7474 10.3834V10.3674ZM18.1773 9.23656L18.77 12.0104C18.8127 12.4371 18.7006 12.8639 18.471 13.216L16.5809 15.3977C16.4367 15.5471 16.3994 15.7658 16.4794 15.9578C16.5595 16.1552 16.7251 16.2832 16.9386 16.3152L19.6403 16.5873C20.2062 16.6886 20.6921 17.0247 20.9697 17.5261H20.9804L22.2939 19.7292C22.4113 19.9106 22.5982 20.0119 22.8118 19.9959C23.0254 19.9853 23.2015 19.8626 23.2816 19.6759L24.3495 17.2594C24.5684 16.79 24.9635 16.4326 25.444 16.2672L28.1991 15.6324C28.4073 15.5844 28.5621 15.4297 28.6155 15.227C28.6689 15.0243 28.6102 14.811 28.4447 14.6723L26.5706 12.9973L26.4692 12.9066C26.0634 12.5172 25.8498 11.9571 25.8925 11.3916L26.1221 8.7618C26.1381 8.54842 26.042 8.35639 25.8658 8.2337C25.6843 8.11634 25.4707 8.11634 25.2839 8.2337L22.9399 9.58862C22.4968 9.81799 21.9895 9.85533 21.5144 9.71663L18.9355 8.61776C18.7379 8.53241 18.519 8.56443 18.3642 8.69779C18.1987 8.84181 18.1239 9.03917 18.1773 9.24721V9.23656Z" fill="url(#paint0_linear_10_115)"/>
<defs>
<linearGradient id="paint0_linear_10_115" x1="0.408357" y1="21.1055" x2="36.256" y2="21.1055" gradientUnits="userSpaceOnUse">
<stop stop-color="#F7D864"/>
<stop offset="0.11" stop-color="#DAAF39"/>
<stop offset="0.21" stop-color="#C69119"/>
<stop offset="0.29" stop-color="#B97F06"/>
<stop offset="0.34" stop-color="#B57900"/>
<stop offset="0.38" stop-color="#C18B13"/>
<stop offset="0.46" stop-color="#D5A731"/>
<stop offset="0.54" stop-color="#E5BE49"/>
<stop offset="0.63" stop-color="#F0CE59"/>
<stop offset="0.72" stop-color="#F6D763"/>
<stop offset="0.84" stop-color="#F9DB67"/>
<stop offset="0.87" stop-color="#F6D662"/>
<stop offset="0.9" stop-color="#EDCA56"/>
<stop offset="0.94" stop-color="#DFB641"/>
<stop offset="0.97" stop-color="#CC9B23"/>
<stop offset="1" stop-color="#B57900"/>
</linearGradient>
</defs>
</svg>
