<svg width="37" height="42" viewBox="0 0 37 42" fill="none" xmlns="http://www.w3.org/2000/svg">
<path d="M14.0021 25.1859C12.5065 24.0657 11.2717 22.6841 10.3403 21.0838C9.43546 19.5368 8.84999 17.8458 8.5892 16.0642C8.33372 14.2825 8.41888 12.4955 8.84467 10.7565C9.28643 8.95346 10.0795 7.27846 11.1972 5.77951C12.3149 4.28056 13.6934 3.04298 15.2901 2.10947C16.8336 1.20263 18.5208 0.615864 20.2985 0.35448C22.0762 0.0984311 23.8593 0.18377 25.5944 0.610519C27.3933 1.05327 29.0646 1.84811 30.5602 2.96833C32.0558 4.08854 33.2906 5.47014 34.222 7.07045C35.1268 8.61741 35.7123 10.3084 35.9731 12.0901C36.2286 13.8717 36.1434 15.6588 35.7176 17.3978C35.2759 19.2008 34.4828 20.8758 33.3651 22.3747C32.2474 23.8737 30.8689 25.1112 29.2721 26.0447C27.7286 26.9516 26.0414 27.5384 24.2638 27.7997C22.4861 28.0558 20.703 27.9705 18.9679 27.5437C17.169 27.101 15.4977 26.3061 14.0021 25.1859ZM28.9102 5.18741C26.5417 3.41106 23.6251 2.6696 20.6977 3.09635C17.7704 3.5231 15.1837 5.06473 13.4113 7.43852C11.6389 9.81231 10.8991 12.7355 11.3249 15.6694C11.7507 18.6033 13.2889 21.1958 15.6574 22.9722C18.0259 24.7485 20.9425 25.49 23.8699 25.0632C26.7972 24.6365 29.3839 23.0948 31.1563 20.721C32.9287 18.3473 33.6685 15.424 33.2427 12.4901C32.8169 9.55624 31.2787 6.96375 28.9102 5.18741ZM16.4291 29.5654C16.8443 29.0106 16.7272 28.2212 16.1737 27.8104L10.8725 23.8417C10.319 23.4256 9.53127 23.5429 9.12144 24.0977C8.71161 24.6525 8.82338 25.4419 9.37691 25.8527L14.6781 29.8215C15.2316 30.2375 16.0193 30.1202 16.4291 29.5654ZM8.25921 40.0368L13.901 31.2937C14.1405 30.9203 14.05 30.4296 13.6987 30.1629L9.32369 26.8876C8.97241 26.6208 8.47211 26.6795 8.18469 27.0156L1.41988 34.9158C-0.192813 36.7988 0.121207 39.658 2.10647 41.1463C4.09174 42.6346 6.91796 42.1225 8.25921 40.0368ZM29.6341 10.3671C29.4318 10.4791 29.2828 10.6604 29.2189 10.8845C29.1551 11.1032 29.1817 11.3432 29.2881 11.5459C29.2881 11.5566 29.7671 12.4635 29.815 13.8504C29.847 14.6879 29.7139 15.5201 29.4265 16.3362C29.2509 16.827 29.022 17.3124 28.7346 17.7818C28.4152 18.3099 28.0214 18.8274 27.5637 19.3288C27.4093 19.4995 27.3295 19.7235 27.3348 19.9529C27.3454 20.1823 27.4466 20.401 27.6116 20.5557C27.7819 20.7104 28.0054 20.7904 28.2343 20.7851C28.4631 20.7744 28.6814 20.6731 28.8357 20.5077C29.368 19.9262 29.831 19.3128 30.2089 18.694C30.5549 18.1232 30.8423 17.5258 31.0552 16.9283C31.4171 15.9095 31.5821 14.8586 31.5448 13.8024C31.5289 13.3863 31.4863 12.9702 31.4064 12.5648C31.3426 12.2394 31.2627 11.9194 31.1616 11.61C30.9913 11.0819 30.821 10.7618 30.805 10.7298C30.6932 10.5271 30.5123 10.3777 30.2887 10.3137C30.1663 10.2764 30.0439 10.271 29.9215 10.287C29.8204 10.3031 29.7246 10.3351 29.6341 10.3831V10.3671ZM18.1004 9.2362L18.6912 12.01C18.7338 12.4368 18.622 12.8635 18.3931 13.2156L16.509 15.3974C16.3653 15.5467 16.328 15.7654 16.4078 15.9575C16.4877 16.1548 16.6527 16.2829 16.8656 16.3149L19.5587 16.5869C20.1229 16.6883 20.6072 17.0243 20.884 17.5258H20.8946L22.204 19.7289C22.3211 19.9102 22.5073 20.0116 22.7202 19.9956C22.9331 19.9849 23.1088 19.8622 23.1886 19.6755L24.2531 17.2591C24.4713 16.7896 24.8652 16.4322 25.3442 16.2669L28.0906 15.6321C28.2981 15.5841 28.4525 15.4294 28.5057 15.2267C28.559 15.024 28.5004 14.8106 28.3354 14.6719L26.4672 12.9969L26.3661 12.9062C25.9616 12.5168 25.7487 11.9567 25.7913 11.3913L26.0201 8.76143C26.0361 8.54806 25.9403 8.35602 25.7647 8.23333C25.5837 8.11598 25.3708 8.11598 25.1845 8.23333L22.848 9.58825C22.4062 9.81763 21.9006 9.85496 21.4269 9.71627L18.8562 8.61739C18.6592 8.53204 18.441 8.56406 18.2867 8.69742C18.1217 8.84145 18.0471 9.0388 18.1004 9.24684V9.2362Z" fill="url(#paint0_linear_10_96)"/>
<defs>
<linearGradient id="paint0_linear_10_96" x1="0.387331" y1="21.1051" x2="36.1168" y2="21.1051" gradientUnits="userSpaceOnUse">
<stop stop-color="#220600"/>
<stop offset="0.37" stop-color="#AA7D5A"/>
<stop offset="0.47" stop-color="#FAC2A7"/>
<stop offset="0.58" stop-color="#FAC2A7"/>
<stop offset="0.7" stop-color="#B17B60"/>
<stop offset="0.79" stop-color="#75492E"/>
<stop offset="1" stop-color="#3C1401"/>
</linearGradient>
</defs>
</svg>
