<svg width="36" height="48" viewBox="0 0 36 48" fill="none" xmlns="http://www.w3.org/2000/svg">
<path d="M21.9424 45.596C21.9691 45.612 21.9958 45.6227 22.0279 45.6333C22.0439 45.6387 22.06 45.6493 22.076 45.6493C22.108 45.66 22.1401 45.6654 22.1828 45.6707C22.247 45.676 22.3057 45.6707 22.3698 45.66C22.3912 45.66 22.4179 45.6547 22.4393 45.644C22.8827 45.5693 23.3262 45.484 23.7696 45.3933C26.5959 44.8118 29.3741 43.9744 32.0615 42.9022C32.4783 42.7368 32.895 42.5661 33.3117 42.3847C33.3331 42.3741 33.3598 42.3687 33.3812 42.358C33.3972 42.3474 33.4186 42.3367 33.4346 42.3314C33.472 42.31 33.4987 42.294 33.5308 42.262C33.5575 42.246 33.5789 42.2247 33.6002 42.2034C33.6697 42.1287 33.7178 42.0433 33.7498 41.9526C33.7552 41.9366 33.7659 41.9153 33.7659 41.8993C33.4079 44.7158 30.3999 47.0896 28.9307 47.5324C28.3964 47.6977 27.5523 47.7511 26.6013 47.6604C24.945 47.495 22.9736 46.8709 21.7928 45.5053C21.8356 45.5426 21.8836 45.5747 21.9371 45.6067L21.9424 45.596ZM32.4409 41.6806C32.3928 42.0967 32.2539 42.5127 32.0669 42.9075C32.4836 42.7421 32.9004 42.5714 33.3171 42.39C33.3385 42.3794 33.3652 42.3741 33.3865 42.3634C33.4026 42.3527 33.4239 42.342 33.44 42.3367C33.4774 42.3154 33.5094 42.294 33.5361 42.2674C33.5629 42.2514 33.5842 42.23 33.6056 42.2087C33.675 42.134 33.7231 42.0486 33.7552 41.958C33.7605 41.942 33.7712 41.9206 33.7712 41.9046C33.7712 41.8833 33.7819 41.862 33.7819 41.8353V41.7766C33.7819 41.7286 33.7819 41.6859 33.7819 41.6379C33.7766 41.5899 33.7605 41.5472 33.7391 41.4992C33.7391 41.4939 33.7391 41.4832 33.7391 41.4779C33.7285 41.4619 33.7178 41.4405 33.7124 41.4245C33.6911 41.3872 33.6697 41.3552 33.643 41.3285C33.627 41.3018 33.6056 41.2805 33.5842 41.2592C33.5094 41.1898 33.4239 41.1418 33.3331 41.1098C33.2957 41.0938 33.253 41.0831 33.2102 41.0831H33.1782C33.066 41.0671 32.9538 41.0831 32.8629 41.1311C32.8416 41.1418 32.8202 41.1471 32.7988 41.1578C32.6118 41.2592 32.4836 41.4512 32.4569 41.6752V41.6859L32.4409 41.6806ZM21.6058 44.8065C21.5791 44.8972 21.5738 44.9772 21.5791 45.0626C21.5791 45.0946 21.5898 45.1319 21.5951 45.1639C21.6058 45.2226 21.6272 45.2759 21.6593 45.3293C21.6913 45.388 21.7394 45.4466 21.7982 45.4946C21.8409 45.532 21.889 45.564 21.9424 45.596C21.9691 45.612 21.9958 45.6227 22.0279 45.6333C22.0439 45.6387 22.06 45.6493 22.076 45.6493C22.108 45.66 22.1401 45.6654 22.1828 45.6707C22.247 45.676 22.3057 45.6707 22.3698 45.66C22.3912 45.66 22.4179 45.6547 22.4393 45.644C22.8827 45.5693 23.3262 45.484 23.7696 45.3933C23.385 45.1692 23.043 44.8919 22.7652 44.5611C22.6209 44.3798 22.3966 44.3051 22.1828 44.3211C22.1668 44.3211 22.1508 44.3211 22.1294 44.3264C22.1187 44.3264 22.1134 44.3264 22.1027 44.3371C22.076 44.3371 22.0493 44.3478 22.0279 44.3584C22.0226 44.3584 22.0172 44.3584 22.0119 44.3584C21.9798 44.3744 21.9531 44.3851 21.921 44.4011C21.8035 44.4651 21.7127 44.5611 21.6486 44.6785C21.6272 44.7158 21.6112 44.7532 21.6058 44.7905V44.8065ZM20.2808 41.0458C20.3396 41.0511 20.3984 41.0458 20.4625 41.0405C24.5817 40.3417 28.6048 39.1361 32.4248 37.4504C32.7668 37.3011 32.9217 36.901 32.7721 36.5596C32.6225 36.2182 32.2218 36.0635 31.8799 36.2129C28.1614 37.8505 24.2451 39.0294 20.2381 39.7069C19.8694 39.7709 19.6237 40.1176 19.6824 40.4857C19.7359 40.7898 19.987 41.0138 20.2808 41.0458ZM21.125 43.3716C21.1837 43.3769 21.2425 43.3716 21.3066 43.3662C25.335 42.6888 29.2726 41.5045 33.0072 39.8562C33.3491 39.7069 33.5041 39.3068 33.3545 38.9654C33.2049 38.624 32.8042 38.4693 32.4622 38.6187C28.8292 40.2243 24.9985 41.3712 21.0822 42.0327C20.7136 42.0967 20.4678 42.4434 20.5266 42.8115C20.58 43.1155 20.8311 43.3396 21.125 43.3716ZM21.6058 44.8065C21.5791 44.8972 21.5738 44.9772 21.5791 45.0626C21.5791 45.0786 21.5791 45.0999 21.5844 45.1213C21.5898 45.1426 21.5951 45.1479 21.5951 45.1693C21.6058 45.2279 21.6272 45.2813 21.6593 45.3346C21.6913 45.3933 21.7394 45.452 21.7982 45.5C21.8409 45.5373 21.889 45.5693 21.9424 45.6013C21.9691 45.6173 21.9958 45.628 22.0279 45.6387C22.0439 45.644 22.06 45.6547 22.076 45.6547C22.108 45.6654 22.1401 45.6707 22.1828 45.676C22.247 45.6813 22.3057 45.676 22.3698 45.6653C22.3912 45.6653 22.4179 45.66 22.4393 45.6493C22.8827 45.5747 23.3262 45.4893 23.7696 45.3986C26.5959 44.8172 29.3741 43.9797 32.0615 42.9075C32.4783 42.7421 32.895 42.5714 33.3117 42.39C33.3331 42.3794 33.3598 42.3741 33.3812 42.3634C33.3972 42.3527 33.4186 42.342 33.4346 42.3367C33.472 42.3154 33.5041 42.294 33.5308 42.2674C33.5575 42.2514 33.5789 42.23 33.6002 42.2087C33.6697 42.134 33.7178 42.0486 33.7498 41.958C33.7552 41.942 33.7659 41.9206 33.7659 41.9046C33.7659 41.8833 33.7766 41.862 33.7766 41.8353V41.8139C33.7819 41.7553 33.7819 41.7019 33.7766 41.6432C33.7712 41.5952 33.7552 41.5526 33.7338 41.5045C33.7338 41.4992 33.7338 41.4886 33.7338 41.4832C33.7231 41.4672 33.7124 41.4459 33.7071 41.4299C33.6857 41.3925 33.6644 41.3605 33.6376 41.3339C33.6216 41.3072 33.6002 41.2858 33.5789 41.2645C33.5041 41.1952 33.4186 41.1472 33.3278 41.1151C33.2904 41.0991 33.2476 41.0885 33.2049 41.0885H33.1728C33.0713 41.0778 32.9591 41.0885 32.8576 41.1365C32.8362 41.1472 32.8149 41.1525 32.7935 41.1632C32.6866 41.2112 32.5798 41.2538 32.4729 41.2965C29.2887 42.6408 25.9548 43.6436 22.5568 44.2677C22.4339 44.2944 22.3218 44.3158 22.1989 44.3424C22.1828 44.3424 22.1668 44.3424 22.1454 44.3478C22.1348 44.3478 22.1294 44.3478 22.1187 44.3584C22.092 44.3584 22.0653 44.3691 22.0439 44.3798C22.0386 44.3798 22.0332 44.3798 22.0279 44.3798C21.9958 44.3958 21.9691 44.4064 21.9371 44.4224C21.8195 44.4864 21.7287 44.5825 21.6646 44.6998C21.6432 44.7372 21.6272 44.7745 21.6218 44.8118L21.6058 44.8065ZM19.4741 38.7307C19.5328 38.736 19.597 38.7307 19.6557 38.7253C23.8337 38.0052 27.9263 36.7783 31.8104 35.082C32.1524 34.9326 32.3073 34.5325 32.1577 34.1911C32.0081 33.8497 31.6074 33.6951 31.2655 33.8444C27.4775 35.4981 23.4918 36.693 19.4206 37.3971C19.052 37.4611 18.8062 37.8078 18.8703 38.1759C18.9238 38.48 19.1749 38.704 19.4687 38.7307H19.4741ZM20.6548 22.3649L20.8525 23.0157L21.4936 22.8183C21.4081 22.845 21.3227 22.8503 21.2372 22.845C20.9754 22.8183 20.735 22.6369 20.6548 22.3702V22.3649ZM9.761 24.9307L12.3522 24.1572C11.663 23.6718 11.1822 22.941 10.9952 22.0928C10.6158 20.3645 11.5935 18.6255 13.2712 18.0494C14.1794 17.74 15.1518 17.8093 16.0067 18.2468C16.8561 18.6895 17.4812 19.431 17.7537 20.3432C17.9781 21.074 17.9461 21.8474 17.6896 22.5516L20.4678 21.7194L19.442 18.3161C19.4313 18.2734 19.4206 18.2308 19.4153 18.1881C19.3458 17.804 19.4955 17.4199 19.8107 17.1746C20.1633 16.9025 20.6335 16.8758 21.0128 17.1105C21.531 17.4306 22.1668 17.5106 22.7492 17.3399C23.3102 17.1692 23.7696 16.7905 24.0368 16.2677C24.3092 15.7503 24.352 15.1528 24.1543 14.5981C23.8124 13.5899 22.7225 12.9764 21.6753 13.2111C21.0128 13.3552 20.4785 13.7926 20.19 14.4007C20.003 14.8008 19.597 15.0408 19.1535 15.0088C18.7421 14.9715 18.4055 14.7261 18.2506 14.3634C18.2346 14.326 18.2239 14.294 18.2132 14.2513V14.2353L17.1981 10.864C11.4226 12.9551 8.23832 19.0202 9.76633 24.936L9.761 24.9307ZM10.167 26.2163C11.0967 28.6434 12.8064 30.7078 15.0343 32.0734C16.5997 33.0336 17.9888 33.9618 19.0039 35.4287L24.1222 33.8978L23.2834 31.1132C22.7919 31.796 22.0653 32.2761 21.2211 32.4628C20.8472 32.5428 20.4839 32.5642 20.1259 32.5322C18.8009 32.4041 17.6202 31.5133 17.1714 30.1904C16.8561 29.2889 16.9256 28.318 17.369 27.4699C17.8071 26.6164 18.5551 25.9976 19.4634 25.7202C20.1953 25.5015 20.9807 25.5282 21.686 25.7895L20.8472 23.0157L17.4332 24.0399C17.3904 24.0505 17.353 24.0612 17.3049 24.0665C16.9203 24.1359 16.5302 23.9865 16.2898 23.6665C16.0173 23.3144 15.996 22.845 16.2257 22.4716C16.5463 21.9488 16.6317 21.314 16.4554 20.7326C16.2845 20.1725 15.9051 19.7137 15.3869 19.447C14.8633 19.1803 14.2649 19.1376 13.7146 19.3296C12.6995 19.6764 12.0851 20.7592 12.3202 21.8048C12.4644 22.4662 12.8972 23.005 13.5116 23.2877C13.9123 23.4744 14.1527 23.8852 14.1207 24.3226C14.0939 24.728 13.8375 25.0694 13.4689 25.2241C13.4368 25.2401 13.4047 25.2508 13.3673 25.2668L10.167 26.227V26.2163ZM20.6548 22.3649L20.8525 23.0157L21.4936 22.8183C21.4081 22.845 21.3227 22.8503 21.2372 22.845C20.9754 22.8183 20.735 22.6369 20.6548 22.3702V22.3649ZM18.491 10.4746L19.3191 13.2378C19.8107 12.5497 20.5426 12.0696 21.3868 11.8829C23.1232 11.5041 24.8595 12.4803 25.4366 14.1553C25.7518 15.0622 25.677 16.033 25.2389 16.8758C24.8008 17.7293 24.0528 18.3534 23.1392 18.6255C22.4072 18.8495 21.6272 18.8229 20.922 18.5562L21.7608 21.3353L25.1694 20.3112C25.2175 20.3005 25.2602 20.2898 25.3083 20.2845C25.6877 20.2151 26.0777 20.3592 26.3181 20.6792C26.5906 21.0313 26.612 21.5007 26.3822 21.8795C26.0563 22.3969 25.9762 23.0317 26.1525 23.6131C26.3181 24.1732 26.6974 24.632 27.221 24.8987C27.7446 25.1708 28.3377 25.2134 28.8933 25.0161C29.9031 24.6747 30.5175 23.5864 30.2878 22.5409C30.1382 21.8795 29.7107 21.3407 29.0963 21.058C28.6956 20.8713 28.4552 20.4659 28.4873 20.0231C28.5086 19.6177 28.7651 19.2763 29.1337 19.1216C29.1658 19.1056 29.1978 19.0949 29.2406 19.0789L32.4569 18.1134C31.4952 15.3342 29.5558 13.0404 26.9379 11.6108C24.3199 10.1812 21.344 9.78114 18.4857 10.4693L18.491 10.4746ZM18.4536 29.753C18.8009 30.7612 19.8855 31.3746 20.9326 31.1452C21.5951 30.9959 22.1348 30.5638 22.4179 29.9557C22.6049 29.5556 23.0163 29.3155 23.4544 29.3422C23.8604 29.3636 24.2077 29.6249 24.352 29.9984C24.368 30.0304 24.3787 30.0624 24.3947 30.0997L25.4205 33.503L30.5389 31.9667C30.5763 30.1851 31.2227 28.6541 32.0028 26.9898C33.1034 24.6266 33.3972 21.9541 32.8309 19.4203L30.2664 20.1885C30.9502 20.6792 31.4311 21.4047 31.6181 22.2529C32.0028 23.9812 31.0251 25.7202 29.3421 26.2963C28.8612 26.4617 28.359 26.515 27.8675 26.467C27.4401 26.4243 27.018 26.3016 26.6173 26.0989C25.7625 25.6615 25.1427 24.9147 24.8649 24.0025C24.6458 23.2717 24.6726 22.4929 24.9343 21.7888L22.1561 22.6263L23.1819 26.0296C23.1926 26.0723 23.2033 26.1149 23.2086 26.1629C23.2781 26.547 23.1285 26.9364 22.8133 27.1765C22.4553 27.4432 21.9852 27.4699 21.6112 27.2351C21.0929 26.9151 20.4518 26.8297 19.8694 27.0058C19.3084 27.1765 18.849 27.5552 18.5818 28.078C18.3147 28.6007 18.272 29.1929 18.4643 29.7476L18.4536 29.753ZM6.81716 2.55843C6.8973 2.65444 7.36211 3.08653 8.20092 3.84401C8.9115 4.48413 9.6862 5.32163 10.525 6.34582C10.8509 6.74056 11.086 6.99126 11.2516 7.09795C11.5561 7.34333 12.2347 7.45003 12.5606 7.17798C13.0521 6.77257 13.0307 6.22845 11.8393 4.78284C10.9631 3.71597 10.0495 2.70245 9.11987 1.77427C8.63902 1.28351 8.29175 0.990119 8.0727 0.851426C7.03087 0.259312 5.70586 1.20349 6.82784 2.56375L6.81716 2.55843ZM20.7724 1.25684C20.7777 1.34753 20.8899 1.76894 21.1089 2.52108C21.2959 3.15587 21.4135 3.92934 21.4723 4.83085C21.499 5.17758 21.531 5.4123 21.6058 5.53499C21.7073 5.79104 22.1775 6.10577 22.6103 6.07376C23.246 6.03642 23.5559 5.71102 23.4651 4.43611C23.401 3.49727 23.2728 2.56909 23.0911 1.68358C23.0003 1.22483 22.8934 0.920781 22.8026 0.760751C22.3164 0.0299441 20.6976 0.0619463 20.7777 1.25684H20.7724ZM0.982899 12.0216C1.0577 12.0749 1.44771 12.267 2.1583 12.5923C2.76203 12.8591 3.42452 13.2805 4.14579 13.8192C4.42361 14.0273 4.62129 14.15 4.77088 14.182C5.02733 14.2673 5.57765 14.1126 5.8341 13.7712C6.21343 13.2645 6.17068 12.8217 5.14488 12.0536C4.38087 11.4935 3.60083 10.9814 2.81011 10.5493C2.39872 10.3199 2.09952 10.2025 1.91787 10.1652C1.047 10.0532 0.0158656 11.3014 0.982899 12.0216ZM34.9733 5.64702C34.9199 5.7217 34.6047 6.02042 34.0277 6.54319C33.5361 6.98061 33.0286 7.57806 32.505 8.3142C32.302 8.59692 32.147 8.77295 32.0188 8.84764C31.7997 9.00767 31.2281 9.029 30.8808 8.77829C30.3679 8.41022 30.2717 7.97812 31.0144 6.93259C31.57 6.16444 32.163 5.44431 32.7881 4.79352C33.1087 4.45212 33.3598 4.24942 33.5254 4.15873C34.3162 3.78533 35.6839 4.67084 34.9787 5.64702H34.9733Z" fill="url(#paint0_linear_10_105)"/>
<defs>
<linearGradient id="paint0_linear_10_105" x1="6.32446" y1="7.99652" x2="75.4751" y2="48.3549" gradientUnits="userSpaceOnUse">
<stop stop-color="#CBD1D6"/>
<stop offset="0.09" stop-color="#C7CDD2"/>
<stop offset="0.17" stop-color="#BCC2C7"/>
<stop offset="0.25" stop-color="#AAB1B5"/>
<stop offset="0.29" stop-color="#CAD1D4"/>
<stop offset="0.33" stop-color="#E1E8EB"/>
<stop offset="0.55" stop-color="#B0B7BC"/>
<stop offset="0.58" stop-color="#A9B0B4"/>
<stop offset="0.68" stop-color="#9BA1A6"/>
<stop offset="0.75" stop-color="#979DA1"/>
<stop offset="0.91" stop-color="#6A6F73"/>
<stop offset="0.93" stop-color="#70757A"/>
<stop offset="0.95" stop-color="#84898D"/>
<stop offset="0.97" stop-color="#A3A9AD"/>
<stop offset="1" stop-color="#CBD1D6"/>
</linearGradient>
</defs>
</svg>
