<svg width="40" height="47" viewBox="0 0 40 47" fill="none" xmlns="http://www.w3.org/2000/svg">
<path d="M24.3761 20.5747C23.5212 14.5362 24.5898 8.23637 27.4001 2.81133C27.8969 1.85648 28.49 0.880295 29.441 0.368197C30.7874 -0.351941 32.481 0.0694731 33.8007 0.832286C37.0383 2.70464 38.9083 6.35334 39.5655 10.0287C40.2226 13.7041 39.8433 17.4701 39.5868 21.1935C39.0579 28.811 39.0312 36.4658 39.5227 44.0832C39.5655 44.7874 39.5387 45.6409 38.9297 45.9929C38.5397 46.217 38.0535 46.1423 37.6154 46.057C26.4597 43.9072 15.7743 39.3837 6.48328 32.8758C4.5599 31.5315 2.65789 30.0592 1.38098 28.0908C0.104067 26.1278 -0.467605 23.562 0.446002 21.4016C1.76566 18.2703 5.58036 17.0327 8.97834 16.8194C13.9257 16.51 18.9532 17.6195 23.3022 19.9826" fill="url(#paint0_linear_10_98)"/>
<defs>
<linearGradient id="paint0_linear_10_98" x1="6.61685" y1="7.5109" x2="78.9533" y2="57.6213" gradientUnits="userSpaceOnUse">
<stop stop-color="#CBD1D6"/>
<stop offset="0.09" stop-color="#C7CDD2"/>
<stop offset="0.17" stop-color="#BCC2C7"/>
<stop offset="0.25" stop-color="#AAB1B5"/>
<stop offset="0.29" stop-color="#CAD1D4"/>
<stop offset="0.33" stop-color="#E1E8EB"/>
<stop offset="0.55" stop-color="#B0B7BC"/>
<stop offset="0.58" stop-color="#A9B0B4"/>
<stop offset="0.68" stop-color="#9BA1A6"/>
<stop offset="0.75" stop-color="#979DA1"/>
<stop offset="0.91" stop-color="#6A6F73"/>
<stop offset="0.93" stop-color="#70757A"/>
<stop offset="0.95" stop-color="#84898D"/>
<stop offset="0.97" stop-color="#A3A9AD"/>
<stop offset="1" stop-color="#CBD1D6"/>
</linearGradient>
</defs>
</svg>
