<svg width="46" height="45" viewBox="0 0 46 45" fill="none" xmlns="http://www.w3.org/2000/svg">
<path d="M10.1831 43.2518L11.3692 30.7161C11.412 30.2627 11.6951 29.8679 12.1065 29.6759L24.6673 23.9254C25.7625 23.424 26.8792 24.5762 26.3395 25.6538L19.2978 39.7471C19.191 39.9552 19.0307 40.1312 18.833 40.2592L12.1332 44.4521C11.2357 45.0122 10.087 44.3027 10.1831 43.2518ZM0.459372 19.6313L8.50552 26.3526C8.81006 26.6086 9.22144 26.7046 9.61146 26.6193L24.3574 23.248C25.5381 22.9759 25.7144 21.365 24.6138 20.8529L12.4378 15.1344C12.1813 15.0117 11.8928 14.9797 11.615 15.0437L0.998988 17.4175C-0.0321586 17.6469 -0.352722 18.9592 0.459372 19.642V19.6313ZM44.7239 13.2727L31.5487 12.3712C30.9343 12.3286 30.3733 12.734 30.2237 13.3314L28.3912 20.5595C28.2416 21.1569 28.5354 21.7757 29.0964 22.0317L35.8175 25.099C36.3304 25.3337 36.9342 25.2057 37.3082 24.7843L45.6001 15.3905C46.3 14.5957 45.7871 13.3474 44.7292 13.2781L44.7239 13.2727ZM20.4946 0.875693L16.1777 11.5817C15.9693 12.0992 16.1189 12.686 16.5517 13.0434L25.629 20.5115C26.4998 21.2263 27.8035 20.5488 27.7126 19.4233L26.767 7.693C26.7509 7.50096 26.6922 7.31426 26.5907 7.14356L22.7706 0.699658C22.231 -0.207183 20.8846 -0.105826 20.4893 0.870361L20.4946 0.875693ZM27.5417 24.7683L24.8008 36.2745C24.6566 36.8773 24.9665 37.496 25.5381 37.7414L37.6768 42.9851C38.6492 43.4065 39.6803 42.5317 39.4239 41.5022L36.4106 29.5159C36.3411 29.2331 36.1702 28.9771 35.9351 28.8064L29.5505 24.0481C28.8132 23.4987 27.7554 23.8828 27.547 24.7736L27.5417 24.7683Z" fill="url(#paint0_linear_10_99)"/>
<defs>
<linearGradient id="paint0_linear_10_99" x1="7.61172" y1="7.33342" x2="80.8823" y2="67.7586" gradientUnits="userSpaceOnUse">
<stop stop-color="#CBD1D6"/>
<stop offset="0.09" stop-color="#C7CDD2"/>
<stop offset="0.17" stop-color="#BCC2C7"/>
<stop offset="0.25" stop-color="#AAB1B5"/>
<stop offset="0.29" stop-color="#CAD1D4"/>
<stop offset="0.33" stop-color="#E1E8EB"/>
<stop offset="0.55" stop-color="#B0B7BC"/>
<stop offset="0.58" stop-color="#A9B0B4"/>
<stop offset="0.68" stop-color="#9BA1A6"/>
<stop offset="0.75" stop-color="#979DA1"/>
<stop offset="0.91" stop-color="#6A6F73"/>
<stop offset="0.93" stop-color="#70757A"/>
<stop offset="0.95" stop-color="#84898D"/>
<stop offset="0.97" stop-color="#A3A9AD"/>
<stop offset="1" stop-color="#CBD1D6"/>
</linearGradient>
</defs>
</svg>
