<svg width="37" height="44" viewBox="0 0 37 44" fill="none" xmlns="http://www.w3.org/2000/svg">
<path d="M34.3122 30.8416C34.8946 35.6158 33.1742 39.6006 29.8991 42.9986C29.819 43.0839 29.6694 43.0359 29.6534 42.9239C29.632 42.7905 29.6053 42.6518 29.5625 42.5131C28.9268 39.9793 27.8849 37.3815 26.5866 35.1091C26.5546 35.0504 26.5599 34.981 26.608 34.9384C28.6489 32.9753 31.5821 29.62 33.0193 27.1182C33.078 27.0168 33.2223 27.0222 33.2704 27.1182C33.7779 28.0944 34.1893 29.8654 34.3122 30.8469V30.8416ZM18.6741 37.8029L10.6493 32.9646C10.5745 32.9166 10.4783 32.9486 10.4462 33.034C10.099 33.9462 9.26017 35.5678 10.1577 36.2613C10.9485 36.8801 15.7783 40.0273 16.6972 39.894H16.7239C17.4078 39.6646 18.2092 38.6457 18.7114 38.0216C18.7649 37.9469 18.7489 37.8456 18.6741 37.8082V37.8029ZM13.3474 15.1212C7.93517 15.2386 3.41522 19.5327 1.32621 24.2803C1.1499 24.6857 0.968252 25.0965 0.845369 25.5232C0.813312 25.6299 0.914825 25.7259 1.02168 25.6939C1.18196 25.6566 1.34759 25.6192 1.51321 25.6086H1.55595C3.30302 24.9364 7.60392 24.7177 9.47388 24.7817C9.54333 24.7871 9.59675 24.7391 9.61278 24.6804C10.505 21.5598 11.659 18.3859 13.3206 15.58C13.3687 15.5 13.4221 15.4253 13.4756 15.3559C13.545 15.2599 13.4756 15.1266 13.358 15.1266L13.3474 15.1212ZM36.8447 4.99129C36.9515 6.6236 36.9569 8.26658 36.8447 9.89356C36.7218 11.5259 36.4974 13.1529 36.1608 14.7585C35.8189 16.3641 35.3701 17.9431 34.8251 19.4847C34.2748 21.0264 33.6177 22.5306 32.859 23.9869C32.1057 25.4379 31.2455 26.8355 30.2891 28.1637C30.2304 28.2491 30.1663 28.3398 30.1075 28.4198C30.1075 28.4251 30.1021 28.4251 30.1021 28.4251C29.8243 28.8092 29.5305 29.1933 29.2366 29.5613C29.1939 29.6147 29.1565 29.6573 29.1137 29.7107C28.4352 30.5482 27.7246 31.3643 26.9873 32.1592C25.8921 33.3381 24.7648 34.4903 23.6001 35.5945C23.2955 35.8772 23.0017 36.1599 22.6971 36.4426C22.4994 36.624 22.2911 36.8107 22.0934 36.9921C22.072 37.0028 22.0613 37.0134 22.0453 37.0294C21.869 37.1841 21.6874 37.3335 21.463 37.3602C21.1691 37.4028 20.8913 37.2481 20.6402 37.0934L20.512 37.0187C19.1282 36.1866 17.7391 35.3544 16.35 34.5169C16.2859 34.4743 16.2645 34.3996 16.2965 34.3249C16.3179 34.2822 16.35 34.2396 16.3767 34.1969C16.4408 34.1009 16.5209 34.0048 16.5744 33.9195C16.8308 33.4928 17.0819 33.066 17.3437 32.6446C17.7177 32.0151 18.097 31.391 18.471 30.7669C18.6687 30.4362 18.8717 30.1001 19.0694 29.7747C19.2778 29.428 19.4808 29.0866 19.6892 28.7452C20.0364 28.1744 20.3784 27.5983 20.7257 27.0275C20.7524 26.9688 20.747 26.9048 20.7096 26.8621C20.5707 26.6808 20.3891 26.5314 20.186 26.4034C19.9616 26.27 19.7212 26.1847 19.4808 26.142C19.4274 26.126 19.3686 26.1527 19.3312 26.206C19.3098 26.2434 19.2831 26.2807 19.2617 26.3234C19.2083 26.4034 19.1602 26.4834 19.1121 26.5634C18.4283 27.673 17.7444 28.7772 17.0712 29.8867C16.3446 31.0763 15.6287 32.2712 14.9181 33.4661C14.8754 33.5301 14.7899 33.5514 14.7258 33.5194C14.1114 33.162 13.5023 32.81 12.8879 32.4632C12.3963 32.1752 11.9048 31.8924 11.4133 31.6044C11.2958 31.5404 11.1835 31.471 11.066 31.4124C10.7401 31.2203 10.3982 31.0176 10.2165 30.6869C9.97609 30.2708 10.0509 29.748 10.1364 29.2786C10.3821 27.961 10.6867 26.6648 11.05 25.3739C11.3545 24.2963 11.6965 23.2348 12.0811 22.1999C12.0811 22.1999 12.0811 22.1946 12.0811 22.1839C13.6305 17.9964 15.8371 14.0704 18.7328 10.6777C23.194 5.45537 29.3007 1.56663 36.0272 0.19037C36.0753 0.19037 36.1234 0.174365 36.1661 0.163696C36.1822 0.163696 36.273 0.643788 36.3692 1.17189C36.4707 1.78001 36.5829 2.45213 36.5936 2.55349C36.7111 3.36964 36.7966 4.18046 36.8554 4.99662L36.8447 4.99129ZM33.8153 11.7286C33.4467 10.0429 32.282 8.62931 30.7593 7.89317C30.2998 7.67446 29.8136 7.51443 29.3114 7.43442C28.6436 7.31173 27.9544 7.31706 27.2865 7.45042C25.0746 7.87717 23.2581 9.68018 22.82 11.8939C22.4193 13.8677 23.1673 16.0814 24.7594 17.3243C26.2554 18.5032 28.2642 18.93 30.0915 18.3112C32.2179 17.5964 33.7512 15.5213 33.9222 13.3022C33.9649 12.7741 33.9222 12.2407 33.8207 11.7339L33.8153 11.7286ZM32.1751 11.8833C32.095 11.5792 31.9828 11.2858 31.8332 11.0084C31.0211 9.53083 29.2046 8.68266 27.5483 8.99739C25.8974 9.31745 24.5243 10.7737 24.316 12.4434C24.1023 14.1077 25.0693 15.8627 26.5973 16.5775C27.8635 17.1696 29.445 17.0149 30.599 16.2308C31.9828 15.2973 32.5812 13.4782 32.1698 11.8833H32.1751Z" fill="url(#paint0_linear_10_104)"/>
<defs>
<linearGradient id="paint0_linear_10_104" x1="6.82042" y1="7.14589" x2="73.3606" y2="51.9752" gradientUnits="userSpaceOnUse">
<stop stop-color="#CBD1D6"/>
<stop offset="0.09" stop-color="#C7CDD2"/>
<stop offset="0.17" stop-color="#BCC2C7"/>
<stop offset="0.25" stop-color="#AAB1B5"/>
<stop offset="0.29" stop-color="#CAD1D4"/>
<stop offset="0.33" stop-color="#E1E8EB"/>
<stop offset="0.55" stop-color="#B0B7BC"/>
<stop offset="0.58" stop-color="#A9B0B4"/>
<stop offset="0.68" stop-color="#9BA1A6"/>
<stop offset="0.75" stop-color="#979DA1"/>
<stop offset="0.91" stop-color="#6A6F73"/>
<stop offset="0.93" stop-color="#70757A"/>
<stop offset="0.95" stop-color="#84898D"/>
<stop offset="0.97" stop-color="#A3A9AD"/>
<stop offset="1" stop-color="#CBD1D6"/>
</linearGradient>
</defs>
</svg>
