<svg width="467" height="85" viewBox="0 0 467 85" fill="none" xmlns="http://www.w3.org/2000/svg">
<g filter="url(#filter0_d_9_374)">
<rect x="4" y="3" width="459" height="74" rx="37" fill="#002855"/>
<path d="M78.176 53.544C78.128 53.736 78.224 53.928 78.08 53.976C77.312 54.888 76.496 55.848 75.728 56.856L75.296 57.288C74.96 57.336 74.624 57.336 74.24 57.384C73.904 57.432 73.664 57.528 73.424 57.672C72.848 57.48 72.416 57.288 72.08 56.856C72.032 56.712 71.936 56.616 71.792 56.52C70.832 55.8 69.92 55.032 68.816 54.504C68.576 54.36 68.336 54.264 68 54.072C67.664 53.928 67.328 53.736 66.8 53.544C66.56 53.304 66.176 53.016 65.84 52.68C65.504 52.344 65.168 52.104 64.736 51.864C64.352 51.72 64.064 51.384 63.728 51.144C63.296 50.904 62.912 50.76 62.528 50.616C62.288 50.28 62.048 50.04 61.904 49.8C61.664 49.656 61.376 49.608 61.04 49.704C60.944 49.8 60.896 49.896 60.896 49.992C60.704 51.384 60.464 52.92 60.224 54.408C60.368 54.552 60.416 54.744 60.56 54.936C60.704 55.512 60.464 56.136 60.608 56.712C60.656 57.288 60.608 57.864 60.608 58.44C60.608 58.776 60.464 58.92 60.176 58.92C59.456 58.872 58.88 58.968 58.16 59.112C57.152 59.16 56.048 59.208 55.088 59.256C54.464 59.256 52.832 58.872 52.688 58.104C52.64 57.576 52.64 57 52.496 56.568C52.448 56.04 52.64 55.608 52.688 55.176C52.544 54.648 52.352 54.264 52.352 53.688C52.496 53.448 52.352 53.256 52.304 53.064C52.064 52.536 52.064 51.96 52.112 51.432C52.16 50.664 52.112 50.04 51.872 49.56C51.92 48.984 52.064 48.504 52.064 48.072C52.064 47.688 52.256 47.256 52.208 46.824C52.16 46.392 52.112 45.912 52.112 45.48C52.112 43.8 52.064 42.264 52.064 40.68C52.112 40.104 52.064 39.624 51.872 39.192C52.256 38.664 52.352 38.184 52.88 37.8C52.976 37.704 52.88 37.608 52.592 37.512C52.544 37.512 52.496 37.464 52.448 37.464C52.208 37.032 52.496 36.504 52.352 36.072C52.304 35.544 52.64 35.208 52.64 34.776C52.592 34.44 52.544 34.2 52.496 33.96C52.544 33.768 52.592 33.432 52.64 33.192C52.256 31.704 52.304 30.264 52.304 28.776C52.304 28.584 52.352 28.392 52.448 28.2C52.448 28.056 52.544 27.864 52.736 27.672C53.696 27.288 54.656 26.856 55.664 26.904C55.904 26.952 56.144 26.904 56.48 26.808C56.816 26.664 57.152 26.568 57.536 26.568C58.256 26.568 59.408 26.808 59.936 27.336C60.464 27.384 60.848 27.048 61.28 27.048C61.328 27.096 61.472 27.048 61.472 27.192C61.712 27.624 61.856 28.104 61.856 28.536C61.808 28.92 61.904 29.304 62.048 29.832C61.904 30.216 61.904 30.696 61.76 31.224C61.712 31.56 61.712 31.944 61.76 32.328C61.808 32.856 61.808 33.432 61.808 33.96C61.808 34.152 61.712 34.296 61.712 34.44C61.568 34.776 61.472 35.064 61.424 35.304C61.424 35.688 61.424 36.024 61.472 36.408C61.472 36.456 61.376 36.696 61.424 36.84C61.568 37.464 61.52 38.136 61.568 38.856C61.568 39.096 61.664 39.24 61.856 39.336C62.24 39.288 62.528 38.904 62.96 38.904C63.488 38.472 63.968 38.088 64.688 37.944C65.072 37.752 65.168 37.224 65.408 36.984C66.176 36.408 66.8 35.88 67.28 35.352C67.616 35.016 68.048 34.632 68.432 34.392C68.576 34.248 68.72 34.152 68.768 34.104C69.584 33 70.88 32.424 71.792 31.656C72.512 31.512 73.136 31.32 73.712 31.272C74.24 31.32 74.576 31.512 74.72 31.896C74.864 32.136 75.008 32.328 75.152 32.568C75.872 33.288 76.544 34.056 77.264 34.824C77.456 35.016 77.6 35.304 77.744 35.544C77.84 35.736 77.792 35.928 77.6 36.12C77.216 36.504 76.832 36.984 76.256 37.176C76.112 37.224 76.016 37.368 75.872 37.416C75.488 37.704 75.296 38.04 75.344 38.376C75.248 38.52 75.152 38.616 75.056 38.664L73.808 39.768C72.848 40.2 72.128 40.872 71.216 41.4C70.208 41.88 69.392 42.552 68.864 43.368C68.72 43.704 68.336 43.8 68.192 44.184C68.192 44.328 68.24 44.424 68.288 44.472C68.384 44.52 68.576 44.616 68.816 44.808C69.344 45 69.776 45.384 70.208 46.008C70.64 46.632 71.264 47.16 71.984 47.688C72.176 47.832 72.464 48.072 72.704 48.264C73.136 48.888 73.808 49.32 74.384 49.752C74.768 49.992 75.2 50.328 75.632 50.664C75.968 51.096 76.064 51.816 76.784 51.96C77.168 52.68 77.36 53.4 78.176 53.544ZM109.471 31.32C109.423 31.464 109.423 31.704 109.423 31.944C109.423 32.136 109.471 32.376 109.423 32.568C109.375 32.952 109.519 33.24 109.375 33.576C109.327 33.72 109.231 33.768 109.231 33.912C109.375 35.064 108.991 36.12 108.799 37.272L109.135 38.28C109.087 38.664 108.895 39.048 108.751 39.48C108.799 39.864 108.847 40.296 108.895 40.728C108.751 41.112 108.655 41.592 108.799 42.024C109.039 42.744 108.847 43.464 108.895 44.184C108.895 44.232 108.895 44.424 108.847 44.472C108.655 44.904 108.703 45.48 108.751 46.008C108.895 46.632 108.799 47.208 109.135 47.784C109.183 48.312 109.183 48.888 109.231 49.416C109.087 49.656 108.895 49.992 108.751 50.232C108.703 50.76 108.655 51.192 108.895 51.72C108.943 51.72 109.087 53.256 109.087 53.256C109.327 53.592 109.327 53.928 109.087 54.264C109.039 54.408 108.895 54.504 108.847 54.696C108.991 55.128 109.135 55.56 109.183 55.992C109.327 56.568 109.087 56.712 108.703 57.048C108.655 57.096 108.415 57.096 108.271 57.24C108.127 57.24 108.031 57.24 107.983 57.288C107.743 57.336 107.551 57.384 107.215 57.432L106.687 57.096C106.447 57.048 105.871 57.48 105.487 57.144C105.439 56.952 104.671 56.712 104.719 56.904V56.952C104.575 57 104.431 57.096 104.287 57.144C103.951 57.288 103.759 57.384 103.615 57.432C103.087 57.384 102.223 56.712 101.887 56.712C101.647 56.376 101.647 56.184 101.647 55.848C101.695 55.512 101.791 55.272 101.839 54.936C101.983 54.6 101.983 54.216 101.839 53.784C101.695 53.352 101.503 52.92 101.455 52.488C101.407 52.296 101.455 51.624 101.311 51.48C101.263 51.048 101.359 50.568 101.119 50.136C101.023 49.8 101.023 49.464 101.167 49.128C101.311 48.888 101.311 48.648 101.359 48.504C101.407 48.072 101.407 47.784 101.263 47.64C100.879 47.064 100.543 46.68 100.255 46.44C99.8229 46.392 99.2949 46.296 98.7669 46.296C98.7189 46.296 98.5749 46.248 98.2389 46.2C97.2789 46.008 96.5109 46.344 95.4069 46.392C95.0709 46.392 94.7349 46.248 94.3989 46.008C94.3509 46.056 94.1109 46.152 93.9669 46.296C93.6309 46.104 93.2469 45.96 92.8629 45.864C92.4789 45.72 92.0949 45.72 91.5669 45.672C91.3269 45.72 91.1349 45.96 91.0869 46.344V46.776C91.2309 47.688 91.1829 48.504 90.8469 49.224C90.8469 49.464 90.8469 49.608 90.7989 49.704C90.9909 49.944 91.0869 50.28 91.2309 50.52C91.1349 50.856 90.9909 51.192 90.7989 51.528C90.8469 51.96 90.8949 52.44 90.9429 52.872C90.9909 53.016 91.0869 53.16 91.1349 53.304C91.4709 53.832 91.4229 54.36 90.9909 54.84C90.9429 54.888 90.9909 54.936 90.8469 55.08C90.8469 55.32 90.8469 55.656 90.7989 56.04C90.7989 56.184 90.7509 56.328 90.6549 56.52L90.4149 56.76C89.9829 56.904 89.5509 57 89.2149 57.144C88.2069 57.288 87.6789 57.096 86.6709 56.712C86.3349 56.76 85.9509 56.808 85.5669 56.808C85.2309 56.808 84.8469 56.76 84.4149 56.664C84.0789 56.52 83.6469 56.232 83.2149 55.992C82.7829 55.8 82.3509 55.608 81.9669 55.464C81.8709 55.224 81.8709 54.936 81.9189 54.696C82.1109 54.12 82.4949 52.824 82.4949 52.248C82.3509 52.104 82.3989 51.912 82.5429 51.624C82.7829 51.096 82.5909 50.52 82.6389 49.992C82.3989 49.08 82.5909 48.12 82.7349 47.304C82.7829 46.776 83.0229 46.44 82.8789 46.056C83.0229 45.528 83.4549 45.336 83.4549 44.952C83.5029 44.424 83.2629 44.136 83.2149 43.704C83.2149 43.512 83.2629 43.176 83.2629 42.936C83.2629 42.552 83.2629 42.312 83.3109 42.168C83.4549 41.64 83.1669 41.16 83.2149 40.584C83.2149 40.44 83.1189 40.344 83.0709 40.152C83.0229 39.624 83.1189 39.048 83.1189 38.52C83.1189 37.944 83.0229 37.416 83.0709 36.984C83.0709 36.84 83.1189 36.84 83.1189 36.792C83.2629 36.744 83.4549 36.84 83.5029 36.792C83.8389 36.072 83.4549 35.4 83.4069 34.776C83.5989 34.44 83.5989 33.816 83.4069 33.768C83.4069 33.336 83.3589 32.856 83.3109 32.424C83.2629 31.896 83.0709 31.512 83.1189 30.984C83.2629 30.6 83.3589 30.216 83.5989 29.832C83.8389 29.784 84.2229 29.736 84.5589 29.544C84.8949 29.4 85.0389 29.16 85.2789 29.112C85.8069 29.064 86.1909 29.352 86.5749 29.4C87.4869 29.448 87.8229 29.304 88.5909 28.728C88.9269 28.92 89.3109 29.112 89.5509 29.304C89.8389 29.448 90.0789 29.544 90.3189 29.688C90.5589 29.832 90.7029 30.072 90.7029 30.408C90.7509 30.84 90.7509 31.224 90.7989 31.608C90.7989 32.136 90.7989 32.616 90.9909 33.144C91.0389 33.384 91.0389 33.672 91.0869 33.912C91.1349 34.728 91.1829 36.504 90.8469 37.272C90.7989 37.32 90.7989 37.464 90.7989 37.608C91.1349 38.04 91.5669 37.752 91.9509 37.752C92.6709 38.088 92.8629 38.472 93.5829 38.856C94.3029 38.52 94.8309 38.712 95.5989 38.472H97.8549C98.6709 38.472 99.4869 38.376 100.303 38.184C100.639 38.04 100.927 38.04 101.167 37.992C101.311 37.944 101.455 37.848 101.503 37.8C101.647 37.368 101.311 36.072 101.311 35.688C101.263 35.352 101.119 34.968 101.119 34.632C101.263 33.912 101.071 33.288 101.071 32.664C101.071 32.328 101.023 31.944 100.975 31.608C100.783 30.984 100.783 30.264 100.927 29.448C101.455 29.016 102.127 28.728 102.895 28.632C103.615 28.44 104.287 28.68 104.911 28.824C105.247 28.68 105.583 28.536 106.111 28.296C106.831 28.296 106.879 28.296 107.647 28.248C108.175 28.248 108.271 28.104 108.847 28.056C108.895 28.104 109.231 28.728 109.231 28.968C109.183 29.016 109.423 29.832 109.375 30.264C109.375 30.648 109.471 30.984 109.471 31.32ZM132.863 19.032C133.103 19.464 133.055 19.896 132.719 20.28C132.095 21 131.375 21.624 130.655 22.152C130.175 22.488 129.791 22.824 129.455 23.208L128.639 23.544C128.255 24.12 127.823 24.648 127.295 25.032C126.911 25.224 126.719 24.984 126.479 24.984C125.903 24.984 125.375 24.792 124.943 24.36C124.751 24.216 124.559 24.216 124.367 24.168C124.367 23.304 124.319 23.304 124.607 22.488C125.183 21.912 125.663 21.24 126.095 20.808C126.431 20.04 126.719 19.368 127.055 18.744C127.295 18.216 127.679 17.64 128.015 17.208C128.735 17.208 129.647 17.304 130.223 17.64C131.135 17.88 131.903 18.12 132.671 18.696C132.767 18.744 132.815 18.888 132.863 19.032ZM144.479 54.408L143.471 55.416C143.375 55.512 143.231 55.608 143.087 55.656C142.463 56.088 141.839 56.424 141.263 56.76C140.927 56.952 140.687 57.096 140.351 57.288C139.247 57.912 139.295 57.864 138.479 58.824C137.951 58.968 137.759 58.68 137.423 58.344C137.375 57.816 137.231 57.336 137.087 56.76C136.703 56.328 136.463 55.656 135.935 55.224C135.599 55.032 135.503 54.552 135.311 54.168C135.071 53.64 134.687 53.256 134.255 52.872C134.207 52.728 134.015 52.728 133.871 52.68C133.631 52.584 133.535 52.44 133.487 52.2L133.439 52.152C133.103 52.104 132.719 52.008 132.383 51.96C131.951 51.816 131.759 51.912 131.567 52.488H131.615L131.567 52.536V52.488C131.231 52.68 130.847 52.776 130.415 52.728H128.735C128.735 52.728 128.543 52.632 128.159 52.488C127.727 52.296 127.583 52.296 127.439 52.872C127.295 53.064 127.151 53.064 126.959 53.208C126.383 53.064 125.759 52.872 125.183 52.824C124.847 52.68 124.463 52.728 124.127 52.728C123.887 52.68 123.647 52.728 123.503 52.728C123.263 52.824 123.119 52.92 123.023 53.064L122.735 53.64C122.639 54.12 122.495 54.408 122.255 54.552C122.111 54.696 122.063 54.84 122.015 55.032C121.967 55.416 121.727 55.8 121.535 56.136C121.295 56.568 120.959 57.048 120.623 57.576C120.431 57.816 120.191 58.2 119.951 58.536C119.759 58.536 119.567 58.584 119.423 58.536C118.991 58.344 118.415 58.008 117.839 57.768C117.215 57.768 116.639 57.624 115.919 57.432C115.487 57.288 115.151 57.096 114.911 56.856C114.527 56.28 113.999 56.04 113.471 55.608C113.471 55.464 113.423 55.224 113.471 55.176C113.615 54.648 113.855 54.12 113.999 53.592C114.239 52.968 114.335 52.488 114.335 52.104C114.335 51.576 114.527 51.144 114.767 50.808C115.103 50.424 115.295 50.04 115.343 49.704C115.343 49.656 115.343 49.608 115.391 49.56C116.111 48.168 116.399 46.68 116.783 45.288C116.927 44.904 117.119 44.52 117.263 44.184C117.407 43.8 117.551 43.464 117.599 43.128C117.839 42.984 118.127 42.936 118.367 42.792C118.895 42.072 119.423 41.256 119.567 40.44C119.711 40.296 119.711 40.056 119.759 40.008C120.287 38.856 120.623 37.704 121.055 36.504C121.199 36.264 121.295 35.976 121.535 35.736C121.919 35.352 122.063 34.824 122.255 34.392C122.399 34.056 122.351 33.72 122.399 33.336C122.543 33.192 122.543 33 122.687 32.952C122.927 32.616 123.215 32.184 123.359 31.752C123.503 31.368 123.551 30.984 123.743 30.744C124.079 29.928 124.415 29.112 124.847 28.392C125.375 28.056 125.903 27.864 126.431 27.816C127.247 27.672 128.063 27.48 128.879 27.336C129.215 27.288 129.551 27.192 129.887 27.336C130.799 27.48 131.567 27.528 132.383 27.576C132.575 27.624 132.671 27.624 132.863 27.672C133.007 27.864 133.151 27.96 133.199 28.2C133.343 28.392 133.439 28.632 133.487 28.92C133.679 29.304 133.871 29.688 134.255 30.024C134.783 30.408 134.927 30.984 135.359 31.512C135.599 31.752 135.551 32.136 135.743 32.472C135.983 32.712 136.127 32.952 136.319 33.192C136.463 33.432 136.559 33.72 136.607 33.912C136.655 34.152 136.655 34.44 136.703 34.632C136.847 34.776 137.135 34.728 137.183 34.872C137.423 35.208 137.327 35.352 137.327 35.688C137.327 36.12 137.327 36.648 137.567 37.176C137.711 37.512 137.855 37.848 137.903 38.232C138.095 38.472 138.287 38.616 138.527 38.952C138.527 39 138.527 39.24 138.575 39.384C138.575 39.816 138.767 40.2 139.103 40.44C139.391 40.632 139.583 40.872 139.727 41.112C139.967 41.448 140.207 41.736 140.447 42.264C140.591 43.032 140.879 43.896 141.503 44.616C141.647 44.952 141.455 45.336 141.599 45.672C141.743 45.912 141.599 46.248 141.743 46.584C141.887 46.92 141.983 47.304 142.031 47.64C142.175 47.976 142.367 48.168 142.511 48.408C142.367 48.84 142.703 49.032 142.895 49.416C142.895 49.608 142.847 49.8 142.847 49.992V50.136C143.087 50.712 143.279 51.336 143.615 51.864C143.999 52.488 144.239 53.256 144.479 53.976C144.527 54.024 144.479 54.264 144.479 54.408ZM132.239 45.864C132.191 45.816 132.239 45.624 132.095 45.576C131.759 45.144 131.519 44.712 130.991 44.28C130.607 43.896 130.463 43.32 130.127 42.888C129.743 42.36 129.311 41.88 128.879 41.304C128.687 41.112 128.351 41.16 128.207 41.304C127.871 41.832 127.583 42.312 127.247 42.744C126.815 43.176 126.719 43.848 126.383 44.376C126.047 44.76 125.951 45.192 125.759 45.72C125.711 46.056 125.615 46.44 125.471 46.776C125.423 46.92 125.471 46.92 125.471 47.064C125.711 47.4 126.095 47.4 126.479 47.544C126.959 47.4 127.535 47.352 128.255 47.352C128.975 47.304 129.503 46.92 130.223 46.92C130.655 46.776 131.087 46.68 131.567 46.632C131.999 46.536 132.191 46.296 132.239 45.864ZM182.417 51.336C182.465 52.344 182.561 53.352 182.321 54.36C182.273 54.696 182.225 54.984 182.225 55.32C182.225 55.848 181.937 56.04 181.601 56.232C181.409 56.28 181.217 56.376 180.977 56.376C180.449 56.328 180.017 56.616 179.633 56.856C179.393 56.856 179.105 56.712 178.913 56.856C178.385 56.952 177.905 57.096 177.425 57.288C176.945 57.384 176.513 57.432 176.177 57.384C176.129 57.336 176.033 57.288 175.937 57.24C175.697 56.904 175.793 56.424 175.649 56.04C175.505 55.224 175.361 54.312 175.313 53.4C175.313 52.872 175.217 52.44 175.169 51.864C175.217 51.432 175.361 50.952 175.169 50.424C175.217 49.608 174.833 48.888 174.881 48.12C174.833 47.688 174.641 47.208 174.497 46.776C174.545 45.672 174.545 44.52 174.209 43.512C174.257 43.08 174.401 42.696 174.449 42.312C174.449 42.168 174.353 41.928 174.209 41.688C173.777 41.64 173.249 41.64 173.057 41.208C172.769 41.256 172.577 41.352 172.481 41.448C171.953 41.88 171.473 42.36 171.281 43.128C171.233 43.56 170.993 43.992 170.801 44.376C170.417 44.952 170.081 45.576 169.745 46.2C169.553 46.632 169.553 47.16 169.361 47.688C169.025 48.312 168.833 48.984 168.593 49.704C168.353 50.328 167.969 51 167.633 51.576C167.201 52.392 166.769 53.064 166.433 53.976C166.385 54.216 166.049 54.408 165.809 54.36C165.473 54.216 165.089 54.216 164.753 54.216C164.369 54.216 164.033 54.264 163.649 54.12H163.313C162.881 54.312 162.401 54.072 161.969 54.024C161.729 53.976 161.585 53.832 161.537 53.592C161.201 52.296 160.481 51.24 160.337 49.944C160.097 49.608 159.857 49.176 159.617 48.936L159.041 46.2C158.801 45.864 158.657 45.624 158.321 45.288C158.273 44.856 158.177 44.376 158.033 43.848C157.889 43.416 157.649 43.032 157.409 42.696C157.169 42.648 157.073 42.696 157.025 42.936C156.977 43.032 156.977 43.176 156.977 43.416C156.785 43.656 156.545 43.896 156.401 44.136C156.257 46.2 156.113 48.12 155.777 50.04C155.921 50.808 155.633 51.528 155.681 52.44C155.729 53.016 155.585 53.64 155.585 54.264C155.537 54.984 155.441 55.704 155.201 56.328C155.105 56.568 154.961 56.664 154.721 56.712C154.433 56.76 154.241 56.856 154.097 56.952C153.665 57.144 153.089 57.384 152.561 57.72C150.401 57.864 150.401 57.816 149.489 57.576C149.297 57.384 149.249 57.144 149.201 56.952C149.201 56.328 149.105 55.752 148.865 55.272C148.529 54.456 148.529 53.592 148.577 52.632C148.625 52.392 148.721 52.152 148.769 51.816C148.913 51.096 148.913 50.424 148.769 49.8C148.721 49.272 148.721 48.84 148.673 48.312C148.673 48.264 148.721 48.072 148.769 47.832C148.865 47.496 148.865 47.16 148.769 46.824C148.721 46.584 148.673 46.44 148.721 46.344C148.865 45.96 148.721 45.576 148.673 45.24C148.865 44.904 149.057 44.808 149.201 44.568C149.345 44.376 149.249 44.136 149.201 43.896C149.153 43.656 149.057 43.464 148.913 43.32C148.865 42.936 148.769 42.552 148.913 42.168C149.105 41.832 149.201 41.496 149.153 41.208C149.153 40.872 149.201 40.632 149.249 40.392C149.297 40.152 149.345 39.96 149.297 39.72C149.153 39 149.345 38.328 149.201 37.704C149.153 37.176 149.345 36.696 149.489 36.264C149.489 35.928 149.441 35.64 149.345 35.352C149.345 35.304 149.393 35.208 149.441 35.064C149.585 34.824 149.681 34.536 149.681 34.296C149.825 33.816 149.921 33.384 149.921 33C150.065 32.472 150.017 31.944 149.873 31.368C150.017 30.84 150.305 30.744 150.737 30.6C151.073 30.648 151.409 30.744 151.745 30.792C152.177 30.648 152.705 30.456 153.137 30.408C153.521 30.456 153.953 30.504 154.289 30.552C154.433 30.552 154.433 30.504 154.481 30.504C154.721 30.264 154.961 30.072 155.153 29.88C155.873 29.736 156.449 29.688 157.025 29.64C157.361 29.496 157.649 29.688 157.985 29.688C158.177 29.688 158.321 29.592 158.465 29.4C158.609 29.448 158.705 29.496 158.753 29.64C159.761 30.984 160.721 32.376 161.057 34.152C161.393 35.304 161.873 36.504 162.785 37.272C162.785 37.8 162.833 38.28 162.833 38.856C163.025 39.096 163.217 39.336 163.409 39.672C163.649 40.104 163.937 40.536 164.273 41.064C164.417 41.208 164.705 41.208 164.753 40.968C164.993 40.392 165.233 39.816 165.425 39.288C165.665 38.856 165.905 38.376 166.433 38.232C166.721 38.136 166.913 37.896 167.009 37.512C167.345 36.696 167.729 36.024 168.305 35.4C168.833 34.68 169.217 33.912 169.745 33.192C169.889 32.952 170.081 32.664 170.321 32.472C170.801 32.136 171.137 31.704 171.281 31.176C171.329 30.936 171.473 30.744 171.521 30.552C172.049 29.832 172.673 29.16 173.105 28.536C173.921 27.96 174.881 28.104 175.697 28.056C176.465 28.296 177.185 28.584 178.001 28.92C178.529 28.776 179.057 28.632 179.681 28.776C180.065 28.92 180.305 29.16 180.401 29.544C180.737 30.168 180.977 30.792 180.977 31.512C180.977 31.608 181.025 31.704 181.073 31.848C181.505 33 181.553 34.296 181.553 35.592C181.553 36.36 181.553 37.08 181.601 37.8C181.601 38.04 181.649 38.328 181.649 38.664C181.601 39.096 181.553 39.624 181.409 40.2C181.457 40.776 181.505 41.448 181.457 42.168C181.313 42.6 181.457 43.272 181.313 43.8C181.265 44.136 181.265 44.472 181.313 44.808C181.553 45.528 181.601 46.248 181.649 46.968C181.697 47.352 181.841 47.736 181.649 48.12V48.456C181.793 49.032 181.889 49.656 181.937 50.376C182.081 50.616 182.225 51 182.417 51.336ZM221.996 36.36C222.044 36.888 221.852 37.368 221.66 37.8C221.42 37.8 221.276 37.8 221.18 37.848C220.94 37.992 221.18 38.376 220.988 38.616C220.844 38.856 220.748 39.24 220.604 39.432C220.556 39.864 220.988 40.056 220.988 40.44C221.036 40.632 220.94 40.872 220.796 41.16C220.652 41.4 220.508 41.592 220.364 41.832C220.172 42.168 219.932 42.552 219.74 42.888C219.5 43.128 219.116 43.416 218.78 43.656C218.636 43.8 218.54 44.04 218.396 44.376C217.388 45.192 216.38 46.056 215.276 46.776C214.508 47.016 213.644 47.16 212.828 47.304C212.204 47.352 211.58 47.496 210.86 47.688C210.476 47.736 210.14 47.784 209.612 47.784C208.796 47.832 207.98 47.88 207.26 47.88C206.924 48.024 206.684 48.216 206.636 48.456C206.588 48.84 206.444 49.224 206.3 49.608C206.3 50.424 206.156 51.384 206.204 52.2C206.204 52.392 206.204 52.488 206.156 52.536C206.156 52.92 206.108 53.352 206.108 53.736C206.108 54.12 206.156 54.456 206.204 54.792C206.3 55.368 206.204 55.992 205.964 56.616C205.964 56.712 205.916 56.856 205.868 57.048C205.772 57.288 205.58 57.384 205.34 57.336C204.38 57 203.468 57 202.46 57.144H201.836C200.924 57.576 199.964 57.672 198.956 57.72C198.668 57.72 198.476 57.624 198.428 57.432C198.38 57.384 198.38 57.384 198.38 57.336C198.236 55.752 197.996 54.024 198.044 52.44C198.044 52.152 197.996 51.864 197.948 51.528C197.804 50.808 197.756 50.088 197.708 49.368C197.708 49.128 197.756 48.84 197.612 48.6C197.372 48.072 197.468 47.448 197.468 47.016C197.66 46.584 197.708 46.344 197.756 45.96C197.564 45.72 197.708 45.48 197.564 45.288C197.564 45.144 197.468 45.048 197.468 45C197.324 42.744 197.372 38.52 197.468 37.464C197.612 37.224 197.804 37.032 197.852 36.84C197.852 36.696 197.756 36.552 197.564 36.504L197.996 34.776C197.948 34.44 197.852 34.152 197.756 33.96C197.9 33.72 197.9 33.528 198.044 33.192C197.996 32.664 197.996 32.04 197.852 31.32C197.996 31.128 197.996 30.744 198.14 30.408C198.284 30.072 198.044 29.736 198.236 29.496C198.476 29.448 198.62 29.4 198.716 29.448C198.86 29.496 199.052 29.64 199.196 29.688H199.532C200.3 29.448 201.116 29.256 201.836 28.92C202.028 28.776 202.268 28.776 202.604 28.824C202.988 28.872 203.324 28.968 203.66 28.824C204.092 28.776 204.524 28.728 204.956 28.728C206.156 28.728 207.404 28.488 208.604 28.248C209.132 28.056 209.708 28.2 210.236 28.152C210.668 28.296 211.148 28.44 211.58 28.584C212.012 28.728 212.444 28.776 213.02 28.92C213.98 28.68 215.132 28.776 216.14 28.824C216.764 28.872 217.292 29.064 217.724 29.4C218.444 29.736 219.116 30.264 219.644 30.888C219.74 30.936 219.836 31.032 219.884 31.272C220.028 31.704 220.412 31.896 220.652 32.232C221.228 33.096 221.516 34.104 221.516 35.208C221.66 35.592 221.852 36.024 221.996 36.36ZM214.268 37.032C214.22 36.648 214.028 36.264 213.884 35.88C213.836 35.688 213.692 35.544 213.644 35.496C213.596 35.352 213.452 35.304 213.26 35.352C213.116 35.496 213.02 35.496 212.876 35.64C212.54 35.688 212.3 35.736 211.964 35.784H211.388C211.196 35.64 211.004 35.496 210.668 35.304C210.236 35.256 209.66 35.208 209.132 35.256C208.508 35.4 208.028 35.64 207.692 35.976C207.452 35.928 207.26 35.88 207.212 35.88C207.02 35.736 206.828 35.88 206.636 35.88C206.204 36.12 205.868 36.408 205.724 36.744C205.676 36.984 205.532 37.272 205.532 37.608C205.484 38.232 205.436 38.904 205.388 39.624C205.388 40.008 205.34 40.44 205.388 40.824C205.388 40.872 205.484 41.112 205.532 41.256C206.444 41.112 207.164 41.064 207.884 41.208C208.604 41.4 209.372 41.4 209.996 41.592C210.092 41.64 210.284 41.592 210.572 41.544C210.956 41.208 211.292 40.92 211.676 40.584C212.012 40.536 212.3 40.488 212.54 40.44C212.924 40.104 213.308 39.768 213.644 39.432C213.788 39 213.884 38.568 213.932 38.184C214.076 37.8 214.268 37.464 214.268 37.032ZM253.33 31.32C253.282 31.464 253.282 31.704 253.282 31.944C253.282 32.136 253.33 32.376 253.282 32.568C253.234 32.952 253.378 33.24 253.234 33.576C253.186 33.72 253.09 33.768 253.09 33.912C253.234 35.064 252.85 36.12 252.658 37.272L252.994 38.28C252.946 38.664 252.754 39.048 252.61 39.48C252.658 39.864 252.706 40.296 252.754 40.728C252.61 41.112 252.514 41.592 252.658 42.024C252.898 42.744 252.706 43.464 252.754 44.184C252.754 44.232 252.754 44.424 252.706 44.472C252.514 44.904 252.562 45.48 252.61 46.008C252.754 46.632 252.658 47.208 252.994 47.784C253.042 48.312 253.042 48.888 253.09 49.416C252.946 49.656 252.754 49.992 252.61 50.232C252.562 50.76 252.514 51.192 252.754 51.72C252.802 51.72 252.946 53.256 252.946 53.256C253.186 53.592 253.186 53.928 252.946 54.264C252.898 54.408 252.754 54.504 252.706 54.696C252.85 55.128 252.994 55.56 253.042 55.992C253.186 56.568 252.946 56.712 252.562 57.048C252.514 57.096 252.274 57.096 252.13 57.24C251.986 57.24 251.89 57.24 251.842 57.288C251.602 57.336 251.41 57.384 251.074 57.432L250.546 57.096C250.306 57.048 249.73 57.48 249.346 57.144C249.298 56.952 248.53 56.712 248.578 56.904V56.952C248.434 57 248.29 57.096 248.146 57.144C247.81 57.288 247.618 57.384 247.474 57.432C246.946 57.384 246.082 56.712 245.746 56.712C245.506 56.376 245.506 56.184 245.506 55.848C245.554 55.512 245.65 55.272 245.698 54.936C245.842 54.6 245.842 54.216 245.698 53.784C245.554 53.352 245.362 52.92 245.314 52.488C245.266 52.296 245.314 51.624 245.17 51.48C245.122 51.048 245.218 50.568 244.978 50.136C244.882 49.8 244.882 49.464 245.026 49.128C245.17 48.888 245.17 48.648 245.218 48.504C245.266 48.072 245.266 47.784 245.122 47.64C244.738 47.064 244.402 46.68 244.114 46.44C243.682 46.392 243.154 46.296 242.626 46.296C242.578 46.296 242.434 46.248 242.098 46.2C241.138 46.008 240.37 46.344 239.266 46.392C238.93 46.392 238.594 46.248 238.258 46.008C238.21 46.056 237.97 46.152 237.826 46.296C237.49 46.104 237.106 45.96 236.722 45.864C236.338 45.72 235.954 45.72 235.426 45.672C235.186 45.72 234.994 45.96 234.946 46.344V46.776C235.09 47.688 235.042 48.504 234.706 49.224C234.706 49.464 234.706 49.608 234.658 49.704C234.85 49.944 234.946 50.28 235.09 50.52C234.994 50.856 234.85 51.192 234.658 51.528C234.706 51.96 234.754 52.44 234.802 52.872C234.85 53.016 234.946 53.16 234.994 53.304C235.33 53.832 235.282 54.36 234.85 54.84C234.802 54.888 234.85 54.936 234.706 55.08C234.706 55.32 234.706 55.656 234.658 56.04C234.658 56.184 234.61 56.328 234.514 56.52L234.274 56.76C233.842 56.904 233.41 57 233.074 57.144C232.066 57.288 231.538 57.096 230.53 56.712C230.194 56.76 229.81 56.808 229.426 56.808C229.09 56.808 228.706 56.76 228.274 56.664C227.938 56.52 227.506 56.232 227.074 55.992C226.642 55.8 226.21 55.608 225.826 55.464C225.73 55.224 225.73 54.936 225.778 54.696C225.97 54.12 226.354 52.824 226.354 52.248C226.21 52.104 226.258 51.912 226.402 51.624C226.642 51.096 226.45 50.52 226.498 49.992C226.258 49.08 226.45 48.12 226.594 47.304C226.642 46.776 226.882 46.44 226.738 46.056C226.882 45.528 227.314 45.336 227.314 44.952C227.362 44.424 227.122 44.136 227.074 43.704C227.074 43.512 227.122 43.176 227.122 42.936C227.122 42.552 227.122 42.312 227.17 42.168C227.314 41.64 227.026 41.16 227.074 40.584C227.074 40.44 226.978 40.344 226.93 40.152C226.882 39.624 226.978 39.048 226.978 38.52C226.978 37.944 226.882 37.416 226.93 36.984C226.93 36.84 226.978 36.84 226.978 36.792C227.122 36.744 227.314 36.84 227.362 36.792C227.698 36.072 227.314 35.4 227.266 34.776C227.458 34.44 227.458 33.816 227.266 33.768C227.266 33.336 227.218 32.856 227.17 32.424C227.122 31.896 226.93 31.512 226.978 30.984C227.122 30.6 227.218 30.216 227.458 29.832C227.698 29.784 228.082 29.736 228.418 29.544C228.754 29.4 228.898 29.16 229.138 29.112C229.666 29.064 230.05 29.352 230.434 29.4C231.346 29.448 231.682 29.304 232.45 28.728C232.786 28.92 233.17 29.112 233.41 29.304C233.698 29.448 233.938 29.544 234.178 29.688C234.418 29.832 234.562 30.072 234.562 30.408C234.61 30.84 234.61 31.224 234.658 31.608C234.658 32.136 234.658 32.616 234.85 33.144C234.898 33.384 234.898 33.672 234.946 33.912C234.994 34.728 235.042 36.504 234.706 37.272C234.658 37.32 234.658 37.464 234.658 37.608C234.994 38.04 235.426 37.752 235.81 37.752C236.53 38.088 236.722 38.472 237.442 38.856C238.162 38.52 238.69 38.712 239.458 38.472H241.714C242.53 38.472 243.346 38.376 244.162 38.184C244.498 38.04 244.786 38.04 245.026 37.992C245.17 37.944 245.314 37.848 245.362 37.8C245.506 37.368 245.17 36.072 245.17 35.688C245.122 35.352 244.978 34.968 244.978 34.632C245.122 33.912 244.93 33.288 244.93 32.664C244.93 32.328 244.882 31.944 244.834 31.608C244.642 30.984 244.642 30.264 244.786 29.448C245.314 29.016 245.986 28.728 246.754 28.632C247.474 28.44 248.146 28.68 248.77 28.824C249.106 28.68 249.442 28.536 249.97 28.296C250.69 28.296 250.738 28.296 251.506 28.248C252.034 28.248 252.13 28.104 252.706 28.056C252.754 28.104 253.09 28.728 253.09 28.968C253.042 29.016 253.282 29.832 253.234 30.264C253.234 30.648 253.33 30.984 253.33 31.32ZM276.723 19.032C276.963 19.464 276.915 19.896 276.579 20.28C275.955 21 275.235 21.624 274.515 22.152C274.035 22.488 273.651 22.824 273.315 23.208L272.499 23.544C272.115 24.12 271.683 24.648 271.155 25.032C270.771 25.224 270.579 24.984 270.339 24.984C269.763 24.984 269.235 24.792 268.803 24.36C268.611 24.216 268.419 24.216 268.227 24.168C268.227 23.304 268.179 23.304 268.467 22.488C269.043 21.912 269.523 21.24 269.955 20.808C270.291 20.04 270.579 19.368 270.915 18.744C271.155 18.216 271.539 17.64 271.875 17.208C272.595 17.208 273.507 17.304 274.083 17.64C274.995 17.88 275.763 18.12 276.531 18.696C276.627 18.744 276.675 18.888 276.723 19.032ZM288.339 54.408L287.331 55.416C287.235 55.512 287.091 55.608 286.947 55.656C286.323 56.088 285.699 56.424 285.123 56.76C284.787 56.952 284.547 57.096 284.211 57.288C283.107 57.912 283.155 57.864 282.339 58.824C281.811 58.968 281.619 58.68 281.283 58.344C281.235 57.816 281.091 57.336 280.947 56.76C280.563 56.328 280.323 55.656 279.795 55.224C279.459 55.032 279.363 54.552 279.171 54.168C278.931 53.64 278.547 53.256 278.115 52.872C278.067 52.728 277.875 52.728 277.731 52.68C277.491 52.584 277.395 52.44 277.347 52.2L277.299 52.152C276.963 52.104 276.579 52.008 276.243 51.96C275.811 51.816 275.619 51.912 275.427 52.488H275.475L275.427 52.536V52.488C275.091 52.68 274.707 52.776 274.275 52.728H272.595C272.595 52.728 272.403 52.632 272.019 52.488C271.587 52.296 271.443 52.296 271.299 52.872C271.155 53.064 271.011 53.064 270.819 53.208C270.243 53.064 269.619 52.872 269.043 52.824C268.707 52.68 268.323 52.728 267.987 52.728C267.747 52.68 267.507 52.728 267.363 52.728C267.123 52.824 266.979 52.92 266.883 53.064L266.595 53.64C266.499 54.12 266.355 54.408 266.115 54.552C265.971 54.696 265.923 54.84 265.875 55.032C265.827 55.416 265.587 55.8 265.395 56.136C265.155 56.568 264.819 57.048 264.483 57.576C264.291 57.816 264.051 58.2 263.811 58.536C263.619 58.536 263.427 58.584 263.283 58.536C262.851 58.344 262.275 58.008 261.699 57.768C261.075 57.768 260.499 57.624 259.779 57.432C259.347 57.288 259.011 57.096 258.771 56.856C258.387 56.28 257.859 56.04 257.331 55.608C257.331 55.464 257.283 55.224 257.331 55.176C257.475 54.648 257.715 54.12 257.859 53.592C258.099 52.968 258.195 52.488 258.195 52.104C258.195 51.576 258.387 51.144 258.627 50.808C258.963 50.424 259.155 50.04 259.203 49.704C259.203 49.656 259.203 49.608 259.251 49.56C259.971 48.168 260.259 46.68 260.643 45.288C260.787 44.904 260.979 44.52 261.123 44.184C261.267 43.8 261.411 43.464 261.459 43.128C261.699 42.984 261.987 42.936 262.227 42.792C262.755 42.072 263.283 41.256 263.427 40.44C263.571 40.296 263.571 40.056 263.619 40.008C264.147 38.856 264.483 37.704 264.915 36.504C265.059 36.264 265.155 35.976 265.395 35.736C265.779 35.352 265.923 34.824 266.115 34.392C266.259 34.056 266.211 33.72 266.259 33.336C266.403 33.192 266.403 33 266.547 32.952C266.787 32.616 267.075 32.184 267.219 31.752C267.363 31.368 267.411 30.984 267.603 30.744C267.939 29.928 268.275 29.112 268.707 28.392C269.235 28.056 269.763 27.864 270.291 27.816C271.107 27.672 271.923 27.48 272.739 27.336C273.075 27.288 273.411 27.192 273.747 27.336C274.659 27.48 275.427 27.528 276.243 27.576C276.435 27.624 276.531 27.624 276.723 27.672C276.867 27.864 277.011 27.96 277.059 28.2C277.203 28.392 277.299 28.632 277.347 28.92C277.539 29.304 277.731 29.688 278.115 30.024C278.643 30.408 278.787 30.984 279.219 31.512C279.459 31.752 279.411 32.136 279.603 32.472C279.843 32.712 279.987 32.952 280.179 33.192C280.323 33.432 280.419 33.72 280.467 33.912C280.515 34.152 280.515 34.44 280.563 34.632C280.707 34.776 280.995 34.728 281.043 34.872C281.283 35.208 281.187 35.352 281.187 35.688C281.187 36.12 281.187 36.648 281.427 37.176C281.571 37.512 281.715 37.848 281.763 38.232C281.955 38.472 282.147 38.616 282.387 38.952C282.387 39 282.387 39.24 282.435 39.384C282.435 39.816 282.627 40.2 282.963 40.44C283.251 40.632 283.443 40.872 283.587 41.112C283.827 41.448 284.067 41.736 284.307 42.264C284.451 43.032 284.739 43.896 285.363 44.616C285.507 44.952 285.315 45.336 285.459 45.672C285.603 45.912 285.459 46.248 285.603 46.584C285.747 46.92 285.843 47.304 285.891 47.64C286.035 47.976 286.227 48.168 286.371 48.408C286.227 48.84 286.563 49.032 286.755 49.416C286.755 49.608 286.707 49.8 286.707 49.992V50.136C286.947 50.712 287.139 51.336 287.475 51.864C287.859 52.488 288.099 53.256 288.339 53.976C288.387 54.024 288.339 54.264 288.339 54.408ZM276.099 45.864C276.051 45.816 276.099 45.624 275.955 45.576C275.619 45.144 275.379 44.712 274.851 44.28C274.467 43.896 274.323 43.32 273.987 42.888C273.603 42.36 273.171 41.88 272.739 41.304C272.547 41.112 272.211 41.16 272.067 41.304C271.731 41.832 271.443 42.312 271.107 42.744C270.675 43.176 270.579 43.848 270.243 44.376C269.907 44.76 269.811 45.192 269.619 45.72C269.571 46.056 269.475 46.44 269.331 46.776C269.283 46.92 269.331 46.92 269.331 47.064C269.571 47.4 269.955 47.4 270.339 47.544C270.819 47.4 271.395 47.352 272.115 47.352C272.835 47.304 273.363 46.92 274.083 46.92C274.515 46.776 274.947 46.68 275.427 46.632C275.859 46.536 276.051 46.296 276.099 45.864ZM331.435 30.984C331.195 31.704 331.339 32.376 331.387 33.096V33.336C331.339 33.672 331.195 34.056 331.051 34.44C331.243 35.544 331.195 36.6 331.195 37.608C331.195 38.136 331.147 38.616 331.195 39.048C331.195 39.48 331.291 39.912 331.339 40.44C331.195 41.064 331.195 41.928 330.859 42.696C330.859 43.464 330.475 44.232 330.667 45C330.619 45.624 330.571 46.248 330.523 46.968C330.475 47.544 330.379 48.12 330.523 48.696C330.523 48.984 330.475 49.32 330.379 49.656C330.235 50.088 330.187 50.424 330.283 50.712C330.235 51.912 330.187 53.256 329.755 54.456C329.707 54.552 329.707 54.696 329.707 54.936C329.707 55.128 329.707 55.224 329.755 55.272L329.419 55.608C328.891 55.656 328.459 55.752 327.931 55.8C327.739 55.848 327.547 56.04 327.163 56.28C326.251 56.52 325.387 56.664 324.475 56.856C324.043 56.712 323.707 56.76 323.371 56.712C323.131 56.664 322.843 56.616 322.507 56.568C322.363 56.616 322.171 56.712 322.027 56.76L321.547 56.328C321.307 55.8 321.403 55.368 321.355 54.936C321.115 54.552 320.683 54.504 320.347 54.264C319.915 53.736 319.771 53.112 319.243 52.68C318.811 52.296 318.571 51.72 318.139 51.336C317.707 50.424 317.179 49.416 316.555 48.6C316.171 48.264 315.835 47.832 315.451 47.448C315.403 47.016 315.067 46.728 314.827 46.344C314.299 45.432 313.531 44.76 312.955 43.848C312.811 43.896 312.667 43.848 312.619 43.992C312.427 44.28 312.331 44.664 312.331 45.096C312.331 45.288 312.475 45.48 312.331 45.672C312.187 45.816 311.995 45.912 311.803 46.056C311.563 46.68 311.755 47.4 311.611 48.12C311.563 48.744 311.563 49.512 311.563 50.136L311.083 51C310.843 51.912 310.987 52.776 311.323 53.688C311.179 53.928 311.131 54.12 311.083 54.456C311.035 54.888 310.939 55.368 310.987 55.896C311.035 56.52 310.747 57 310.027 57.24C309.931 57.24 309.835 57.24 309.739 57.288C309.163 56.952 308.443 57 307.723 56.664C307.099 56.328 306.427 56.376 305.851 56.376C305.515 56.232 305.179 55.944 304.843 55.896C304.507 55.752 304.219 55.752 303.883 55.608C303.835 55.464 303.787 55.224 303.739 55.176C303.691 54.072 303.739 53.112 303.691 52.152C303.691 51.432 303.739 50.76 303.739 50.04V49.56C303.691 49.224 303.403 48.888 303.451 48.504C303.499 48.12 303.499 47.736 303.499 47.4C303.643 47.016 303.451 46.632 303.451 46.296C303.595 45.672 303.739 45 304.075 44.472V39.48C304.075 39.336 304.075 39.24 304.027 39.192C303.883 38.808 303.787 38.52 303.835 38.28L303.979 37.272C303.835 36.84 303.739 36.36 303.595 35.928C303.739 35.544 303.451 35.064 303.499 34.632C303.643 34.248 304.075 34.008 304.123 33.576C304.075 33.048 303.499 32.616 303.499 31.992C303.643 31.752 303.787 31.608 303.979 31.56C304.699 31.416 305.275 31.128 305.851 30.744C305.899 30.696 306.043 30.648 306.235 30.6C306.475 30.648 306.763 30.744 307.147 30.792C307.579 30.648 308.155 30.552 308.827 30.552C309.355 30.552 309.787 30.456 310.411 30.408C310.747 30.456 311.083 30.552 311.467 30.6C311.995 30.84 312.427 31.176 312.619 31.704C313.003 32.616 313.675 33.336 314.011 34.152C314.347 34.392 314.731 34.536 314.923 34.872C315.451 35.4 316.123 35.736 316.747 36.072C317.323 36.84 317.707 37.656 318.427 38.184C318.667 38.712 318.859 39.24 319.051 39.624C319.291 40.008 319.723 39.96 319.963 40.008C320.107 40.056 320.203 40.104 320.251 40.152C320.779 40.584 321.019 41.16 321.355 41.784C321.691 41.976 321.883 42.216 322.219 42.408C322.363 42.456 322.555 42.408 322.603 42.408C322.939 41.976 323.179 41.592 323.131 41.064C323.083 40.872 323.179 40.68 323.179 40.44C323.323 39.672 323.563 38.904 323.611 38.088C323.659 37.512 323.803 36.888 323.659 36.36C323.707 35.352 323.611 34.44 323.563 33.48C323.515 32.088 323.611 30.744 323.995 29.352C323.995 29.304 324.043 29.304 324.043 29.256C324.283 28.92 324.619 28.92 324.859 28.728C325.195 28.584 325.483 28.536 325.819 28.68C326.011 28.824 326.203 29.016 326.443 29.16C326.587 29.16 326.635 29.256 326.779 29.256H328.363C328.795 29.304 329.275 29.352 329.707 29.688C329.851 29.736 329.947 29.688 329.995 29.736C330.331 29.592 330.571 29.4 330.907 29.352C330.955 29.4 331.099 29.496 331.243 29.688C331.483 30.072 331.627 30.552 331.435 30.984ZM360.429 46.92C360.381 47.16 360.189 47.736 360.045 48.312C359.997 48.648 359.949 48.84 359.949 48.984C359.901 49.32 359.901 49.608 359.901 49.8C359.469 50.616 358.989 51.384 358.797 52.296C358.557 53.304 357.885 54.12 357.357 55.032C357.117 55.272 356.925 55.512 356.733 55.752C355.965 55.992 355.341 56.376 354.861 56.856C354.813 56.904 354.669 57 354.477 57.048C353.757 57.288 353.085 57.624 352.365 57.96L351.069 57.768C350.637 57.816 350.157 58.008 349.773 58.152C349.533 58.104 349.389 58.008 349.245 57.816C349.053 57.672 348.909 57.432 348.573 57.576C348.189 57.624 347.997 57.288 347.661 57.144C347.469 57.192 347.373 57.24 347.037 57.288L346.269 57.096C345.981 57.096 345.693 57.144 345.453 57.24C345.117 57.096 344.829 56.856 344.397 56.856C343.965 56.856 343.533 56.616 343.101 56.568C342.717 56.52 342.381 56.424 342.045 56.376C341.805 56.232 341.709 56.04 341.565 55.848C341.373 55.8 341.277 55.752 341.277 55.752C341.133 55.56 340.845 55.464 340.509 55.416C340.077 55.224 339.789 54.888 339.453 54.648C339.021 54.12 338.733 53.64 338.205 53.208L337.965 52.728C337.629 52.344 337.533 52.104 337.005 51.864H336.429C336.381 51.864 336.285 51.672 336.333 51.624C336.381 51.384 336.477 51.048 336.525 50.808C336.525 50.472 336.333 50.28 336.189 49.944C336.141 48.6 335.709 47.4 335.325 46.104V44.712C335.517 44.52 335.661 44.232 335.805 44.04C335.757 43.704 335.709 43.416 335.757 43.08C335.757 42.696 335.661 42.264 335.613 41.832C335.613 41.784 335.709 41.496 335.709 41.256C335.757 41.016 335.805 40.776 335.757 40.584C335.613 40.056 335.757 39.624 335.805 39.048C335.949 38.616 336.093 38.184 336.045 37.752C336.045 37.56 336.093 37.416 336.141 37.368C336.477 36.984 336.477 36.504 336.525 36.12C336.861 35.544 337.245 34.872 337.821 34.44C338.013 34.2 338.205 33.912 338.397 33.72C338.925 33.192 339.405 32.568 339.741 31.848C339.981 31.656 340.221 31.56 340.461 31.368C340.509 31.272 340.557 31.224 340.653 31.176C340.797 30.552 341.229 30.12 341.901 29.928C341.997 29.928 342.189 29.88 342.525 29.832C342.717 29.688 343.053 29.448 343.293 29.304C343.485 29.064 343.821 28.92 344.157 28.776C344.541 28.728 344.829 28.44 345.165 28.296C345.597 28.248 345.933 28.248 346.173 28.344C346.413 28.44 346.701 28.488 346.941 28.488C347.325 28.488 347.661 28.392 347.949 28.2C348.381 27.96 348.909 28.056 349.245 27.72C349.581 27.864 349.917 27.912 350.253 28.056L351.213 28.248C352.077 28.392 355.101 29.496 355.581 29.88C355.917 30.024 356.157 30.072 356.349 30.216C356.541 30.456 356.685 30.744 356.925 30.984C357.069 31.128 357.261 31.176 357.453 31.32C357.885 31.56 358.221 31.896 358.221 32.424C358.221 32.664 358.557 32.808 358.605 33.144C358.461 33.48 358.365 33.72 358.221 34.056C358.077 34.488 357.837 34.776 357.453 35.016C357.405 35.064 357.357 35.16 357.309 35.304C357.453 36.024 357.021 36.456 356.589 36.984C356.589 37.224 356.685 37.512 356.349 37.56C356.301 37.512 355.917 37.704 355.869 37.848C355.821 38.088 355.437 38.232 355.245 38.088C355.101 37.896 354.909 37.8 354.573 37.8L354.525 37.752C354.477 37.704 354.381 37.56 354.333 37.56C354.093 37.512 353.901 37.464 353.853 37.464C353.373 37.464 352.989 37.224 352.653 36.696C352.605 36.648 352.605 36.6 352.461 36.456C351.645 36.12 350.925 35.736 350.013 35.592C349.389 35.64 348.861 35.544 348.141 35.784L347.517 36.408C347.085 36.6 346.653 36.648 346.269 36.792C345.933 37.032 345.549 37.032 345.165 37.368C345.069 37.416 344.925 37.56 344.781 37.848V38.376C344.589 38.472 344.397 38.52 344.253 38.52C344.109 38.76 344.109 39 344.109 39.24C344.109 39.72 344.061 40.152 343.917 40.488C343.869 40.92 343.821 41.448 343.677 41.976C343.629 42.024 343.677 42.216 343.677 42.36C343.725 42.504 343.773 42.6 343.725 42.648C343.677 43.08 343.533 43.608 343.677 44.04C343.821 44.472 343.869 44.904 343.917 45.432C344.061 45.672 344.061 45.912 344.109 46.248C344.301 46.488 344.445 46.68 344.541 46.776C344.493 47.016 344.493 47.304 344.445 47.64C344.493 48.168 344.925 48.504 345.117 49.032C345.453 49.272 345.885 49.368 346.077 49.752C346.653 50.184 347.133 50.568 347.517 50.952C347.757 51 347.997 51.048 348.237 51.192C348.957 51.048 349.629 50.952 350.397 50.76C350.589 50.76 350.781 50.808 351.021 50.856C351.213 50.856 351.501 50.856 351.549 50.712C351.789 50.52 351.933 50.28 352.173 50.088C352.365 49.944 352.557 49.896 352.701 49.752C353.085 49.32 353.325 48.84 353.565 48.408C353.565 48.072 353.469 47.688 353.325 47.304C353.277 47.016 353.037 46.824 352.701 46.776C352.413 46.728 352.221 46.68 352.173 46.728C351.261 46.968 350.397 46.776 349.581 46.92C349.389 46.776 349.197 46.728 349.053 46.68C348.957 46.536 348.957 46.44 349.005 46.392C349.197 45.96 349.341 45.576 349.293 45.144C349.293 44.136 349.533 43.176 349.725 42.264C349.917 41.928 350.205 41.784 350.589 41.784C351.213 41.64 351.885 41.544 352.461 41.208C353.037 41.16 353.613 41.16 354.141 41.4C354.957 41.448 355.773 41.592 356.589 41.544C356.829 41.592 356.925 41.688 356.973 41.784C357.117 41.64 357.213 41.592 357.405 41.448C357.741 41.592 358.077 41.784 358.317 41.928C358.461 41.976 358.701 41.976 358.893 42.024C359.421 42.264 359.901 42.744 360.333 42.888C360.909 43.464 360.717 44.04 360.333 44.472C360.333 44.856 360.285 45.24 360.333 45.624C360.381 45.864 360.573 46.2 360.429 46.92ZM391.035 54.936C391.083 55.08 391.035 55.32 390.891 55.608C390.459 55.656 389.931 55.56 389.307 55.416C387.963 55.944 388.539 55.8 387.291 55.8C387.099 55.848 386.955 55.992 386.715 56.136C386.571 56.28 385.035 56.232 384.747 56.232C384.363 55.848 384.363 55.848 384.171 55.128C384.123 54.888 383.979 54.696 383.739 54.456C383.115 53.736 382.347 52.296 381.963 51.48L381.723 51.24C381.579 51.24 381.483 51.288 381.435 51.336C381.147 51.528 380.859 51.624 380.571 51.624C380.379 51.624 380.187 51.576 379.995 51.48C379.419 51.336 378.891 51.384 378.315 51.384C377.883 51.336 377.451 51.432 376.923 51.432C376.539 51.432 376.107 51.384 375.723 51.384C375.195 51.432 374.667 51.576 374.139 51.816C373.707 52.056 373.227 52.104 372.699 52.152C372.171 52.152 370.443 52.44 370.059 52.92C370.059 53.256 370.011 53.592 370.011 53.976C369.963 54.216 369.867 54.504 369.819 54.888C369.579 55.8 368.955 56.376 368.379 57C368.139 57 367.899 56.952 367.659 56.952C367.515 56.952 367.323 57 366.987 57.048C366.651 57.096 366.267 57.048 365.883 56.904H365.691H365.451L365.355 56.856C365.307 56.712 365.259 56.808 364.923 56.76C364.683 56.712 364.491 56.664 364.395 56.664C364.155 56.664 364.011 56.664 363.675 56.616C363.531 56.568 363.291 56.568 362.955 56.424C362.763 56.376 362.715 56.424 362.523 56.376L362.379 56.328H362.283L362.187 56.28C362.331 55.368 362.427 54.504 362.859 53.688C363.003 53.448 363.051 53.256 363.051 53.016L363.195 52.2C363.387 51.864 363.579 51.432 363.771 51.192C363.915 50.808 363.675 50.424 363.915 50.088C364.107 49.752 364.059 49.416 364.299 49.224C364.539 48.696 364.779 48.264 364.923 47.736C364.971 47.688 364.971 47.64 364.971 47.544C365.067 46.92 365.355 46.344 365.787 45.816C365.739 45.576 365.739 45.336 365.739 45.192C365.883 44.808 366.267 44.472 366.507 44.232C366.843 43.848 367.131 43.464 367.179 43.032C367.419 42.072 367.899 41.256 368.523 40.488C368.907 39.96 369.147 39.336 369.483 38.712C369.723 38.184 370.011 37.608 370.059 37.032C370.827 36.024 370.779 36.12 371.163 34.536C371.307 34.392 371.595 34.344 371.643 34.104C371.643 33.96 371.739 33.864 371.883 33.816C372.123 33.672 372.315 33.432 372.411 33.144C372.603 32.616 372.987 32.232 373.323 31.848C373.467 31.704 373.563 31.56 373.611 31.368C373.947 30.456 374.571 29.784 374.955 29.016C375.291 28.776 375.531 28.776 375.771 28.776H375.915C376.635 29.112 377.259 29.112 378.027 29.112C378.267 29.112 378.459 29.112 378.603 29.16C379.419 29.4 380.379 29.352 381.195 29.4C382.299 30.168 383.067 30.6 383.499 32.328C383.547 32.376 383.739 32.424 383.787 32.568C383.931 32.616 384.075 32.664 384.171 32.808C384.315 33.048 384.363 33.336 384.507 33.672C384.651 33.912 384.843 34.2 385.083 34.536C385.227 35.16 385.611 35.784 385.563 36.6L385.899 37.08C385.899 37.416 385.947 37.752 385.947 38.136C386.283 38.328 386.235 38.664 386.283 39.048C386.475 39.288 386.667 39.624 386.859 39.864C387.003 40.296 387.147 40.728 387.195 41.112C387.147 41.352 387.099 41.64 387.051 41.88C387.195 42.504 387.579 42.936 387.915 43.464C388.251 44.664 388.539 45.912 388.683 47.208C389.403 48.12 389.403 49.128 389.643 50.232C389.787 50.664 389.739 51.096 389.787 51.528C389.931 51.912 390.507 52.632 390.747 52.968C390.747 53.592 390.795 54.312 391.035 54.936ZM379.467 44.808C379.419 44.376 378.987 44.04 379.131 43.608C378.891 43.176 378.891 42.312 379.035 42.264C378.987 42.216 378.987 42.12 378.987 41.976C378.747 41.64 378.507 41.448 378.315 41.112C378.315 41.16 378.267 41.112 378.123 40.968C377.979 40.92 377.835 40.824 377.739 40.68C377.691 40.488 377.595 40.248 377.403 40.2C377.163 40.2 377.067 40.392 376.827 40.536C376.587 40.584 376.347 40.68 376.107 40.728C375.867 40.92 375.723 41.16 375.675 41.496V42.072C375.435 42.504 375.099 42.792 374.955 43.176C374.859 43.656 374.715 44.04 374.523 44.376C374.523 44.808 374.283 45.144 374.139 45.528C374.091 45.576 374.091 45.672 374.091 45.816C374.091 46.008 374.187 46.104 374.427 46.104C374.667 46.104 374.955 46.056 375.195 46.056C375.339 46.104 375.531 46.248 375.675 46.296C376.587 46.152 377.499 45.912 378.315 45.576C378.699 45.24 379.227 45.24 379.467 44.808ZM415.754 33.048C415.706 33.288 415.61 33.528 415.466 33.72C415.13 34.152 414.986 34.632 414.842 35.064C414.458 35.496 413.978 35.592 413.546 35.784C413.018 36.168 412.922 36.792 412.586 37.224C412.202 37.464 411.866 37.704 411.53 37.896L410.57 38.568C410.378 38.568 410.234 38.616 410.042 38.616C409.61 39.048 409.178 39.624 408.842 40.152C408.65 40.536 408.266 40.776 408.074 41.112C408.026 41.16 408.026 41.304 408.026 41.544C407.402 41.784 406.778 42.024 406.25 42.36C405.866 42.984 406.01 43.656 405.962 44.376C405.914 44.904 405.53 45.096 405.578 45.672C405.626 45.72 405.578 46.104 405.77 46.248C405.914 46.392 405.914 46.776 405.914 47.112C405.962 47.448 406.202 47.592 406.058 47.928C406.01 48.168 406.01 48.456 406.01 48.648C406.058 49.464 406.154 50.328 406.01 51.144C406.01 51.384 406.154 51.72 406.202 52.056C406.346 52.44 406.25 52.728 406.25 53.112C406.298 53.352 406.346 53.688 406.394 54.024C406.538 54.264 406.538 54.648 406.538 54.888C406.538 55.128 406.634 55.272 406.682 55.512C406.538 55.656 406.346 55.848 406.202 56.04C406.01 56.28 405.962 56.52 405.818 56.664C405.578 56.904 405.242 56.856 404.906 56.904C404.666 56.952 404.378 56.952 404.186 56.952C403.658 57.144 403.61 57.24 403.37 57.576C402.938 57.576 402.842 57.432 402.506 57.384C402.17 57.24 401.882 57.432 401.546 57.48C401.114 57.48 400.634 57.48 400.25 57.24C400.01 57.048 399.77 57 399.53 56.952C399.29 56.952 399.146 56.904 398.906 56.904C398.858 56.52 398.666 56.184 398.666 55.8C398.666 54.888 398.426 54.168 398.186 53.4C398.234 53.064 398.282 52.872 398.234 52.824C398.09 52.296 398.426 51.864 398.186 51.432C397.946 50.28 398.042 49.08 398.042 47.88C398.042 47.736 398.138 47.496 398.186 47.304C398.138 46.392 398.042 45.576 397.706 44.808C397.754 44.472 397.754 44.28 397.802 44.136C398.138 43.32 397.946 42.504 397.61 41.688C397.562 41.352 397.418 41.064 397.226 40.68C397.082 40.536 396.986 40.296 396.746 40.104C396.41 39.768 395.978 39.48 395.642 39.096C395.306 38.76 394.97 38.472 394.634 38.136C394.298 37.8 393.962 37.752 393.626 37.512C393.386 36.984 393.194 36.504 392.954 35.928C391.994 35.208 390.938 34.488 390.314 33.144C390.458 32.568 390.746 31.992 391.13 31.368C391.754 30.744 392.33 30.072 392.81 29.4C393.146 29.448 393.386 29.448 393.626 29.496C393.77 29.352 393.866 29.352 393.914 29.16C394.106 29.016 394.25 28.728 394.298 28.536C394.538 28.296 394.73 28.2 394.97 28.344C395.738 28.68 396.506 29.016 397.418 29.4C397.754 29.736 398.09 30.072 398.33 30.408C398.714 30.84 399.338 31.176 399.578 31.752C400.01 32.088 400.49 32.424 401.018 32.808C401.21 33.144 401.546 33.576 401.93 34.152C402.122 34.296 402.506 34.584 402.746 34.776C403.178 34.968 403.562 35.16 403.946 35.304C404.186 35.352 404.378 35.352 404.522 35.256C404.906 35.016 405.338 34.776 405.77 34.632C405.914 34.632 406.01 34.44 406.154 34.392C406.346 34.152 406.634 33.912 406.874 33.576C407.114 33.144 407.498 32.808 407.978 32.568C408.218 32.376 408.506 32.28 408.746 32.136C409.274 31.416 409.706 30.792 410.09 30.072C410.282 29.832 410.426 29.688 410.474 29.64C411.002 29.4 411.146 28.92 411.53 28.68C411.866 28.584 412.154 28.68 412.394 28.968C412.538 29.16 412.778 29.448 413.018 29.88C413.738 30.216 414.65 31.032 414.794 31.848C415.226 32.088 415.514 32.328 415.754 32.568C415.754 32.712 415.802 32.856 415.754 33.048Z" fill="white"/>
</g>
<defs>
<filter id="filter0_d_9_374" x="0" y="3" width="467" height="82" filterUnits="userSpaceOnUse" color-interpolation-filters="sRGB">
<feFlood flood-opacity="0" result="BackgroundImageFix"/>
<feColorMatrix in="SourceAlpha" type="matrix" values="0 0 0 0 0 0 0 0 0 0 0 0 0 0 0 0 0 0 127 0" result="hardAlpha"/>
<feOffset dy="4"/>
<feGaussianBlur stdDeviation="2"/>
<feComposite in2="hardAlpha" operator="out"/>
<feColorMatrix type="matrix" values="0 0 0 0 0 0 0 0 0 0 0 0 0 0 0 0 0 0 0.25 0"/>
<feBlend mode="normal" in2="BackgroundImageFix" result="effect1_dropShadow_9_374"/>
<feBlend mode="normal" in="SourceGraphic" in2="effect1_dropShadow_9_374" result="shape"/>
</filter>
</defs>
</svg>
