<svg width="70" height="70" viewBox="0 0 70 70" fill="none" xmlns="http://www.w3.org/2000/svg">
<circle cx="34.9996" cy="35" r="35" fill="#002855"/>
<g clip-path="url(#clip0_9_454)">
<path d="M23.7301 33.357L23.5406 33.123L25.0228 29.4231C25.9143 32.12 28.4998 35.5524 31.375 38.4276C32.6231 39.6758 33.8936 40.7902 35.1194 41.7263C33.6819 41.0911 32.2888 40.3332 30.9515 39.4863C28.2658 37.7924 25.8363 35.7307 23.7301 33.357ZM17.4893 48.2234L17.2106 48.9255C16.2857 51.2323 18.5703 53.5169 20.8771 52.5919L22.7494 51.8452C22.2702 51.5666 21.7798 51.2769 21.3118 50.976C19.9745 50.1291 18.6817 49.1929 17.4893 48.2234ZM23.8526 46.9641C22.2479 45.95 20.7434 44.8132 19.3504 43.5762L17.9239 47.1313L18.0576 47.2427C19.2612 48.2457 20.5651 49.1818 21.9136 50.0399C22.4931 50.4076 23.0837 50.7531 23.6854 51.0986L24.0755 51.3103L28.6335 49.4827C26.9842 48.7806 25.3794 47.9336 23.8526 46.9641ZM27.8088 44.4455C25.4129 42.9299 23.1617 41.1357 21.1334 39.1297L19.7961 42.4618L19.9633 42.629C21.3229 43.8549 22.8496 45.0027 24.4544 46.0168C26.0926 47.0532 27.82 47.9559 29.5696 48.6803L30.1045 48.8921L33.6261 47.4767C31.5979 46.6298 29.6476 45.6157 27.8088 44.4455ZM40.0229 44.6572C36.6128 43.7545 33.3475 42.3281 30.3497 40.4336C27.6528 38.7396 25.2123 36.6668 23.0725 34.2931L21.5792 38.0041L21.7687 38.2047C23.7635 40.1884 26.0035 41.9826 28.4106 43.5094C30.3386 44.7352 32.4225 45.7939 34.5734 46.6743L35.1083 46.8861L40.3684 44.7798C40.257 44.7464 40.1455 44.7018 40.0229 44.6572ZM42.9204 40.0881C42.887 40.1216 42.8535 40.1661 42.8313 40.1995L42.5192 40.623C42.1292 41.158 41.5051 41.47 40.8476 41.47C40.4018 41.47 39.9784 41.3362 39.6217 41.0688L38.7859 40.4559C38.329 40.1326 38.0392 39.6535 37.9501 39.0962C37.8609 38.5502 37.9947 38.0041 38.329 37.5583L38.6299 37.1348C39.0311 36.5888 39.5103 36.0984 40.0563 35.6861C39.9003 35.4855 39.7332 35.2738 39.5549 35.062L39.3654 35.3741C38.9865 35.987 38.3067 36.3771 37.5823 36.3771C37.2034 36.3771 36.8357 36.2656 36.5125 36.0651L35.6209 35.5301C34.6402 34.9283 34.3282 33.6467 34.9188 32.6772L35.1975 32.2314C35.4092 31.8748 35.6321 31.5517 35.8662 31.2396C35.6878 31.0724 35.5207 30.9276 35.3535 30.7715C35.2309 30.9053 35.1083 31.0278 34.9746 31.1616L34.6068 31.5293C34.2168 31.9194 33.693 32.1311 33.147 32.1311C32.5897 32.1311 32.0659 31.9082 31.6759 31.5182L30.9404 30.7827C30.5503 30.3814 30.3274 29.8689 30.3274 29.3116C30.3386 28.7544 30.5503 28.2306 30.9404 27.8406L31.1409 27.6512C28.823 26.2692 26.9508 25.79 26.1707 26.5701C24.7665 27.9743 27.4522 32.9335 32.1663 37.6364C36.8691 42.3504 41.8283 45.0361 43.2325 43.632C43.8454 43.019 43.6782 41.7374 42.9204 40.0881ZM41.6246 39.9618L41.9309 39.5417C42.4186 38.8729 43.2282 38.3887 44.2107 38.1788C45.447 37.9126 46.2875 38.1534 47.8123 38.5886L48.3988 38.7544C49.9613 39.1905 52.3414 39.629 54.9691 38.4113L55.4406 38.1928C55.9241 37.9687 56.1344 37.395 55.9103 36.9115L55.4729 35.9679C55.2487 35.4844 54.6751 35.2741 54.1916 35.4983L53.7194 35.7172C52.003 36.5136 50.4012 36.2308 49.1971 35.8938L48.6267 35.7324C46.9757 35.2609 45.5488 34.8549 43.589 35.2744C41.8912 35.6379 40.4503 36.5319 39.5315 37.792L39.2251 38.2121C38.9112 38.6426 39.0057 39.2462 39.4362 39.5602L40.2765 40.1729C40.707 40.4869 41.3106 40.3924 41.6246 39.9618ZM33.8253 30.7361L34.1942 30.3694C35.1993 29.3703 35.9418 28.5284 36.3487 26.7879C36.6586 25.4613 36.6139 24.2616 36.5746 23.203C36.553 22.6313 36.5333 22.0914 36.5782 21.6364C36.7283 20.1316 37.0467 18.5588 39.1097 17.3145L39.555 17.0461C40.0116 16.771 40.1586 16.1779 39.8834 15.7215L39.3464 14.831C39.0712 14.3746 38.4781 14.2277 38.0217 14.503L37.5766 14.7716C34.0663 16.8876 33.7559 20.0092 33.6229 21.3424C33.5577 21.999 33.5827 22.6676 33.6066 23.3132C33.6407 24.228 33.6762 25.1739 33.4571 26.112C33.2218 27.1177 32.8915 27.4769 32.1005 28.2629L31.7316 28.6296C31.3537 29.0052 31.3518 29.6162 31.7274 29.9941L32.4608 30.7319C32.8364 31.1099 33.4473 31.1117 33.8253 30.7361ZM50.7792 20.8175L50.6255 21.3147C49.9585 23.4723 49.0387 24.9715 47.8128 25.8972C46.4614 26.9182 45.5599 27.1401 44.0662 27.5082C43.5857 27.6262 43.0663 27.7547 42.4846 27.9205C40.6268 28.4496 38.0191 29.7269 36.1453 32.8068L35.875 33.2515C35.5983 33.7068 35.7429 34.3002 36.1981 34.5771L37.0872 35.1179C37.5424 35.3947 38.1358 35.2503 38.4128 34.7952L38.6833 34.3508C40.0567 32.092 41.951 31.1603 43.2978 30.7765C43.8418 30.6216 44.3275 30.5022 44.7765 30.3919C46.3796 29.997 47.7638 29.6563 49.6031 28.2671C51.3433 26.9523 52.6061 24.965 53.4632 22.1912L53.6166 21.6947C53.7739 21.1856 53.4888 20.6454 52.9797 20.488L51.986 20.1808C51.4769 20.0234 50.9367 20.3085 50.7792 20.8175ZM28.159 16.1337C27.2997 16.1337 26.603 16.8303 26.603 17.6897C26.603 18.5491 27.2997 19.2457 28.159 19.2457C29.0184 19.2457 29.7151 18.5491 29.7151 17.6897C29.7151 16.8303 29.0184 16.1337 28.159 16.1337ZM46.8905 14.1973C45.821 14.1973 44.9541 15.0642 44.9541 16.1337C44.9541 17.2031 45.821 18.0701 46.8905 18.0701C47.9599 18.0701 48.8269 17.2031 48.8269 16.1337C48.8269 15.0642 47.9599 14.1973 46.8905 14.1973ZM49.0972 43.4766C49.0972 44.4297 49.8698 45.2023 50.8229 45.2023C51.776 45.2023 52.5486 44.4297 52.5486 43.4766C52.5486 42.5235 51.776 41.7509 50.8229 41.7509C49.8698 41.7509 49.0972 42.5235 49.0972 43.4766Z" fill="white"/>
</g>
<defs>
<clipPath id="clip0_9_454">
<rect width="39" height="39" fill="white" transform="translate(17 14)"/>
</clipPath>
</defs>
</svg>
