<svg width="70" height="70" viewBox="0 0 70 70" fill="none" xmlns="http://www.w3.org/2000/svg">
<circle cx="34.9996" cy="35" r="35" fill="#F5A800"/>
<g clip-path="url(#clip0_9_455)">
<path d="M50.5261 45.1272C46.9563 45.1272 44.0521 48.0314 44.0521 51.6011V56.9346H57V51.6011C57 48.0314 54.0958 45.1272 50.5261 45.1272Z" fill="white"/>
<path d="M19.4739 45.1272C15.9042 45.1272 13 48.0314 13 51.6011V56.9346H25.9479V51.6011C25.9479 48.0314 23.0437 45.1272 19.4739 45.1272Z" fill="white"/>
<path d="M35 45.1272C31.4302 45.1272 28.5261 48.0314 28.5261 51.6011V56.9346H41.474V51.6011C41.4739 48.0314 38.5697 45.1272 35 45.1272Z" fill="white"/>
<path d="M33.7109 13.0657H36.2891V16.9329H33.7109V13.0657Z" fill="white"/>
<path d="M26.9747 14.5408L29.4265 13.7441L30.6214 17.4218L28.1696 18.2185L26.9747 14.5408Z" fill="white"/>
<path d="M21.0266 18.0232L23.1123 16.5073L25.3862 19.6358L23.3005 21.1517L21.0266 18.0232Z" fill="white"/>
<path d="M16.4446 23.1792L17.9606 21.0935L21.0891 23.3674L19.5732 25.4531L16.4446 23.1792Z" fill="white"/>
<path d="M13.6777 29.4932L14.4743 27.0414L18.152 28.2363L17.3554 30.6881L13.6777 29.4932Z" fill="white"/>
<path d="M13 33.7766H16.8672V36.3547H13V33.7766Z" fill="white"/>
<path d="M53.1328 33.7766H57V36.3547H53.1328V33.7766Z" fill="white"/>
<path d="M51.8446 28.2356L55.5223 27.0406L56.3189 29.4924L52.6412 30.6874L51.8446 28.2356Z" fill="white"/>
<path d="M48.9134 23.3569L52.0419 21.083L53.5579 23.1687L50.4293 25.4426L48.9134 23.3569Z" fill="white"/>
<path d="M44.622 19.6396L46.8959 16.5111L48.9816 18.027L46.7077 21.1556L44.622 19.6396Z" fill="white"/>
<path d="M39.377 17.4236L40.5719 13.7459L43.0237 14.5425L41.8288 18.2202L39.377 17.4236Z" fill="white"/>
<path d="M29.47 28.954C30.7049 27.7191 30.7049 25.7169 29.47 24.482C28.2351 23.2471 26.2329 23.2471 24.998 24.482C23.7631 25.7169 23.7631 27.7191 24.998 28.954C26.2329 30.1889 28.2351 30.1889 29.47 28.954Z" fill="white"/>
<path d="M43.4864 29.7845C45.186 29.3828 46.2381 27.6794 45.8364 25.9798C45.4346 24.2803 43.7312 23.2282 42.0316 23.63C40.332 24.0317 39.2799 25.7352 39.6816 27.4347C40.0834 29.1342 41.7868 30.1863 43.4864 29.7845Z" fill="white"/>
<path d="M45.2585 44.2444C44.9547 43.545 44.7852 42.7743 44.7852 41.9644C44.7852 39.2422 46.6903 36.9582 49.2369 36.3714V36.3548C49.2369 32.785 46.3328 29.8809 42.763 29.8809C39.1932 29.8809 36.2891 32.785 36.2891 36.3548V36.3714C38.8356 36.9582 40.7409 39.2422 40.7409 41.9644C40.7409 42.7744 40.5714 43.5452 40.2675 44.2445C41.2721 44.9657 42.1237 45.8871 42.7631 46.9502C43.4024 45.8871 44.254 44.9656 45.2585 44.2444Z" fill="white"/>
<path d="M29.7325 44.2445C29.4286 43.5452 29.2591 42.7743 29.2591 41.9644C29.2591 39.2422 31.1643 36.9582 33.7109 36.3714V36.3548C33.7109 32.785 30.8067 29.8809 27.237 29.8809C23.6672 29.8809 20.7631 32.785 20.7631 36.3548V36.3714C23.3096 36.9582 25.2148 39.2422 25.2148 41.9644C25.2148 42.7743 25.0453 43.545 24.7415 44.2444C25.746 44.9656 26.5976 45.8871 27.237 46.9502C27.8763 45.8871 28.728 44.9657 29.7325 44.2445Z" fill="white"/>
<path d="M35.4988 45.0874C37.2228 44.8079 38.3939 43.1838 38.1144 41.4598C37.835 39.7358 36.2108 38.5648 34.4868 38.8443C32.7627 39.1238 31.5917 40.7479 31.8711 42.4719C32.1506 44.1959 33.7748 45.3669 35.4988 45.0874Z" fill="white"/>
<path d="M20.2068 45.0328C21.9064 44.6311 22.9585 42.9277 22.5568 41.2281C22.155 39.5286 20.4516 38.4765 18.752 38.8783C17.0524 39.28 16.0003 40.9835 16.402 42.683C16.8038 44.3825 18.5072 45.4346 20.2068 45.0328Z" fill="white"/>
<path d="M52.755 44.2013C53.9899 42.9664 53.9899 40.9642 52.755 39.7293C51.52 38.4944 49.5179 38.4944 48.2829 39.7293C47.048 40.9642 47.048 42.9664 48.2829 44.2013C49.5179 45.4363 51.52 45.4363 52.755 44.2013Z" fill="white"/>
</g>
<defs>
<clipPath id="clip0_9_455">
<rect width="44" height="44" fill="white" transform="translate(13 13)"/>
</clipPath>
</defs>
</svg>
