<svg width="70" height="70" viewBox="0 0 70 70" fill="none" xmlns="http://www.w3.org/2000/svg">
<circle cx="34.9996" cy="35" r="35" fill="#009483"/>
<path d="M25.8646 16.0536V19.0221C25.8646 19.2744 25.6634 19.4756 25.4118 19.4756C25.1602 19.4756 24.959 19.2744 24.959 19.0221V16.0536C24.959 15.8021 25.1602 15.6008 25.4118 15.6008C25.6634 15.6008 25.8646 15.8021 25.8646 16.0536Z" fill="white"/>
<path d="M35.4527 16.0536V19.0221C35.4527 19.2744 35.2515 19.4756 34.9999 19.4756C34.7484 19.4756 34.5471 19.2744 34.5471 19.0221V16.0536C34.5471 15.8021 34.7484 15.6008 34.9999 15.6008C35.2515 15.6008 35.4527 15.8021 35.4527 16.0536Z" fill="white"/>
<path d="M45.0409 16.0536V19.0221C45.0409 19.2744 44.8403 19.4756 44.5881 19.4756C44.3365 19.4756 44.1353 19.2744 44.1353 19.0221V16.0536C44.1353 15.8021 44.3365 15.6008 44.5881 15.6008C44.8396 15.6008 45.0409 15.8021 45.0409 16.0536Z" fill="white"/>
<path d="M53.3856 26.4611H16.6144C16.6934 22.4641 19.59 19.1514 23.5216 18.4255V19.0221C23.5216 20.0642 24.3697 20.9131 25.4119 20.9131C26.4541 20.9131 27.3022 20.0642 27.3022 19.0221V18.2817H33.1097V19.0221C33.1097 20.0642 33.9578 20.9131 35 20.9131C36.0422 20.9131 36.8903 20.0642 36.8903 19.0221V18.2817H42.6978V19.0221C42.6978 20.0642 43.5459 20.9131 44.5881 20.9131C45.6303 20.9131 46.4784 20.0642 46.4784 19.0221V18.4255C50.4172 19.1514 53.3066 22.4649 53.3856 26.4611Z" fill="white"/>
<path d="M36.1212 37.6737C35.8848 37.6737 35.6979 37.6888 35.5534 37.7024V39.6941H36.1572C36.9406 39.6941 37.4294 39.306 37.4294 38.6735C37.4294 38.4284 37.4294 37.6881 36.1212 37.6737ZM36.1212 37.6737C35.8848 37.6737 35.6979 37.6888 35.5534 37.7024V39.6941H36.1572C36.9406 39.6941 37.4294 39.306 37.4294 38.6735C37.4294 38.4284 37.4294 37.6881 36.1212 37.6737ZM16.6 27.8987V46.0471C16.6 50.6543 20.4237 54.399 25.1172 54.399H44.8828C49.5762 54.399 53.4 50.6543 53.4 46.0471V27.8987H16.6ZM30.9965 37.4365C30.9965 37.6313 30.8312 37.7959 30.6372 37.7959H28.0209V39.4921H30.4072C30.6084 39.4921 30.7665 39.6502 30.7665 39.8515V40.6277C30.7665 40.8218 30.6084 40.9871 30.4072 40.9871H28.0209V43.9124C28.0209 44.113 27.8556 44.2718 27.6615 44.2718H26.72C26.5187 44.2718 26.3606 44.113 26.3606 43.9124V36.6459C26.3606 36.4511 26.5187 36.2865 26.72 36.2865H30.6372C30.8312 36.2865 30.9965 36.4511 30.9965 36.6459V37.4365ZM39.2981 44.0993C39.2327 44.2064 39.1184 44.2718 38.9883 44.2718H38.0187C37.8886 44.2718 37.7744 44.2064 37.7089 44.0921C37.5796 43.8686 37.4286 43.3583 37.185 42.2586C36.9765 41.317 36.6747 41.1445 36.0637 41.123H35.5534V43.9124C35.5534 44.113 35.3953 44.2718 35.194 44.2718H34.2597C34.0584 44.2718 33.9003 44.113 33.9003 43.9124V36.7465C33.9003 36.5747 34.0153 36.431 34.1878 36.395C34.6694 36.2937 35.3665 36.2362 36.0565 36.2362C37.1562 36.2362 37.875 36.4446 38.4004 36.919C38.8453 37.3143 39.0904 37.8965 39.0904 38.5649C39.0904 39.3771 38.7231 40.0527 38.0769 40.4768C38.4076 40.7787 38.6448 41.2387 38.7806 41.8417C38.989 42.733 39.1759 43.4956 39.3053 43.7464C39.3628 43.8549 39.3628 43.9915 39.2981 44.0993ZM43.6393 43.9124C43.6393 44.113 43.4812 44.2718 43.28 44.2718H42.3384C42.1443 44.2718 41.979 44.113 41.979 43.9124V36.6459C41.979 36.4511 42.1443 36.2865 42.3384 36.2865H43.28C43.4812 36.2865 43.6393 36.4511 43.6393 36.6459V43.9124ZM36.1212 37.6737C35.8848 37.6737 35.6979 37.6888 35.5534 37.7024V39.6941H36.1572C36.9406 39.6941 37.4294 39.306 37.4294 38.6735C37.4294 38.4284 37.4294 37.6881 36.1212 37.6737ZM36.1212 37.6737C35.8848 37.6737 35.6979 37.6888 35.5534 37.7024V39.6941H36.1572C36.9406 39.6941 37.4294 39.306 37.4294 38.6735C37.4294 38.4284 37.4294 37.6881 36.1212 37.6737ZM36.1212 37.6737C35.8848 37.6737 35.6979 37.6888 35.5534 37.7024V39.6941H36.1572C36.9406 39.6941 37.4294 39.306 37.4294 38.6735C37.4294 38.4284 37.4294 37.6881 36.1212 37.6737Z" fill="white"/>
</svg>
