<svg width="70" height="70" viewBox="0 0 70 70" fill="none" xmlns="http://www.w3.org/2000/svg">
<circle cx="34.9996" cy="35" r="35" fill="#C2D501"/>
<path d="M27.9965 38.4682L27.4191 37.8876C27.2682 37.7355 27.0886 37.6148 26.8909 37.5325C26.6931 37.4501 26.481 37.4077 26.2668 37.4077C26.0525 37.4077 25.8404 37.4501 25.6426 37.5325C25.4449 37.6148 25.2654 37.7355 25.1144 37.8876L21.6526 41.3641C21.3458 41.6733 21.1737 42.0911 21.1737 42.5266C21.1737 42.9621 21.3458 43.38 21.6526 43.6892L22.2292 44.2682C22.38 44.4202 22.5595 44.5409 22.7572 44.6232C22.9549 44.7056 23.1669 44.748 23.3811 44.748C23.5952 44.748 23.8073 44.7056 24.005 44.6232C24.2027 44.5409 24.3821 44.4202 24.533 44.2682L27.9956 40.7916C28.3022 40.4828 28.4743 40.0653 28.4745 39.6301C28.4746 39.1949 28.3028 38.7773 27.9965 38.4682Z" fill="white"/>
<path d="M30.3085 52.3825C30.6179 52.6792 31.03 52.8449 31.4587 52.8449C31.8874 52.8449 32.2996 52.6792 32.609 52.3825V52.3784L36.0717 48.906L36.0766 48.9019C36.3824 48.5933 36.554 48.1763 36.554 47.7418C36.554 47.3073 36.3824 46.8904 36.0766 46.5817L35.5 46.0011C35.1902 45.7035 34.7773 45.5374 34.3477 45.5374C33.9181 45.5374 33.5052 45.7035 33.1954 46.0011L29.7335 49.4776C29.4265 49.7863 29.2541 50.204 29.2541 50.6393C29.2541 51.0747 29.4265 51.4924 29.7335 51.8011L30.3085 52.3825Z" fill="white"/>
<path d="M34.3493 56.4374C34.5001 56.5892 34.6795 56.7096 34.877 56.7918C35.0746 56.874 35.2864 56.9163 35.5004 56.9163C35.7144 56.9163 35.9262 56.874 36.1238 56.7918C36.3213 56.7096 36.5007 56.5892 36.6515 56.4374L40.1117 52.9617C40.4185 52.6532 40.5907 52.2358 40.5907 51.8008C40.5907 51.3657 40.4185 50.9484 40.1117 50.6399L39.5401 50.0551C39.2333 49.75 38.818 49.5791 38.3853 49.5798C38.1729 49.5796 37.9626 49.6213 37.7664 49.7026C37.5701 49.7839 37.3919 49.9031 37.242 50.0535L33.7801 53.5292C33.4742 53.8379 33.3026 54.2548 33.3026 54.6893C33.3026 55.1238 33.4742 55.5408 33.7801 55.8494L34.3493 56.4374Z" fill="white"/>
<path d="M27.4207 48.8056C27.6352 48.8061 27.8476 48.7639 28.0456 48.6815C28.2436 48.599 28.4231 48.478 28.5738 48.3254L32.0357 44.8497C32.3424 44.5405 32.5146 44.1227 32.5146 43.6871C32.5146 43.2516 32.3424 42.8338 32.0357 42.5246L31.4591 41.944C31.308 41.7922 31.1283 41.6718 30.9305 41.5896C30.7327 41.5074 30.5206 41.4651 30.3064 41.4651C30.0922 41.4651 29.8801 41.5074 29.6823 41.5896C29.4845 41.6718 29.3048 41.7922 29.1537 41.944L25.6918 45.4213C25.3851 45.7305 25.2129 46.1484 25.2129 46.5839C25.2129 47.0194 25.3851 47.4372 25.6918 47.7464L26.2692 48.3254C26.4197 48.4778 26.599 48.5987 26.7967 48.6812C26.9944 48.7636 27.2065 48.8059 27.4207 48.8056Z" fill="white"/>
<path d="M40.1183 32.0989L49.3515 41.3713C49.661 41.6692 50.0738 41.8356 50.5034 41.8356C50.933 41.8356 51.3458 41.6692 51.6553 41.3713L52.2327 40.7915C52.5395 40.4827 52.7118 40.0651 52.7118 39.6298C52.7118 39.1945 52.5395 38.7769 52.2327 38.4681L39.5368 25.7199C39.3826 25.5706 39.1765 25.4872 38.9619 25.4872C38.7473 25.4872 38.5411 25.5706 38.3869 25.7199L32.0398 32.0899C31.5856 32.5462 31.0458 32.9083 30.4513 33.1554C29.8568 33.4025 29.2193 33.5297 28.5755 33.5297C27.9317 33.5297 27.2942 33.4025 26.6997 33.1554C26.1052 32.9083 25.5654 32.5462 25.1112 32.0899C24.6531 31.6285 24.396 31.0047 24.396 30.3545C24.396 29.7043 24.6531 29.0805 25.1112 28.6191L34.3191 19.3752C31.838 17.163 28.603 15.9865 25.2803 16.0881C21.9577 16.1898 18.8007 17.5618 16.4594 19.9216C14.0124 22.3884 12.6393 25.7222 12.6393 29.1969C12.6393 32.6715 14.0124 36.0054 16.4594 38.4722L19.6632 41.6898C19.8043 41.1319 20.0912 40.6214 20.4946 40.2109L23.9564 36.7343C24.2592 36.4299 24.6192 36.1882 25.0157 36.0234C25.4122 35.8585 25.8374 35.7737 26.2668 35.7737C26.6962 35.7737 27.1213 35.8585 27.5178 36.0234C27.9143 36.1882 28.2743 36.4299 28.5771 36.7343L29.1537 37.315C29.4852 37.6502 29.74 38.0533 29.9005 38.4967C30.0609 38.94 30.1232 39.4128 30.0831 39.8826C30.5453 39.8456 31.0102 39.9074 31.4467 40.064C31.8832 40.2206 32.2814 40.4683 32.6147 40.7907L33.1921 41.3713C33.5198 41.7031 33.7724 42.1013 33.933 42.539C34.0936 42.9767 34.1584 43.4438 34.1231 43.9087C34.1974 43.9038 34.2693 43.8875 34.3444 43.8875C34.7739 43.8866 35.1993 43.971 35.5959 44.1359C35.9926 44.3008 36.3525 44.5428 36.6548 44.8479L37.2313 45.4285C37.563 45.7638 37.8178 46.1672 37.9783 46.6106C38.1387 47.0541 38.201 47.5271 38.1607 47.997C38.6227 47.9606 39.0872 48.0225 39.5236 48.1786C39.9599 48.3347 40.3583 48.5815 40.6924 48.9026L41.2526 49.4743C41.2575 49.4784 41.264 49.48 41.2681 49.4841C41.419 49.6362 41.5986 49.7568 41.7963 49.8392C41.9941 49.9216 42.2062 49.964 42.4204 49.964C42.6347 49.964 42.8468 49.9216 43.0446 49.8392C43.2423 49.7568 43.4218 49.6362 43.5728 49.4841L44.1501 48.9035C44.4563 48.5947 44.6281 48.1774 44.6281 47.7426C44.6281 47.3077 44.4563 46.8905 44.1501 46.5817L34.921 37.3084C34.8453 37.2324 34.7853 37.1422 34.7444 37.043C34.7036 36.9437 34.6827 36.8374 34.6829 36.7301C34.6831 36.6228 34.7045 36.5166 34.7457 36.4176C34.787 36.3185 34.8474 36.2286 34.9234 36.1528C34.9995 36.0771 35.0897 36.0171 35.1889 35.9763C35.2881 35.9354 35.3944 35.9145 35.5017 35.9147C35.7185 35.9152 35.9261 36.0017 36.079 36.1553L45.3123 45.4285C45.622 45.7259 46.0348 45.8919 46.4642 45.8919C46.8935 45.8919 47.3063 45.7259 47.6161 45.4285L48.1926 44.8487C48.4993 44.5397 48.6715 44.122 48.6715 43.6866C48.6715 43.2512 48.4993 42.8335 48.1926 42.5245L38.9602 33.252C38.8073 33.0985 38.7217 32.8905 38.7221 32.6737C38.7226 32.457 38.8091 32.2494 38.9627 32.0965C39.1162 31.9435 39.3243 31.8579 39.541 31.8584C39.7577 31.8588 39.9653 31.9453 40.1183 32.0989Z" fill="white"/>
<path d="M54.2229 38.7931L54.5406 38.4738C56.9876 36.0071 58.3606 32.6734 58.3606 29.1989C58.3606 25.7244 56.9876 22.3907 54.5406 19.924C53.3313 18.7076 51.8934 17.7423 50.3096 17.0835C48.7259 16.4248 47.0275 16.0857 45.3123 16.0857C43.597 16.0857 41.8986 16.4248 40.3149 17.0835C38.7311 17.7423 37.2932 18.7076 36.0839 19.924L26.2717 29.7755C26.118 29.9303 26.0317 30.1396 26.0317 30.3578C26.0317 30.5759 26.118 30.7852 26.2717 30.9401C26.8918 31.5358 27.7184 31.8685 28.5783 31.8685C29.4383 31.8685 30.2649 31.5358 30.885 30.9401L37.2321 24.5701C37.6982 24.1229 38.3192 23.8731 38.9651 23.8731C39.6111 23.8731 40.232 24.1229 40.6981 24.5701L53.3907 37.3166C53.7942 37.7263 54.0814 38.2359 54.2229 38.7931Z" fill="white"/>
</svg>
