<svg width="70" height="70" viewBox="0 0 70 70" fill="none" xmlns="http://www.w3.org/2000/svg">
<circle cx="34.9996" cy="35" r="35" fill="#F05023"/>
<path d="M22.6183 35.9231L25.3789 34.3317C26.54 33.6659 28.0339 34.0638 28.7079 35.2248L32.7675 42.2562C33.4333 43.4172 33.0355 44.9112 31.8744 45.5851L29.1138 47.1765C30.1011 47.7164 31.1632 48.1065 32.259 48.3468C33.3829 48.5933 34.1884 49.5775 34.1884 50.728V50.7325C34.1884 52.3046 32.7245 53.462 31.1911 53.1153C27.5589 52.294 24.3639 50.3155 21.9931 47.5987C21.709 48.9059 20.9052 50.0995 19.6548 50.8221C15.9358 53.0264 11.2534 49.4464 12.4368 45.2846C13.0691 42.7082 15.9294 41.0652 18.4694 41.8015C18.5424 41.8177 18.6155 41.8583 18.6886 41.8827C18.0796 40.1208 17.7305 38.2371 17.7305 36.2722C17.7305 34.4904 18.0034 32.7689 18.5077 31.1494C18.9747 29.6495 20.7066 28.962 22.0677 29.7465L22.0775 29.7521C23.0746 30.3268 23.524 31.5162 23.177 32.6136C22.8414 33.6746 22.6491 34.7859 22.6183 35.9231Z" fill="white"/>
<path d="M57.0769 49.0196C54.891 52.9044 48.8592 51.9224 48.0076 47.5985C45.6368 50.3154 42.4418 52.294 38.8096 53.1152C37.2762 53.4619 35.8123 52.3046 35.8123 50.7325V50.728C35.8123 49.5774 36.6179 48.5933 37.7417 48.3468C38.8375 48.1065 39.8997 47.7164 40.8869 47.1764L38.1263 45.5851C36.9653 44.9112 36.5674 43.4172 37.2332 42.2561L41.2929 35.2248C41.9668 34.0637 43.4607 33.6659 44.6218 34.3317L47.3824 35.923C47.3516 34.7853 47.1591 33.6733 46.8232 32.6118C46.4763 31.5152 46.925 30.3265 47.921 29.7514L47.929 29.7467C49.2892 28.9613 51.0212 29.6471 51.4901 31.1462C51.9969 32.7666 52.2703 34.4892 52.2703 36.2722C52.2703 38.2371 51.9211 40.1207 51.3122 41.8827C51.3852 41.8583 51.4583 41.8177 51.5314 41.8014C55.6724 40.6148 59.2928 45.3172 57.0769 49.0196Z" fill="white"/>
<path d="M41.4958 25.7251V28.916C41.4958 30.2557 40.3997 31.3518 39.06 31.3518H30.9407C29.601 31.3518 28.5049 30.2557 28.5049 28.916V25.7251C27.5377 26.327 26.6683 27.0528 25.9112 27.8777C25.1356 28.7227 23.8845 28.9254 22.8909 28.3524C21.5614 27.5858 21.2293 25.7693 22.2656 24.6373C24.7129 21.964 27.9898 20.0578 31.6795 19.3352C30.6971 18.4339 30.0719 17.1429 30.0719 15.7139C30.3033 9.19628 39.6949 9.18908 39.9288 15.714C39.9288 17.1429 39.3036 18.4339 38.3212 19.3352C42.012 20.058 45.2845 21.9599 47.7338 24.6322C48.7704 25.7631 48.4408 27.5789 47.1129 28.3472L47.1108 28.3484C46.1168 28.9234 44.8642 28.7212 44.0875 27.8754C43.3308 27.0515 42.4621 26.3265 41.4958 25.7251Z" fill="white"/>
</svg>
